{"glyphs":{"0":{"ha":722,"x_min":40,"x_max":632,"o":"m 324 883 l 324 881 q 106 657 183 789 q 74 581 83 607 q 50 500 57 535 q 46 476 47 485 q 43 451 43 464 q 40 404 40 399 l 40 392 q 80 221 40 304 q 186 81 119 138 q 197 72 193 76 q 203 67 200 68 q 208 63 206 65 q 213 58 211 60 q 222 50 218 53 q 276 14 251 28 q 336 -6 310 -6 l 361 -6 l 482 107 q 596 276 560 179 q 632 474 632 374 l 632 517 q 631 532 631 521 q 629 540 629 539 l 629 546 q 628 551 628 550 q 324 883 574 788 m 232 754 l 232 751 q 447 617 371 729 q 535 376 535 489 l 535 364 q 536 358 535 360 l 536 344 q 458 133 536 253 q 450 122 457 129 q 447 117 449 119 q 444 113 444 115 q 317 158 376 113 q 218 260 257 204 q 205 278 211 267 q 194 299 199 289 l 140 444 q 232 754 140 622 "},"1":{"ha":481,"x_min":19,"x_max":422,"o":"m 178 889 l 19 740 l 26 733 q 35 732 33 731 l 94 769 q 118 753 107 768 q 146 707 140 731 q 149 701 149 706 q 153 694 150 696 l 153 178 q 113 106 139 122 l 258 -11 l 422 132 l 401 153 q 378 126 394 142 q 350 103 363 110 q 338 104 344 103 q 330 108 332 106 q 326 111 328 110 q 321 113 324 113 q 317 113 318 113 q 317 115 317 114 l 315 115 q 299 132 307 122 q 288 156 290 147 l 288 757 l 269 810 l 178 889 "},"2":{"ha":722,"x_min":26,"x_max":619,"o":"m 296 889 l 46 689 l 49 668 l 129 589 l 138 589 l 379 778 q 428 724 410 760 q 451 653 446 688 l 451 636 q 453 629 451 631 l 453 611 q 451 600 451 607 q 449 578 449 586 q 442 547 447 563 q 436 533 436 531 q 431 519 433 524 q 349 408 397 460 q 249 311 283 343 l 244 307 q 240 303 240 303 q 107 167 171 239 q 26 -6 43 94 q 34 -4 29 -6 q 42 -1 39 -3 q 74 6 63 1 q 121 18 111 15 q 144 24 144 24 q 168 28 151 24 q 215 40 207 38 l 376 35 l 511 -11 l 619 115 q 540 144 579 133 q 501 156 501 156 q 481 160 494 157 q 460 163 468 163 q 424 165 460 163 q 406 167 406 167 l 374 167 q 360 165 368 165 l 346 165 q 332 164 340 164 q 222 143 276 158 q 118 107 161 126 q 250 235 167 185 l 444 353 q 608 638 608 479 l 608 643 q 607 650 607 647 l 607 668 q 606 681 606 672 l 606 694 l 296 889 "},"3":{"ha":722,"x_min":17,"x_max":608,"o":"m 269 883 l 72 735 l 153 649 l 356 789 l 367 786 q 406 770 389 786 q 425 732 424 754 l 425 722 q 426 718 425 719 l 426 703 q 428 699 426 700 l 428 694 q 350 542 428 603 q 186 488 272 482 l 181 450 l 213 447 l 235 447 q 243 447 238 447 q 251 446 249 446 q 283 443 260 443 q 299 442 288 442 q 417 362 376 425 q 457 229 457 299 l 457 218 q 456 206 456 213 q 453 182 453 192 q 390 51 432 93 l 113 281 l 17 186 l 244 -6 l 258 -6 q 271 -4 263 -4 l 285 -4 q 299 -3 294 -3 q 585 153 501 11 q 596 176 594 169 q 597 183 596 178 q 600 190 599 188 l 604 203 q 607 224 604 210 q 608 235 607 231 l 608 244 q 547 388 608 322 q 401 465 486 454 q 522 549 468 492 q 576 681 576 607 l 576 689 q 575 697 575 696 l 575 707 q 572 717 574 708 q 569 731 571 725 q 568 743 568 738 l 269 883 "},"4":{"ha":751,"x_min":35,"x_max":654,"o":"m 393 889 l 35 393 l 72 281 l 367 281 l 367 204 q 358 141 367 174 q 321 89 349 108 l 476 -11 l 619 113 q 616 124 619 121 q 611 131 613 128 q 608 138 610 133 l 563 103 l 506 135 l 506 285 l 654 285 l 628 388 l 503 388 l 503 758 q 393 889 478 832 m 339 743 l 364 714 l 364 388 l 81 388 l 339 743 "},"5":{"ha":722,"x_min":35,"x_max":603,"o":"m 169 867 l 94 382 l 281 506 l 299 503 q 432 422 381 490 q 492 276 483 353 l 492 261 q 493 254 492 256 l 493 238 q 468 140 493 196 q 404 64 449 97 q 115 238 281 153 l 35 143 l 60 118 l 269 -11 q 490 85 403 8 q 603 293 585 165 l 603 315 q 549 494 603 417 q 401 622 496 572 l 382 622 l 143 457 l 186 743 l 514 743 l 557 867 l 169 867 "},"6":{"ha":722,"x_min":43,"x_max":625,"o":"m 342 883 l 192 743 q 82 575 128 683 q 43 385 43 483 l 43 368 q 44 358 43 364 q 44 350 44 353 q 57 276 51 301 q 60 267 58 274 q 63 260 63 261 q 67 242 63 258 q 174 80 101 144 q 347 -11 247 15 q 375 6 367 1 q 404 26 394 19 q 508 114 453 61 q 608 249 586 188 q 612 257 610 251 q 614 264 614 263 q 619 284 614 265 q 624 313 624 303 q 625 329 624 324 l 625 344 q 579 490 625 424 q 460 594 533 557 l 444 594 l 172 396 l 172 400 q 171 404 171 403 l 171 417 q 169 418 169 418 l 169 424 q 167 438 167 432 l 167 476 q 169 504 167 489 q 201 636 183 582 q 261 758 219 690 l 265 758 q 268 760 267 758 l 276 760 q 281 764 279 760 l 490 657 l 579 767 q 342 883 421 846 m 339 476 l 339 474 q 419 439 383 465 q 485 382 454 413 q 506 343 497 365 q 515 301 514 321 l 515 286 q 517 279 515 281 l 517 264 q 515 254 515 260 l 515 244 q 514 236 514 243 q 488 163 504 194 q 444 107 472 131 q 292 168 365 107 q 190 303 225 224 q 182 324 189 314 q 179 335 182 328 q 175 344 176 342 q 180 358 175 353 q 186 367 185 363 l 339 476 "},"7":{"ha":660,"x_min":54,"x_max":635,"o":"m 161 867 l 54 643 l 75 632 q 76 634 75 632 q 79 638 78 636 l 83 642 q 143 701 103 667 q 215 743 172 728 l 511 740 q 269 393 365 578 q 149 -8 172 208 l 161 -14 l 331 54 l 347 226 q 449 545 379 397 q 628 829 518 693 l 635 867 l 161 867 "},"8":{"ha":722,"x_min":43,"x_max":617,"o":"m 275 883 l 135 732 q 131 724 132 729 l 128 721 q 126 717 126 718 q 106 679 106 679 q 89 640 96 663 q 85 631 88 639 q 83 622 83 624 q 79 603 79 601 q 72 557 72 568 q 99 471 72 510 q 181 422 126 432 l 172 411 l 167 406 q 79 306 104 343 q 43 192 43 251 l 43 185 q 45 177 44 181 q 47 172 46 174 l 47 168 q 49 164 47 165 l 49 161 q 157 27 81 65 q 331 -11 233 -11 l 361 -11 l 522 115 q 585 201 560 153 q 615 306 614 257 q 617 311 615 310 l 617 344 q 463 519 607 450 l 560 606 q 564 614 563 613 q 575 633 568 626 q 577 639 575 636 q 579 643 579 642 q 582 653 579 644 q 583 658 582 657 l 583 663 q 585 671 583 669 l 585 694 q 524 808 585 764 q 344 878 440 869 q 301 883 311 881 l 275 883 m 218 401 l 218 399 q 339 378 282 392 q 399 363 389 365 q 457 344 438 351 q 467 340 464 342 q 474 335 469 339 q 485 331 486 331 q 488 328 485 331 q 492 325 492 326 q 554 261 535 306 l 554 226 q 553 221 553 224 l 553 215 q 551 208 551 210 q 542 180 550 196 q 528 158 533 164 q 464 117 501 132 q 385 103 426 103 l 368 103 q 361 104 363 103 l 353 104 q 265 125 301 111 q 192 161 229 139 q 157 206 171 178 q 143 256 143 235 q 144 276 143 271 q 149 290 146 282 q 153 303 151 299 q 158 315 154 307 q 163 328 161 324 q 179 353 174 344 q 218 401 204 385 m 204 751 l 244 749 l 264 749 q 285 747 271 747 q 401 728 332 747 q 468 694 447 715 l 485 678 q 496 658 496 661 q 497 648 496 654 q 500 640 499 642 l 500 629 q 499 624 499 626 l 499 618 q 497 613 497 615 q 468 560 488 581 q 422 522 454 540 q 397 526 414 524 q 372 529 381 529 q 324 538 340 536 q 274 546 276 546 q 249 552 265 549 q 224 557 232 556 q 177 586 193 565 q 161 635 161 607 q 168 676 161 642 q 182 711 179 707 q 188 721 185 715 q 192 729 190 726 q 200 743 197 739 l 201 744 l 201 746 q 204 751 203 747 "},"9":{"ha":722,"x_min":40,"x_max":632,"o":"m 339 889 l 339 886 q 160 753 214 806 q 46 565 75 669 l 46 561 q 44 556 44 558 l 44 550 q 43 546 43 547 q 40 535 40 538 l 40 525 q 90 380 40 446 q 215 288 140 314 l 500 474 l 500 461 q 501 454 500 456 l 501 432 q 503 426 501 428 l 503 401 q 501 383 501 396 l 497 347 q 489 310 496 331 q 485 294 486 301 q 482 278 485 286 l 401 115 l 388 115 l 175 226 l 89 126 l 86 115 l 313 -11 q 422 81 361 22 q 522 189 499 154 l 589 288 q 626 432 617 376 q 629 449 626 438 q 632 471 629 451 l 632 479 q 550 729 632 618 q 339 889 472 836 m 232 764 l 232 761 q 400 672 329 735 q 500 511 478 604 l 350 401 l 347 401 q 344 399 346 400 q 340 398 342 399 q 336 397 338 397 l 335 397 l 333 396 q 322 393 325 393 l 315 393 q 182 501 247 393 q 170 527 175 517 q 165 540 165 538 q 164 543 164 542 q 160 556 161 553 q 157 564 158 560 q 156 569 156 568 q 153 594 153 589 l 153 601 q 154 610 153 608 q 181 692 157 650 q 232 764 193 714 "}," ":{"ha":524,"x_min":0,"x_max":0,"o":""}," ":{"ha":524,"x_min":0,"x_max":0,"o":""},"!":{"ha":390,"x_min":75,"x_max":317,"o":"m 75 800 q 182 254 153 640 l 210 254 q 317 800 231 629 l 196 926 l 75 800 m 196 0 l 299 103 l 196 207 l 92 103 l 196 0 "},"\"":{"ha":767,"x_min":108,"x_max":599,"o":"m 210 488 q 274 839 274 688 l 274 939 l 108 939 l 108 839 q 176 488 108 671 l 210 488 m 535 488 q 599 839 599 688 l 599 939 l 433 939 l 433 839 q 501 488 433 671 l 535 488 "},"#":{"ha":929,"x_min":3,"x_max":724,"o":"m 328 982 l 261 700 l 86 700 l 67 585 l 232 585 l 186 390 l 29 390 l 3 275 l 158 275 l 92 3 l 158 3 l 224 275 l 388 275 l 318 3 l 385 3 l 450 275 l 632 275 l 657 390 l 476 390 l 525 585 l 697 585 l 724 700 l 551 700 l 619 982 l 554 982 l 490 700 l 328 700 l 393 982 l 328 982 m 299 582 l 460 582 l 414 388 l 250 388 l 299 582 "},"$":{"ha":722,"x_min":11,"x_max":614,"o":"m 285 961 l 285 881 q 204 863 254 879 q 132 826 169 851 q 49 739 76 789 q 13 629 18 683 l 13 621 q 11 613 11 619 l 11 583 q 13 571 11 575 q 51 442 21 500 q 138 342 86 376 l 278 425 l 278 140 l 72 186 q 14 60 33 125 l 281 0 l 281 -146 l 361 -146 l 361 -14 q 497 97 432 29 q 594 239 563 164 q 610 294 608 271 q 614 350 614 310 l 614 360 q 613 369 613 361 l 613 381 q 611 390 611 382 q 514 585 593 501 l 503 585 l 361 503 l 364 740 l 493 714 l 554 843 l 364 881 l 361 961 l 285 961 m 404 460 l 404 457 q 408 454 407 454 l 411 454 q 414 453 413 453 q 417 451 415 453 q 421 449 419 450 q 425 447 422 449 q 428 444 428 446 q 442 433 438 439 q 503 308 499 371 q 504 300 503 304 l 504 292 q 506 283 504 288 l 506 264 q 504 251 504 258 q 501 228 501 238 q 447 94 482 144 l 364 110 l 361 442 q 364 443 363 442 l 367 443 q 372 445 369 443 q 377 449 375 447 q 382 450 379 450 q 388 453 385 450 q 404 460 399 456 m 138 783 l 285 751 l 285 460 l 283 460 q 281 458 282 458 l 272 458 q 269 457 271 457 l 254 457 q 240 460 251 457 q 230 463 238 461 q 218 465 222 465 q 199 474 208 471 q 136 553 163 503 q 113 647 113 613 l 113 660 q 114 689 113 679 q 122 723 117 710 q 128 751 126 736 q 138 783 135 772 "},"%":{"ha":1078,"x_min":35,"x_max":953,"o":"m 754 517 l 754 514 q 608 399 668 479 q 549 224 549 318 l 549 208 q 551 193 549 201 q 553 190 551 190 l 553 188 q 554 182 553 183 q 555 172 554 175 q 557 167 556 168 l 557 161 q 633 42 579 86 q 761 -24 678 6 q 860 58 814 13 q 936 164 906 104 q 939 170 938 167 q 940 174 940 174 q 947 201 940 174 q 949 213 947 206 q 951 225 950 221 l 951 235 q 953 246 951 242 l 953 256 q 897 415 953 344 q 754 517 840 486 m 678 425 l 678 422 q 821 350 747 408 q 854 301 842 333 q 876 228 876 260 q 878 219 876 221 l 878 203 q 876 196 876 197 l 876 182 q 818 60 861 103 q 810 61 813 60 q 801 64 808 63 q 792 67 794 65 q 782 71 790 68 q 772 74 774 74 q 763 80 771 75 q 746 86 754 85 q 622 275 622 143 q 623 297 622 289 q 628 321 624 306 q 646 374 639 356 q 678 425 663 404 m 714 878 l 299 143 l 207 -14 l 278 -14 l 692 718 l 783 878 l 714 878 m 232 883 l 232 881 q 74 726 142 847 q 49 672 57 697 q 47 667 49 669 q 46 663 46 665 l 46 658 q 43 653 44 656 q 42 646 42 651 l 42 642 q 40 639 40 640 q 36 617 36 619 q 35 597 35 610 q 96 443 35 515 q 232 342 149 381 l 233 342 l 233 340 l 238 340 q 239 339 239 339 l 247 339 q 253 342 250 339 l 257 342 q 261 343 258 342 q 265 345 264 344 q 268 347 267 346 l 269 347 q 347 422 314 386 q 419 506 381 457 q 439 558 435 540 q 447 614 447 586 l 447 626 q 446 639 446 631 q 442 665 443 657 q 431 707 435 693 q 417 746 424 731 q 412 754 415 749 q 407 763 408 760 q 403 768 406 765 q 400 772 401 771 q 393 781 394 778 q 331 840 363 817 q 257 878 286 875 q 250 879 251 878 l 243 879 q 232 883 236 879 m 169 786 l 172 783 l 181 783 q 188 782 185 782 q 204 779 199 779 q 246 760 236 768 q 286 735 265 751 q 291 732 289 735 q 294 728 293 729 q 299 726 296 728 q 301 722 301 724 q 315 711 310 715 q 369 589 358 676 q 371 583 369 585 l 371 558 q 369 551 369 553 l 369 538 q 350 474 363 497 q 315 425 333 439 q 212 463 256 433 q 138 543 168 492 q 135 552 135 551 q 133 556 135 553 q 131 558 132 558 q 127 567 128 567 q 125 574 126 568 q 115 635 115 642 q 119 671 115 633 q 147 746 140 733 q 169 786 161 772 "},"&":{"ha":1078,"x_min":43,"x_max":942,"o":"m 536 958 l 536 956 q 363 875 450 919 q 194 783 250 815 l 181 738 l 318 488 l 43 269 l 235 -17 l 496 186 q 501 181 499 185 q 504 176 503 178 q 508 170 506 174 q 511 164 511 167 q 526 142 515 157 q 649 24 589 56 q 686 13 672 15 q 729 8 732 8 l 743 8 q 751 10 750 8 l 760 10 q 882 60 833 19 q 936 175 936 106 l 936 183 q 878 140 897 154 q 867 138 869 138 q 854 135 858 135 q 835 131 842 132 q 818 129 828 129 q 697 178 751 129 q 625 288 649 221 l 700 347 l 703 347 q 704 346 704 346 l 711 346 q 713 344 713 344 l 718 344 q 810 307 751 307 l 821 307 q 826 308 825 307 l 832 308 q 901 342 865 314 q 942 411 933 367 l 939 411 q 936 410 938 410 l 933 410 q 931 408 932 408 l 928 408 q 889 401 893 401 l 878 401 q 874 403 875 401 l 869 403 q 829 418 838 414 q 792 447 810 429 l 788 451 q 785 453 785 451 l 782 453 q 779 454 779 453 l 776 454 q 772 457 774 454 l 606 321 l 471 549 l 603 665 q 608 676 603 671 q 610 679 610 678 l 626 717 q 633 735 631 722 q 640 751 638 740 l 640 760 q 642 765 640 764 l 642 776 q 643 781 642 779 l 643 783 q 612 881 643 835 q 536 958 581 926 m 339 444 l 476 213 l 350 106 l 339 106 l 192 328 l 339 444 m 417 850 l 425 847 l 429 847 q 435 846 433 846 q 447 843 443 843 q 449 842 447 842 l 450 842 q 453 842 451 842 q 454 840 453 840 q 457 839 456 839 l 461 839 q 465 838 464 838 q 510 797 493 819 q 524 771 519 781 q 531 746 528 761 q 532 739 531 740 l 532 732 q 533 726 532 728 l 533 714 q 508 638 533 678 q 444 585 482 599 l 344 754 l 344 756 q 343 757 343 757 l 343 761 l 342 761 l 342 771 q 364 822 342 800 q 417 850 386 843 "},"'":{"ha":386,"x_min":108,"x_max":274,"o":"m 210 488 q 274 839 274 688 l 274 939 l 108 939 l 108 839 q 176 488 108 671 l 210 488 "},"(":{"ha":510,"x_min":38,"x_max":471,"o":"m 371 1163 l 371 1160 q 230 1035 292 1103 q 126 881 168 967 l 86 729 q 88 697 86 708 l 88 665 q 89 633 88 654 q 90 601 90 611 l 90 538 q 92 506 90 515 l 92 414 q 90 353 92 414 q 79 113 88 242 q 72 -6 75 33 l 38 -92 l 39 -93 l 40 -93 l 42 -94 l 43 -94 q 47 -97 44 -96 q 49 -99 49 -99 q 51 -100 50 -99 l 106 -100 q 168 -128 154 -121 q 172 -129 169 -128 q 178 -133 175 -131 l 215 -150 q 233 -158 224 -157 q 250 -167 242 -165 q 253 -168 251 -167 l 261 -168 q 264 -169 263 -169 l 285 -169 q 461 -37 386 -169 q 464 -33 463 -36 q 465 -26 465 -29 q 467 -22 465 -24 q 471 -17 468 -19 l 453 -3 q 451 -6 453 -4 q 449 -8 450 -8 l 443 -14 l 442 -14 l 442 -15 l 436 -21 q 433 -26 433 -24 q 431 -29 433 -28 q 426 -31 429 -31 q 421 -33 424 -31 q 407 -39 411 -39 q 392 -42 397 -42 q 386 -43 388 -42 l 379 -43 q 308 -18 350 -43 q 286 -4 294 -8 l 283 -1 l 282 -1 q 244 18 263 8 q 204 32 219 31 q 209 47 207 38 q 213 60 211 56 q 219 89 217 79 q 240 197 233 161 q 244 221 243 211 q 247 244 244 231 q 240 317 243 293 q 236 392 238 367 q 233 429 235 417 q 232 465 232 449 l 232 539 q 234 631 232 569 q 239 724 236 693 q 253 907 247 846 q 393 1142 288 1044 q 391 1144 393 1143 q 388 1146 389 1146 l 382 1151 q 376 1156 381 1151 q 371 1163 372 1161 "},")":{"ha":510,"x_min":-86,"x_max":417,"o":"m 396 1176 l 396 1174 q 368 1151 381 1158 q 339 1139 349 1143 q 315 1133 324 1135 q 290 1131 306 1131 l 274 1131 q 256 1133 269 1131 q 219 1140 232 1138 q 208 1143 217 1140 q 197 1146 206 1143 q 172 1151 182 1150 q 163 1153 169 1151 q 149 1157 157 1154 q -65 1022 40 1157 q -74 1008 -72 1014 q -86 999 -82 1000 l -69 979 q -61 985 -67 982 q -53 989 -56 988 q -36 997 -42 994 q 0 1008 -18 1006 l 7 1008 q 13 1010 11 1008 l 19 1010 q 24 1008 22 1008 l 39 1008 q 43 1007 42 1007 l 51 1007 q 74 999 64 1004 q 117 988 111 989 q 138 988 124 988 q 161 989 153 988 q 189 994 179 993 q 193 996 192 994 l 197 996 q 203 997 201 996 q 207 999 206 999 q 185 851 192 933 q 176 701 181 807 q 175 671 175 676 l 175 640 q 179 471 175 554 q 192 306 188 360 q 199 207 196 240 q 122 3 189 93 q -51 -137 54 -86 l -40 -161 l -11 -149 l 135 -62 q 286 110 229 14 q 356 331 356 226 l 353 958 q 372 1063 353 1004 q 417 1163 388 1108 l 396 1176 "},"*":{"ha":660,"x_min":63,"x_max":551,"o":"m 161 1179 l 146 1063 q 157 1060 154 1060 l 169 1056 q 183 1051 178 1053 l 196 1047 q 249 1015 232 1028 q 281 972 272 997 l 275 972 q 267 970 269 971 q 258 969 264 969 q 250 968 253 968 l 247 968 q 244 967 246 967 q 225 964 231 964 l 207 964 q 113 985 158 964 l 63 889 l 167 850 q 219 909 194 888 q 290 947 244 931 l 290 918 q 232 797 290 850 l 307 708 l 379 794 q 324 921 324 860 l 324 926 q 326 933 324 931 l 326 939 q 328 942 326 942 l 328 944 q 450 843 414 908 l 551 889 l 496 979 q 480 974 482 976 q 471 970 478 972 q 461 967 464 968 l 444 963 q 438 960 443 961 q 429 958 433 958 q 410 954 417 956 q 393 953 403 953 l 386 953 q 358 960 372 953 q 336 982 344 968 q 394 1033 361 1015 q 468 1065 424 1054 l 460 1174 l 353 1157 l 353 1124 q 351 1117 351 1118 l 351 1103 q 336 1047 351 1088 q 310 999 329 1029 q 307 1004 307 1001 q 300 1014 300 1004 q 297 1018 299 1014 l 281 1047 q 267 1079 271 1068 l 267 1099 q 269 1121 267 1107 q 275 1165 269 1126 l 161 1179 "},"+":{"ha":929,"x_min":135,"x_max":706,"o":"m 447 832 l 374 764 l 374 517 l 189 517 l 135 376 l 161 376 l 183 425 l 374 425 l 374 60 l 471 132 l 471 422 l 643 425 l 706 551 l 678 551 l 654 517 l 471 517 l 471 832 l 447 832 "},",":{"ha":390,"x_min":93,"x_max":293,"o":"m 93 107 q 164 6 164 50 q 147 -46 164 -21 q 93 -99 139 -61 l 110 -122 q 293 114 257 -51 l 194 207 l 93 107 "},"-":{"ha":550,"x_min":229,"x_max":464,"o":"m 229 401 l 229 314 l 464 314 l 464 401 l 229 401 "},"‐":{"ha":550,"x_min":229,"x_max":464,"o":"m 229 401 l 464 401 l 464 314 l 229 314 l 229 401 "},".":{"ha":390,"x_min":92,"x_max":299,"o":"m 194 0 l 299 103 l 194 207 l 92 103 l 194 0 "},"/":{"ha":778,"x_min":35,"x_max":742,"o":"m 124 -46 l 742 943 l 653 943 l 35 -46 l 124 -46 "},":":{"ha":390,"x_min":92,"x_max":299,"o":"m 194 0 l 299 103 l 194 207 l 92 103 l 194 0 m 194 517 l 299 619 l 194 724 l 92 619 l 194 517 "},";":{"ha":390,"x_min":92,"x_max":299,"o":"m 93 107 q 164 6 164 50 q 147 -46 164 -21 q 93 -99 139 -61 l 110 -122 q 293 114 257 -51 l 194 207 l 93 107 m 194 517 l 299 619 l 194 724 l 92 619 l 194 517 "},"<":{"ha":1011,"x_min":35,"x_max":914,"o":"m 244 692 l 244 689 l 238 689 q 231 688 232 688 q 226 686 229 688 q 221 683 224 685 q 215 678 218 681 q 208 672 211 675 q 206 669 206 669 l 172 636 q 142 613 151 621 q 72 576 103 585 l 72 181 q 35 89 72 132 q 229 -6 121 72 l 404 126 q 400 132 401 129 q 397 138 399 135 q 396 142 396 140 l 392 146 q 388 151 389 149 q 385 156 386 154 l 315 103 q 260 133 278 122 q 204 169 225 149 l 204 565 q 328 496 263 517 l 390 589 l 244 692 m 669 931 l 669 928 q 540 842 597 914 l 535 847 q 533 851 535 849 q 531 854 532 854 q 498 881 521 868 q 463 897 475 893 q 457 899 458 897 l 451 899 q 440 903 444 899 l 431 900 q 497 779 481 860 l 497 667 l 419 667 l 419 593 l 492 590 l 492 142 l 449 90 l 557 -4 l 667 90 l 624 142 l 624 492 l 729 578 l 782 529 l 782 68 q 543 -136 736 -72 l 535 -157 q 538 -158 536 -157 l 539 -158 q 542 -160 540 -158 l 543 -160 q 552 -163 550 -162 q 556 -165 554 -164 l 560 -165 q 783 -73 679 -140 q 914 119 888 -6 l 914 547 q 879 628 903 592 q 815 693 857 660 l 626 535 l 626 779 q 647 863 633 831 q 701 931 661 894 l 669 931 "},"=":{"ha":926,"x_min":89,"x_max":838,"o":"m 89 681 l 89 554 l 838 554 l 838 681 l 89 681 m 89 358 l 89 233 l 838 233 l 838 358 l 89 358 "},">":{"ha":1036,"x_min":35,"x_max":989,"o":"m 244 692 l 244 689 l 238 689 q 231 688 232 688 q 226 686 229 688 q 221 683 224 685 q 215 678 218 681 q 208 672 211 675 q 206 669 206 669 l 172 636 q 142 613 151 621 q 72 576 103 585 l 72 181 q 35 89 72 132 q 229 -6 121 72 l 404 126 q 400 132 401 129 q 397 138 399 135 q 396 142 396 140 l 392 146 q 388 151 389 149 q 385 156 386 154 l 315 103 q 260 133 278 122 q 204 169 225 149 l 204 565 q 328 496 263 517 l 390 589 l 244 692 m 665 929 l 665 926 q 597 901 628 924 q 544 853 574 888 l 539 858 q 488 891 510 881 q 433 901 465 901 q 493 767 479 843 l 493 668 l 421 668 l 421 589 l 493 589 l 493 129 q 488 117 490 119 q 485 110 486 115 q 481 103 483 106 q 474 88 478 93 q 464 75 471 82 q 506 58 493 64 q 546 39 532 46 q 622 -6 579 22 l 786 129 q 840 0 796 74 q 853 -3 844 0 q 867 -6 861 -6 l 989 100 l 972 118 l 946 106 l 929 118 l 929 126 q 928 133 928 131 l 928 142 q 926 150 926 149 q 889 296 917 232 q 800 422 858 367 l 932 546 l 811 692 l 800 692 l 631 514 l 631 801 q 697 929 631 879 l 665 929 m 703 318 l 703 315 q 783 167 771 247 l 706 97 l 628 135 l 628 244 l 703 318 m 733 568 l 814 476 l 631 296 l 631 447 l 663 506 l 733 568 "},"?":{"ha":463,"x_min":24,"x_max":407,"o":"m 24 743 l 43 732 q 149 786 93 786 q 204 771 178 786 q 260 675 260 739 q 232 553 260 626 q 175 297 175 393 q 176 256 175 285 l 206 256 q 226 399 206 347 q 307 521 246 450 q 407 724 407 639 q 324 878 407 821 q 149 926 251 926 l 125 926 l 24 743 m 190 0 l 293 103 l 190 207 l 88 103 l 190 0 "},"@":{"ha":929,"x_min":8,"x_max":804,"o":"m 376 988 l 376 985 q 288 956 325 972 q 63 721 135 888 q 8 485 8 597 l 8 443 q 10 432 8 436 l 10 421 q 46 243 10 351 q 126 86 71 167 q 396 -29 233 -29 q 438 -26 410 -29 q 482 -21 474 -22 q 513 -14 503 -17 q 542 -6 532 -8 q 600 14 572 3 q 633 36 622 28 q 747 139 714 99 q 781 224 781 179 l 781 226 q 779 231 779 229 l 779 242 q 778 246 778 244 l 778 253 q 511 38 685 89 q 490 32 497 35 l 469 28 q 464 28 468 28 q 456 26 460 26 q 444 24 451 25 q 419 24 436 24 l 407 24 q 251 74 331 24 q 114 300 160 132 q 94 410 103 343 q 92 438 92 433 l 92 481 q 154 732 92 607 q 336 918 213 849 q 343 922 339 919 q 349 924 347 924 q 363 928 346 924 q 418 940 400 938 q 432 942 426 940 l 444 942 q 590 899 518 942 q 703 786 663 857 q 739 611 735 708 q 740 604 739 606 l 740 561 q 739 554 739 556 q 707 397 738 474 q 622 275 675 317 l 589 258 q 571 269 572 269 q 560 288 563 282 l 560 290 q 558 293 558 292 l 558 297 q 556 306 557 300 q 554 308 554 307 l 557 686 q 561 696 560 693 q 567 703 563 699 q 582 727 574 718 q 594 742 590 736 q 603 751 599 749 q 601 753 601 751 l 600 753 q 597 756 597 753 q 590 763 590 756 q 584 765 586 764 q 580 768 582 767 q 576 769 578 769 q 565 756 569 761 q 558 742 561 746 q 556 735 556 738 l 556 732 q 554 732 554 731 l 390 815 q 388 812 390 814 q 386 808 386 810 l 381 803 q 376 797 376 799 q 374 792 375 794 q 371 789 372 790 q 350 779 357 782 q 307 767 321 771 q 257 757 282 761 q 232 757 246 756 l 301 571 q 286 551 293 563 q 225 474 256 521 q 213 454 217 461 q 206 404 206 419 q 201 378 201 375 l 201 340 q 203 335 201 336 l 203 315 q 204 310 203 311 l 204 304 q 245 230 218 261 q 310 181 272 199 l 460 310 q 519 183 478 232 q 525 181 521 181 l 528 181 q 531 179 529 179 l 533 179 q 536 178 535 178 l 553 178 q 565 182 554 178 q 599 196 593 192 q 628 217 613 201 l 638 226 q 803 540 782 313 l 803 560 q 804 571 803 567 l 804 597 q 803 613 803 601 q 788 718 803 649 q 769 786 776 769 q 651 925 738 869 q 478 989 571 978 l 458 989 q 449 990 450 989 l 432 990 q 424 989 428 989 l 408 989 q 392 986 397 986 q 376 988 381 986 m 315 536 l 453 463 l 453 350 l 347 256 q 278 408 278 325 l 278 419 q 279 439 278 432 q 283 461 282 453 q 315 536 297 504 m 267 732 l 450 665 l 450 519 l 324 589 l 267 732 "},"A":{"ha":929,"x_min":3,"x_max":853,"o":"m 818 961 l 818 958 q 739 924 776 950 q 675 868 711 904 l 669 863 q 665 861 667 860 l 528 929 q 490 938 511 936 q 469 941 476 940 q 451 943 463 942 q 436 946 440 944 l 421 946 q 407 947 411 946 l 371 947 q 364 946 365 946 q 175 890 264 940 q 46 738 86 839 q 43 726 43 731 q 36 703 36 699 q 33 690 33 692 q 28 657 32 683 q 24 622 24 636 q 69 461 24 540 q 181 333 111 386 l 43 129 q 22 81 31 97 q 3 32 8 50 q 14 -1 3 10 q 40 -17 25 -17 l 43 -17 q 46 -15 44 -15 l 50 -15 q 58 -12 53 -14 q 62 -10 60 -11 q 65 -8 64 -8 q 68 -7 67 -7 l 68 -4 q 69 -3 68 -3 l 69 0 q 73 5 72 3 q 75 8 74 7 l 75 11 q 72 28 75 17 q 68 49 69 40 q 67 51 67 50 q 64 60 64 60 l 64 64 q 63 67 63 65 l 63 78 q 65 83 63 81 l 65 88 q 67 90 65 89 l 67 92 q 76 106 69 103 q 93 111 82 108 l 99 111 q 103 113 101 111 l 106 115 l 118 115 l 361 -17 l 576 143 q 649 0 592 65 q 666 -8 660 -4 q 686 -15 672 -12 l 690 -15 q 693 -17 692 -15 l 853 121 l 826 149 l 781 113 q 740 183 750 143 l 740 810 q 778 890 751 856 q 840 961 818 939 l 818 961 m 207 290 l 574 290 l 576 181 l 463 86 l 450 86 l 164 221 l 207 290 m 331 832 l 344 829 q 426 818 382 829 q 503 789 469 807 l 465 740 q 460 742 461 740 l 454 742 q 443 744 451 742 q 440 746 440 744 l 436 746 q 433 747 433 746 l 429 747 q 376 754 381 754 q 349 751 368 754 q 321 743 331 747 q 213 629 213 703 l 213 624 q 214 619 213 621 q 215 608 214 613 q 218 600 217 604 q 321 663 251 663 l 329 663 q 340 661 336 661 q 353 658 343 661 q 365 655 363 656 q 377 651 367 654 q 386 647 388 647 q 396 643 390 643 l 201 361 q 78 543 93 438 l 78 547 q 76 551 76 550 l 76 557 q 75 561 75 560 q 72 569 72 569 l 72 579 q 149 752 72 683 q 331 832 226 821 m 533 761 l 542 761 l 563 711 l 574 404 l 288 404 l 533 761 "},"B":{"ha":1078,"x_min":-6,"x_max":964,"o":"m 215 969 l 215 967 l 207 967 q 203 968 204 967 l 188 968 q 183 969 185 968 l 181 969 q 122 958 151 969 q 67 933 92 947 q 51 917 57 924 q 48 912 51 915 q 43 906 44 908 q 39 901 42 904 q 33 894 36 897 q 18 874 21 879 q 6 851 10 858 q 1 840 1 839 q 0 836 0 838 q -1 832 0 835 q -1 828 -1 831 q -6 807 -6 821 q 1 783 -6 804 q 3 782 1 782 l 3 781 q 6 778 3 778 q 10 786 8 785 q 17 804 14 800 q 24 813 19 808 q 64 846 40 832 q 110 856 90 856 q 144 851 128 856 q 182 842 157 850 q 186 842 185 842 q 190 840 189 840 q 199 837 192 839 q 206 834 206 835 q 214 831 207 833 q 225 829 221 829 l 232 829 q 239 828 236 828 l 244 828 q 251 826 249 826 l 264 826 q 290 828 281 826 q 318 832 308 831 q 344 840 335 839 q 371 853 365 847 l 256 761 q 197 636 207 697 q 190 590 192 606 l 190 586 q 189 582 189 583 l 189 574 q 176 572 185 574 q 161 569 167 571 q 147 567 150 567 q 132 563 136 564 q 3 433 3 521 l 6 425 q 11 427 8 425 q 16 430 14 429 q 22 433 18 431 q 27 435 25 435 q 31 436 29 435 q 33 438 32 438 q 42 442 40 440 q 118 465 81 461 q 136 463 122 465 q 146 460 144 460 q 157 456 154 457 q 206 420 182 446 q 229 371 229 394 l 229 368 q 228 365 228 367 l 228 360 q 226 356 228 358 q 225 353 225 354 l 225 350 q 224 350 224 349 l 215 347 l 201 347 q 197 346 199 346 q 124 321 157 344 q 72 267 90 303 l 72 264 q 71 261 71 263 l 71 253 q 69 250 69 251 l 69 239 q 71 236 69 236 l 71 226 q 72 224 71 224 l 78 218 q 118 243 104 236 q 161 253 144 253 l 164 253 q 167 251 165 251 l 178 251 q 183 250 182 250 l 189 250 q 208 238 204 243 q 213 229 211 232 q 217 224 215 226 q 218 218 218 221 q 219 214 218 215 l 219 210 q 221 206 219 207 l 221 196 q 219 188 219 190 q 217 178 219 185 q 209 154 213 164 q 200 136 206 144 q 198 132 200 135 q 193 126 196 129 q 189 118 190 122 q 161 86 176 101 l 126 51 q 97 19 107 31 q 71 -11 74 -7 q 46 -86 46 -43 l 46 -89 q 47 -92 46 -90 l 47 -97 q 49 -100 47 -99 l 49 -106 q 58 -135 49 -124 q 82 -153 67 -146 q 85 -154 83 -153 l 88 -154 q 92 -156 90 -154 l 97 -156 q 102 -154 99 -154 q 108 -151 106 -154 q 129 -126 124 -146 q 119 -103 124 -111 q 118 -99 119 -101 q 115 -93 117 -96 q 114 -89 114 -90 q 106 -51 106 -47 q 111 -31 106 -40 q 120 -13 118 -15 q 125 -7 122 -11 q 129 0 128 -3 q 271 44 197 40 q 281 46 278 44 l 336 46 q 346 44 338 44 q 383 42 354 44 q 419 40 407 39 l 594 -17 q 711 51 654 21 q 835 110 793 92 l 964 140 l 964 419 q 810 553 949 526 q 789 556 803 553 q 779 557 781 556 l 769 557 q 773 560 771 558 q 775 561 775 561 l 781 567 q 882 676 856 642 q 929 813 929 739 l 929 819 q 928 828 928 826 l 928 846 q 925 863 925 857 q 925 867 925 865 q 923 871 924 869 q 921 878 922 872 q 794 965 865 953 q 790 967 792 965 l 775 967 q 771 965 772 965 l 763 965 q 758 964 760 964 l 751 964 q 741 961 749 964 q 730 957 733 958 q 719 953 726 956 q 708 950 711 951 q 697 945 704 949 q 685 940 689 942 q 663 931 671 933 q 422 678 422 825 l 422 328 q 368 206 413 257 q 264 118 324 156 q 269 126 265 122 l 274 131 q 276 135 274 132 q 321 197 318 192 q 353 267 340 225 q 354 276 353 272 l 354 286 q 356 297 354 293 l 356 307 q 360 368 356 306 q 369 510 367 463 q 371 551 371 550 l 371 607 q 369 622 369 611 l 369 656 q 367 686 367 675 l 367 718 q 370 728 369 725 q 373 735 371 732 q 376 740 375 738 q 378 744 378 743 q 386 771 378 742 q 390 782 389 778 q 393 789 390 786 q 444 857 408 824 q 513 908 463 872 q 523 917 519 915 q 530 920 526 919 q 538 926 533 921 q 549 932 543 931 q 559 941 556 939 q 566 946 563 943 q 572 950 569 949 q 577 955 574 951 q 582 958 581 958 q 532 953 556 958 q 507 949 514 949 q 482 943 492 946 l 469 939 q 456 936 461 936 q 431 932 435 932 q 417 928 422 929 q 405 927 413 928 q 379 926 397 926 l 375 926 q 372 928 372 926 l 365 928 q 361 932 363 928 l 215 969 m 726 238 l 726 235 q 765 229 747 235 q 785 225 779 225 q 804 221 801 221 l 804 132 l 726 97 l 651 124 l 651 221 q 688 231 668 226 q 726 238 714 236 m 671 889 l 671 886 q 689 882 681 885 q 739 842 722 858 l 751 825 q 764 813 760 817 q 773 793 771 803 q 776 781 775 783 q 778 773 776 779 q 782 758 779 767 q 783 751 782 756 q 783 744 783 746 q 786 721 786 731 q 746 601 786 657 q 651 517 703 542 l 651 663 l 619 663 l 619 146 l 603 146 q 589 149 597 146 l 578 149 q 572 150 574 149 l 568 150 q 542 151 558 150 q 515 154 521 154 q 490 156 500 156 l 453 156 q 440 154 449 154 l 417 154 q 392 151 403 151 l 379 151 q 367 150 375 150 q 503 240 442 186 q 565 382 565 293 l 565 775 q 570 794 565 782 q 576 808 575 806 q 615 861 589 835 q 671 889 635 881 m 651 264 l 651 364 q 672 360 663 361 q 690 358 682 358 l 719 354 q 749 353 729 353 l 763 353 q 769 354 765 353 l 776 354 q 783 356 779 354 l 790 356 q 804 361 797 356 l 804 261 q 799 263 800 261 l 793 263 q 781 264 789 263 q 753 268 772 265 q 739 269 743 268 l 726 269 q 689 267 714 269 q 651 264 664 264 m 729 522 l 729 519 q 778 488 761 514 q 797 431 797 457 l 797 401 q 781 393 789 400 q 744 383 742 383 q 729 382 739 382 q 690 389 718 382 q 667 396 688 389 q 659 398 663 397 q 654 399 656 399 q 651 404 653 400 l 651 465 l 729 522 "},"C":{"ha":878,"x_min":0,"x_max":826,"o":"m 511 944 q 786 858 639 858 l 789 858 q 792 860 790 858 l 797 860 l 799 861 l 800 861 l 671 729 l 476 794 l 476 115 q 489 110 482 110 l 496 110 q 504 108 499 108 l 511 108 q 518 107 513 107 l 531 107 q 826 239 674 107 l 815 194 q 503 -17 696 1 l 336 -11 q 89 142 182 17 q 0 422 0 260 l 0 428 q 1 432 0 431 l 1 443 q 3 447 1 446 l 3 450 l 43 603 q 288 850 132 779 l 307 853 q 300 843 306 849 q 290 836 294 838 q 246 792 268 817 q 200 740 224 768 q 140 625 157 689 q 138 611 138 611 l 138 604 q 136 597 136 601 q 133 585 133 583 l 133 579 q 132 572 132 576 q 128 558 129 564 q 128 540 128 553 q 126 525 126 532 q 126 511 126 518 q 147 379 126 443 q 213 261 165 324 q 216 265 214 263 q 218 268 218 268 q 226 288 218 263 q 229 299 226 288 l 229 700 l 511 944 m 436 813 l 382 767 l 382 463 q 353 365 382 408 q 288 283 335 336 q 282 277 285 281 q 275 268 279 274 l 261 254 q 238 229 251 247 q 283 188 257 210 q 343 143 308 167 q 439 115 392 115 l 436 813 "},"D":{"ha":1169,"x_min":19,"x_max":1044,"o":"m 54 967 l 54 960 q 52 956 53 957 q 51 949 51 954 q 50 943 50 944 l 50 940 l 49 939 q 46 924 46 928 l 46 899 q 88 800 51 849 q 181 749 133 749 l 436 746 q 226 428 231 636 l 189 425 l 181 425 q 69 393 115 425 q 19 293 19 356 l 22 296 q 26 300 25 299 q 54 319 46 313 q 86 339 75 332 l 103 336 q 152 317 131 336 q 186 268 174 297 q 188 265 186 265 q 192 256 189 258 l 192 250 q 194 244 192 247 l 194 239 q 196 226 194 233 q 199 218 197 219 l 199 213 q 168 121 199 167 q 106 44 157 103 q 82 19 90 28 q 60 -3 60 -3 l 78 -3 q 126 26 93 4 l 178 61 q 322 184 258 115 q 396 347 385 253 q 392 386 393 367 q 392 428 392 406 q 390 447 390 433 l 390 468 q 392 515 390 489 l 393 540 q 394 564 394 565 l 394 572 q 396 581 394 579 q 397 610 396 596 q 399 624 397 619 l 399 638 q 479 746 414 701 q 485 747 482 746 q 489 750 488 749 l 493 750 l 494 751 l 496 751 q 500 754 499 751 l 508 751 q 485 665 496 715 q 475 621 478 635 q 467 529 469 560 q 465 485 465 507 l 465 461 q 467 449 465 457 q 467 436 467 442 q 471 389 467 435 q 472 365 471 375 q 474 353 472 356 l 474 342 q 438 232 468 279 q 358 149 403 178 l 72 -37 l 72 -39 l 71 -39 q 69 -42 69 -40 q 68 -45 69 -43 q 65 -47 67 -47 q 63 -51 64 -47 q 60 -62 60 -60 l 69 -62 q 71 -61 71 -61 l 79 -61 q 82 -60 81 -60 l 86 -60 q 281 21 179 -6 q 347 35 324 32 q 417 42 393 40 q 428 43 425 42 l 463 43 q 551 38 507 43 q 640 25 582 38 q 699 13 679 17 q 813 -17 794 -11 q 1042 129 932 88 q 1043 163 1042 140 q 1044 197 1044 186 l 1044 290 q 1043 314 1043 297 l 1043 361 q 1039 433 1043 363 q 1033 503 1036 492 q 1025 547 1029 532 q 1021 568 1021 563 q 1015 590 1018 583 q 972 719 999 658 q 890 835 943 788 q 765 896 833 886 q 617 910 668 906 l 149 890 q 54 967 85 903 m 738 313 l 746 310 l 753 310 q 760 308 757 308 l 767 308 q 774 307 771 307 q 828 290 803 306 q 878 261 863 272 l 882 240 q 885 218 882 232 l 885 196 q 886 185 885 189 l 886 140 q 885 133 885 136 l 885 128 q 883 121 883 122 q 817 139 839 133 q 611 178 732 160 l 611 258 q 650 285 635 279 q 717 307 693 303 q 738 313 735 311 m 579 754 l 579 181 q 567 182 571 181 l 554 182 q 529 185 549 182 l 506 185 q 485 189 490 185 l 453 186 q 508 325 497 260 l 508 336 q 507 346 507 342 q 504 369 506 356 q 501 392 503 382 q 500 433 500 401 l 500 454 q 501 506 500 469 q 503 533 501 514 q 506 561 506 551 l 506 575 q 510 615 506 586 q 511 629 510 624 l 511 642 q 512 654 511 650 q 514 663 513 658 q 514 668 514 667 q 525 710 522 697 q 529 721 526 714 q 532 731 532 728 q 542 751 539 744 l 579 754 m 872 479 l 881 301 q 872 306 878 304 q 864 310 867 308 q 847 317 853 314 q 814 328 825 326 q 779 333 790 333 q 746 336 757 336 q 729 336 740 336 q 714 335 718 335 q 681 328 693 332 q 614 304 657 322 l 614 474 q 743 433 681 433 q 808 444 775 433 q 817 448 811 446 q 825 450 822 450 q 840 460 831 456 q 857 467 849 465 q 864 472 858 468 q 872 479 869 476 m 611 749 l 635 746 l 643 746 q 651 744 650 744 l 671 744 q 688 742 682 742 l 697 742 q 706 740 703 740 q 722 735 719 738 q 734 731 731 732 q 740 728 738 729 q 817 665 779 708 q 864 574 854 621 q 865 568 864 569 l 865 561 q 867 556 865 557 l 867 539 q 865 536 865 538 l 865 529 q 864 522 864 524 q 861 511 861 514 q 814 481 831 490 q 764 465 797 472 l 761 465 q 757 464 758 464 l 749 464 q 743 463 746 463 l 718 463 q 697 467 715 463 q 642 488 661 475 q 611 533 618 500 l 611 749 "},"E":{"ha":929,"x_min":3,"x_max":826,"o":"m 514 950 l 229 694 q 231 688 229 689 l 231 679 q 232 672 231 674 l 232 664 q 235 633 232 653 q 238 603 235 622 q 240 556 238 600 q 242 533 242 533 l 242 485 q 240 458 240 467 q 226 301 232 353 l 213 267 l 213 268 l 211 268 l 211 269 q 209 271 210 271 q 208 272 208 271 l 207 272 l 207 275 q 129 514 129 378 l 129 515 q 128 517 128 517 l 128 521 q 126 522 126 522 l 126 525 q 328 867 126 693 l 301 864 q 47 614 147 814 q 38 593 40 600 q 29 574 35 582 q 3 407 3 463 q 32 247 3 324 q 188 56 78 128 q 429 -17 299 -17 l 456 -17 q 469 -15 460 -15 l 485 -15 q 501 -12 489 -14 q 519 -11 513 -11 l 540 -7 q 583 2 569 -3 q 607 8 597 7 q 635 21 625 15 q 760 107 707 56 q 826 235 818 163 q 690 144 768 181 q 533 107 613 107 l 513 107 q 492 111 513 107 l 483 111 q 480 112 481 111 q 476 115 479 113 l 476 517 l 708 517 l 778 660 l 628 660 l 826 872 l 821 872 q 814 871 815 871 l 807 871 q 800 869 801 869 q 785 867 789 867 l 772 867 q 514 950 636 867 m 439 813 l 439 113 q 238 232 325 140 l 243 238 q 247 243 243 239 l 258 254 q 374 399 310 306 l 385 447 l 385 764 l 439 813 m 476 792 l 649 726 l 476 546 l 476 792 "},"F":{"ha":950,"x_min":-158,"x_max":988,"o":"m 663 950 l 826 907 q 829 903 826 903 l 836 903 q 838 901 836 901 l 840 901 q 869 903 861 901 q 894 908 878 906 q 916 913 903 910 q 943 922 929 917 q 969 931 957 926 q 988 939 981 935 q 935 821 988 871 q 814 757 881 771 l 807 757 q 799 755 803 756 q 789 754 796 754 q 780 755 786 754 q 764 757 774 756 q 740 761 758 757 q 685 776 708 768 q 643 792 661 785 l 640 660 l 853 660 l 804 522 l 632 522 l 632 135 q 490 -36 608 53 q 476 -44 482 -43 l 471 -50 q 468 -52 469 -51 q 465 -54 467 -53 q 319 -108 383 -86 q 208 -143 256 -131 q 167 -156 189 -150 q 121 -167 144 -161 l 100 -167 q -46 -124 50 -167 l -47 -124 q -49 -122 -47 -122 l -53 -122 q -54 -121 -53 -121 l -57 -121 q -150 -199 -126 -121 l -154 -186 q -157 -172 -154 -183 l -157 -158 q -158 -151 -157 -154 l -158 -146 q -108 -43 -158 -87 q -1 4 -58 -1 l 0 6 l 17 6 q 21 4 18 4 l 32 4 l 36 4 q 40 2 39 3 q 47 1 42 1 l 54 1 q 60 0 56 0 q 93 -11 75 -3 q 133 -31 111 -19 q 168 -57 153 -44 q 194 -83 183 -69 l 204 -83 q 219 -79 204 -85 l 232 -75 q 267 -31 256 -57 l 278 -4 q 281 6 279 0 q 285 21 282 13 l 285 519 l 113 519 q 93 508 104 514 q 68 493 82 501 q 31 465 51 483 q 22 459 26 464 q 15 454 17 454 l 11 450 l 11 456 q 10 457 10 456 l 10 464 q 8 467 8 464 l 8 482 q 43 561 14 524 q 78 599 61 583 q 111 625 94 615 q 126 634 115 628 q 161 651 138 640 l 285 654 l 285 789 l 419 810 q 452 815 435 811 q 492 829 469 819 q 560 867 539 849 l 663 950 m 496 772 l 428 751 l 428 149 q 424 136 425 138 q 422 129 422 135 q 367 8 399 54 q 275 -83 326 -53 q 431 26 372 -49 q 496 207 496 111 l 496 772 "},"G":{"ha":1021,"x_min":8,"x_max":915,"o":"m 503 942 l 503 939 q 322 810 413 881 q 156 663 251 754 q 10 372 26 539 l 10 364 q 8 354 8 360 l 8 315 q 11 294 8 313 q 32 203 21 235 q 186 17 81 69 q 253 -6 211 4 q 354 -22 324 -22 q 369 -24 364 -22 l 400 -24 q 446 -19 429 -19 q 725 87 596 -3 q 904 310 854 176 q 911 347 904 313 q 913 360 911 354 q 915 382 913 374 l 915 393 q 845 587 915 497 q 663 694 775 676 l 875 864 l 868 864 q 861 863 867 863 l 838 863 q 829 861 836 861 l 815 861 q 774 863 788 861 q 732 867 747 865 q 565 907 646 878 q 561 910 564 907 q 543 924 549 922 q 540 927 543 925 q 536 929 538 929 q 528 933 540 929 q 523 936 526 935 q 517 938 519 938 q 506 942 510 938 l 503 942 m 460 500 l 460 26 q 247 156 322 46 q 281 185 258 165 q 314 213 303 204 q 372 275 361 260 q 390 313 383 290 q 399 360 397 336 q 400 371 399 368 l 400 382 q 401 393 400 389 l 401 425 q 400 432 400 429 l 400 449 q 399 457 399 454 l 399 474 l 460 500 m 600 210 l 628 207 l 636 207 q 644 206 643 206 l 654 206 q 664 204 656 204 q 754 172 703 200 l 754 163 q 753 151 753 158 q 746 135 753 144 q 723 115 733 122 q 710 106 713 107 q 697 96 699 97 q 603 44 657 65 q 496 29 550 24 l 496 164 q 600 210 564 199 m 242 681 l 242 229 l 224 196 q 176 290 190 247 q 154 390 161 333 l 154 400 q 153 408 153 406 l 153 428 q 157 474 153 446 q 163 521 161 510 q 172 554 165 532 q 183 592 178 569 l 242 681 m 800 344 l 800 299 q 799 289 799 294 l 799 281 q 797 270 797 276 q 792 251 796 264 q 788 231 789 238 q 769 196 776 206 q 725 211 750 204 q 677 222 685 222 q 650 225 669 222 q 636 226 640 225 l 607 226 q 590 225 601 225 l 560 221 q 526 213 543 218 q 511 208 510 208 q 496 204 494 204 l 496 331 q 509 324 506 326 q 515 321 513 321 q 521 319 518 321 q 524 317 524 318 q 579 299 574 300 q 594 297 585 299 q 607 293 603 294 q 635 290 626 290 q 800 344 713 290 m 546 536 l 565 533 l 578 533 q 590 532 582 532 q 615 529 610 529 q 728 483 675 519 q 792 385 782 446 q 672 329 751 344 l 665 329 q 658 328 660 328 l 626 328 q 607 332 625 328 q 549 349 579 339 q 496 385 513 368 l 496 517 q 519 528 513 526 l 532 532 q 546 536 540 532 m 396 813 l 643 714 l 396 525 l 396 813 "},"H":{"ha":1078,"x_min":-3,"x_max":969,"o":"m 221 958 l 194 956 l 178 956 q 174 954 175 954 q 53 906 108 949 q -3 794 4 868 l 0 789 l 3 789 q 6 790 4 789 q 10 793 8 792 l 11 793 q 14 797 13 793 l 51 844 q 61 847 53 844 q 67 849 65 847 l 72 849 q 76 850 75 849 l 93 850 q 110 847 104 847 q 114 847 111 847 q 117 846 115 846 l 138 842 q 147 839 144 839 q 157 835 156 836 l 160 835 q 161 833 161 833 l 164 833 q 167 832 165 832 q 187 828 174 831 q 206 822 200 825 q 244 818 243 818 l 264 818 q 285 822 264 818 q 324 832 275 822 q 186 579 186 710 l 186 576 q 188 575 186 575 l 188 568 q 189 567 188 567 l 189 568 l 175 565 l 167 565 q 158 564 165 564 l 151 564 q 143 563 147 563 q 53 522 92 554 q 8 439 8 486 q 24 447 17 444 q 34 451 32 450 q 44 454 36 451 q 54 457 46 454 q 58 458 56 457 q 63 458 61 458 q 72 460 64 458 q 81 465 79 461 l 92 463 l 100 463 q 110 460 103 461 q 121 459 117 460 q 128 456 125 458 q 185 421 158 446 q 215 364 215 392 l 215 344 q 125 303 164 342 q 86 213 86 264 l 86 208 q 88 207 86 207 l 88 200 q 89 199 88 199 l 92 192 q 128 206 107 192 q 160 233 150 221 q 164 240 163 236 q 167 247 165 244 l 204 229 q 206 219 204 225 q 208 211 207 213 l 208 204 q 210 201 208 201 l 210 192 q 192 135 210 165 l 69 -14 q 67 -18 67 -17 q 65 -22 67 -19 q 62 -25 64 -24 q 60 -29 60 -26 q 58 -35 60 -32 q 56 -39 57 -37 q 54 -43 56 -40 q 52 -47 53 -46 q 50 -52 51 -49 q 47 -56 49 -56 q 44 -65 44 -64 q 40 -75 43 -67 q 38 -85 38 -83 q 36 -93 36 -90 q 35 -110 35 -101 l 35 -114 q 43 -141 35 -126 q 75 -158 51 -156 q 96 -151 89 -156 q 115 -137 108 -143 l 115 -112 q 107 -62 115 -87 q 97 -37 101 -46 q 164 23 115 3 q 260 44 213 43 q 268 46 264 44 l 310 46 q 368 42 314 46 q 417 38 422 38 l 579 -17 l 711 175 l 692 192 q 683 181 686 183 q 675 174 679 178 q 668 168 671 171 l 664 164 q 660 161 661 161 q 626 149 639 153 q 590 142 603 144 l 582 142 q 574 140 581 140 l 532 140 q 507 143 526 140 q 485 146 499 143 q 464 149 478 146 l 419 153 q 376 158 386 156 l 457 221 q 644 301 538 283 q 654 303 650 301 l 663 303 q 672 304 668 303 l 693 304 q 704 303 697 303 q 720 301 711 303 q 733 299 729 300 l 750 294 q 765 289 760 292 q 782 282 776 286 q 797 275 793 278 q 790 215 797 264 q 754 129 776 158 l 646 -17 q 629 -46 629 -46 q 617 -79 621 -68 q 613 -96 613 -96 q 611 -112 611 -101 l 611 -118 q 613 -124 611 -122 q 633 -170 615 -151 q 689 -192 650 -189 l 689 -189 l 694 -189 q 700 -187 699 -187 q 713 -182 711 -185 q 735 -169 729 -175 q 748 -153 747 -157 q 750 -150 749 -150 l 750 -147 q 751 -146 750 -146 l 751 -140 q 750 -137 750 -139 l 750 -135 q 749 -133 749 -133 q 747 -130 749 -132 q 744 -126 746 -128 l 742 -124 q 738 -121 739 -121 l 731 -121 q 722 -119 726 -119 l 714 -119 q 707 -118 710 -118 q 690 -115 696 -115 l 675 -115 q 669 -109 669 -110 q 665 -103 668 -108 q 663 -94 663 -99 l 663 -85 q 664 -79 663 -82 q 667 -76 665 -76 l 667 -74 q 668 -72 667 -72 l 668 -69 q 669 -65 668 -67 q 674 -64 671 -64 q 700 -43 686 -46 l 899 126 q 951 229 936 172 q 969 347 969 297 l 969 389 q 968 401 968 393 l 968 429 q 968 438 968 432 q 966 447 967 443 q 965 461 965 450 l 965 478 q 964 493 964 488 q 911 651 958 578 q 794 772 867 721 l 560 582 l 560 743 q 614 864 568 815 q 726 944 654 906 l 726 953 q 629 931 683 949 q 422 740 447 868 q 414 651 414 697 q 413 606 414 636 q 411 561 411 576 l 411 451 q 399 282 411 365 q 260 104 368 197 q 254 100 256 100 l 249 94 q 238 86 244 93 q 242 94 239 90 q 247 102 244 99 q 252 108 250 106 q 255 111 254 110 q 258 115 256 113 q 260 118 260 118 q 350 301 336 221 l 350 678 q 404 836 350 769 q 539 942 458 903 l 542 947 q 503 943 515 947 q 483 939 482 939 q 464 933 471 936 l 463 933 q 460 932 461 932 l 454 932 q 433 925 440 928 q 367 918 382 914 l 221 958 m 557 315 l 557 468 q 588 458 578 461 q 619 451 608 454 q 681 444 672 444 q 711 446 701 444 q 774 460 753 454 q 804 471 794 467 l 807 307 l 790 311 q 772 314 781 311 q 700 326 724 324 q 682 328 688 326 l 651 328 q 636 326 646 326 q 606 322 614 324 l 581 318 q 557 315 560 315 m 692 649 l 694 646 q 708 642 699 646 q 721 638 718 639 q 797 500 794 553 q 756 481 775 488 q 737 475 742 476 q 724 472 732 474 q 713 471 717 471 q 708 471 711 471 q 703 469 706 469 q 694 468 700 468 l 667 468 q 645 469 651 468 q 631 474 639 471 q 594 485 613 479 q 563 503 575 490 l 557 531 l 692 649 "},"I":{"ha":779,"x_min":17,"x_max":714,"o":"m 207 944 l 207 942 q 113 883 151 932 q 72 778 75 835 q 109 825 89 808 q 161 850 129 842 q 181 847 172 847 q 203 844 194 844 q 226 842 211 844 q 249 838 242 839 q 293 835 279 835 q 332 838 307 835 q 374 849 361 846 q 392 856 386 853 q 404 862 397 858 q 414 867 411 865 q 285 571 285 738 q 167 540 217 571 q 97 444 111 507 q 111 449 103 447 q 124 453 119 451 q 149 460 140 457 q 199 471 182 467 l 210 468 q 325 326 303 468 q 326 313 325 317 l 326 299 q 328 285 326 289 l 328 267 q 326 261 326 264 l 326 242 q 324 226 324 231 l 324 213 q 319 199 321 203 q 309 188 317 196 q 299 178 301 181 q 294 175 297 176 q 290 172 292 174 q 281 168 282 169 q 278 167 279 167 q 275 169 275 167 l 194 167 q 183 165 190 167 q 167 160 176 164 q 156 157 158 157 q 142 151 146 154 q 57 96 97 135 q 17 11 17 57 q 19 -1 17 3 q 22 -10 21 -4 l 22 -11 q 24 -17 22 -14 q 26 -21 25 -19 l 26 -24 q 63 19 38 0 q 138 49 99 49 l 140 49 q 144 47 143 47 l 156 47 q 160 46 158 46 l 164 46 l 167 49 l 367 -14 l 375 -14 q 385 -15 381 -14 l 397 -15 q 403 -17 401 -15 l 418 -17 q 428 -15 419 -15 l 439 -15 q 452 -12 443 -14 q 467 -11 461 -11 l 483 -7 q 499 -4 494 -4 q 624 94 589 18 q 668 246 660 169 q 669 261 668 256 l 669 276 q 671 292 669 286 l 671 332 q 669 336 669 335 l 669 357 q 668 367 668 358 l 619 735 l 619 739 q 618 743 618 742 q 616 752 617 750 q 615 756 615 754 l 615 758 q 614 761 614 760 q 611 774 611 769 l 611 786 q 613 804 611 797 q 617 825 615 818 l 617 831 q 621 842 619 838 q 622 850 622 847 l 622 854 q 624 860 622 858 q 625 864 625 863 q 647 898 633 888 q 681 919 660 908 q 686 922 683 921 q 692 924 689 924 q 699 926 696 924 q 703 929 701 928 q 708 933 706 931 q 714 936 711 935 l 711 944 l 692 942 q 563 885 617 942 q 490 761 510 829 l 482 608 l 536 156 l 536 131 q 535 122 535 126 l 535 114 q 533 107 533 110 q 531 94 531 99 l 526 82 q 522 69 522 69 q 520 65 522 68 q 517 61 518 63 q 513 57 517 60 q 508 53 510 54 q 504 51 507 53 q 500 48 501 49 q 495 46 499 47 q 490 43 492 44 q 481 40 482 40 q 468 38 469 38 l 449 38 q 444 39 447 38 q 439 39 442 39 q 422 43 436 39 q 368 69 394 51 q 322 106 358 76 l 306 122 q 297 131 301 129 l 290 138 l 307 138 q 315 138 313 138 q 321 140 318 139 q 325 140 324 140 q 347 147 332 142 q 368 153 361 151 q 410 169 392 161 q 440 210 432 189 q 457 261 456 235 q 458 268 457 264 l 458 274 q 460 281 458 279 l 460 307 l 453 331 q 429 506 435 447 q 422 606 422 569 l 422 661 q 425 688 422 668 l 425 699 q 426 704 425 703 l 426 710 q 428 718 426 714 l 428 740 q 536 942 442 838 q 519 939 525 939 q 503 936 508 936 l 501 935 l 500 935 q 464 929 476 932 q 428 929 436 926 l 414 926 q 369 928 385 926 q 349 932 363 929 q 326 935 335 935 l 282 939 q 238 944 246 942 l 207 944 "},"J":{"ha":779,"x_min":-62,"x_max":778,"o":"m 229 947 l 229 944 q 69 881 143 940 q 32 839 42 853 q 10 789 17 817 q 10 786 10 788 q 8 781 8 783 q 6 773 7 778 q 6 758 6 768 l 6 751 q 7 747 6 750 q 7 743 7 746 q 8 736 7 738 q 10 732 8 735 q 10 728 10 731 q 26 690 17 706 q 54 657 35 674 l 56 657 q 57 656 57 656 l 61 656 q 64 654 63 654 l 67 654 q 79 650 79 650 q 82 650 81 650 q 85 649 83 649 l 89 649 q 139 666 119 649 q 158 708 158 683 l 158 714 q 157 721 157 718 q 151 735 153 732 q 149 740 149 738 q 147 746 149 743 q 143 751 146 749 q 140 756 140 753 l 135 761 q 126 764 131 763 q 117 766 122 765 q 111 768 113 767 l 104 768 q 97 769 99 768 l 92 769 q 71 767 86 769 q 51 761 56 764 l 51 763 q 50 764 50 764 l 50 768 q 49 769 49 769 l 49 779 q 51 788 49 785 l 51 790 q 53 794 51 793 l 53 797 q 54 801 53 800 l 54 804 q 90 826 69 819 q 129 838 110 832 l 149 838 l 324 781 l 393 775 l 554 824 q 546 819 550 819 q 540 815 542 815 q 535 812 538 814 q 531 809 532 810 q 527 807 529 808 q 522 804 525 806 q 514 799 519 803 q 507 794 508 796 q 503 791 506 793 q 499 788 500 789 q 495 786 497 788 q 490 783 493 785 q 378 672 415 729 q 321 525 336 608 q 271 536 288 532 q 258 538 263 536 l 247 538 q 236 539 240 538 l 213 539 q 208 538 210 538 q 115 493 144 533 q 147 489 136 493 q 250 444 200 482 q 304 353 304 401 l 304 333 q 297 335 299 333 q 292 338 294 336 q 286 338 289 338 q 278 339 281 338 q 274 342 276 340 q 268 342 271 342 q 236 347 247 347 q 207 350 215 350 q 100 307 143 350 q 342 156 251 307 q 344 148 343 151 q 345 143 344 144 q 347 140 346 142 q 347 138 347 139 q 349 128 347 135 q 351 116 350 122 q 354 103 353 110 q 357 88 356 96 q 360 79 358 81 l 360 69 q 361 60 360 64 l 361 51 q 290 -37 361 -33 q 267 -31 275 -33 q 242 -25 250 -26 q 193 -15 208 -18 q 94 -3 128 -8 q -10 -69 25 -18 q -62 -186 -46 -119 l -43 -192 l -40 -189 l -40 -186 l -37 -183 q -35 -180 -37 -182 q -32 -176 -33 -178 q -31 -172 -31 -174 q -28 -168 -31 -171 q -26 -164 -26 -165 q -23 -160 -25 -162 q -18 -154 -21 -158 q -7 -142 -15 -150 l 0 -135 q 14 -126 8 -131 q 32 -124 25 -124 l 199 -172 l 213 -172 q 486 -50 364 -172 q 640 224 608 72 q 646 261 646 249 q 649 301 649 286 l 649 665 q 775 910 669 815 l 775 915 q 776 918 775 917 l 776 922 q 778 925 776 924 l 778 944 l 757 942 q 737 935 746 940 q 726 931 728 931 q 721 929 724 931 q 715 926 718 928 q 694 918 706 925 q 685 915 692 918 q 674 911 678 913 q 660 906 669 910 q 646 900 651 903 q 617 893 626 896 q 557 886 568 886 l 550 886 q 544 889 547 886 l 536 889 q 531 893 532 889 l 288 942 l 278 942 q 274 943 275 942 l 254 943 q 244 947 249 943 l 229 947 m 668 864 l 668 861 q 572 746 610 807 q 517 611 535 685 l 500 86 q 435 -37 492 15 q 310 -97 379 -90 q 419 0 364 -65 q 424 8 422 3 q 426 18 424 10 q 429 24 428 21 q 431 30 431 28 q 433 40 431 32 l 438 61 q 442 86 440 72 l 457 594 q 531 753 481 686 q 668 864 576 813 "},"K":{"ha":1022,"x_min":6,"x_max":982,"o":"m 485 950 q 422 774 444 871 q 406 682 415 750 q 400 639 403 663 q 396 589 397 615 q 394 557 394 567 q 393 550 393 547 l 393 514 q 393 493 393 503 q 394 472 393 483 q 394 464 394 469 q 396 451 394 458 q 397 440 396 446 l 397 429 q 399 425 397 426 l 399 413 q 400 384 399 401 q 404 344 401 367 q 381 268 404 318 q 378 263 378 265 q 372 254 374 258 q 367 247 369 250 q 316 201 347 229 q 240 136 285 174 q 197 97 211 111 q 172 76 189 90 q 147 56 158 67 q 124 35 135 46 q 144 47 132 39 q 168 62 156 54 q 193 76 181 69 q 214 88 206 83 q 231 96 222 93 q 240 101 233 99 q 249 106 246 103 q 350 163 293 125 q 433 250 397 193 q 436 261 435 254 q 442 281 438 268 q 448 297 447 294 q 451 311 449 300 q 454 323 451 314 q 460 347 457 332 l 460 697 q 465 713 463 704 q 471 736 468 722 q 483 778 475 750 q 489 797 485 786 q 497 821 493 808 q 506 844 501 833 q 513 863 510 856 l 529 904 q 546 944 540 935 l 579 947 l 531 850 q 520 817 526 836 q 507 769 514 797 q 490 694 496 729 l 490 619 q 718 818 583 683 l 729 821 l 872 651 l 638 465 q 849 243 758 401 l 869 206 q 889 169 879 181 l 921 126 l 958 158 l 982 140 l 847 -17 l 835 -17 q 718 153 765 53 l 563 -17 q 482 8 513 1 q 465 14 475 11 q 440 19 454 17 q 408 26 426 24 q 376 29 389 29 q 345 33 367 31 q 313 35 324 35 l 300 35 q 286 33 296 33 l 274 33 q 260 32 269 32 q 248 30 253 31 q 240 29 243 29 q 224 26 226 26 l 78 -17 l 51 -17 q 46 -4 46 -11 l 46 0 l 175 156 q 188 179 182 163 q 193 192 190 185 q 199 211 196 200 q 200 218 199 214 l 200 225 q 201 232 200 228 l 201 243 q 200 247 200 244 l 200 258 q 189 286 199 269 q 169 310 179 303 q 165 312 167 310 q 154 317 164 314 l 144 317 q 140 318 142 317 l 135 318 q 131 317 133 317 l 125 317 q 110 313 115 314 q 89 301 104 311 l 78 304 q 175 385 78 385 l 190 385 q 197 384 193 385 q 208 382 201 383 q 225 379 211 382 q 258 371 243 376 q 215 482 257 435 q 113 531 175 531 l 93 531 q 86 529 90 529 l 81 529 q 60 521 64 522 q 46 517 57 519 l 46 522 q 47 527 46 525 q 51 539 49 529 q 59 552 58 546 q 67 565 60 558 q 115 601 92 590 q 169 611 138 611 l 179 611 q 195 609 183 610 q 213 606 207 608 q 232 598 224 601 q 242 594 240 594 q 301 756 257 690 q 414 881 346 822 q 356 854 379 865 q 319 838 332 843 q 219 814 261 815 q 192 813 213 813 l 176 813 q 161 815 172 813 q 158 817 160 815 l 156 817 q 144 818 151 817 q 135 821 138 819 l 129 821 l 126 821 q 122 819 125 819 q 116 817 118 818 q 114 817 114 817 q 100 811 110 817 q 84 803 93 808 q 74 799 75 799 l 72 799 l 61 788 l 46 772 q 39 763 39 763 l 32 756 q 29 751 29 753 l 28 751 l 26 750 q 22 749 25 749 l 22 747 l 19 747 l 19 746 q 13 743 17 743 l 8 743 l 8 746 q 7 747 7 746 l 7 754 q 6 756 6 754 l 6 761 q 6 780 6 774 q 11 800 7 786 q 67 892 26 849 q 156 943 108 935 l 160 943 q 163 944 161 943 l 164 944 l 175 947 q 194 943 181 943 l 206 943 q 223 938 208 940 q 242 936 238 936 q 303 922 282 929 l 336 918 q 444 938 378 918 l 449 938 q 463 942 454 940 q 485 947 472 944 l 485 950 m 511 353 q 507 349 508 349 l 497 349 q 494 347 496 347 l 490 347 q 393 146 490 251 l 439 149 q 456 146 444 146 l 464 146 q 472 144 467 144 q 635 107 553 140 q 656 118 638 108 q 663 125 658 121 q 675 135 668 129 q 680 147 678 144 q 682 153 682 149 q 686 163 685 161 q 688 171 688 165 q 690 181 688 169 q 692 185 690 183 l 692 189 q 667 231 683 203 q 511 350 597 339 l 511 353 m 617 683 l 488 568 l 488 393 l 711 563 l 708 582 l 617 683 "},"L":{"ha":903,"x_min":0,"x_max":875,"o":"m 686 950 q 697 944 692 944 q 701 940 701 943 q 714 929 711 939 q 703 914 711 922 q 697 910 700 913 q 689 904 694 907 q 576 813 589 897 l 589 519 q 563 369 592 449 q 482 247 536 297 l 367 140 q 431 156 393 147 q 519 175 469 165 q 547 177 535 176 q 568 178 560 178 q 622 175 597 178 q 681 164 647 172 q 694 158 686 161 q 714 153 703 156 q 721 151 717 151 q 732 147 725 150 q 749 140 740 142 q 758 133 751 138 q 771 124 764 129 l 792 107 l 794 107 q 800 102 794 104 q 810 100 806 100 l 818 106 q 819 106 818 106 q 824 107 821 106 q 826 110 825 108 q 828 113 826 111 l 833 118 q 843 131 842 129 q 845 134 843 132 q 847 138 847 136 l 875 118 l 711 -37 q 490 57 638 36 q 476 58 479 57 l 463 58 q 450 60 453 58 l 436 60 q 417 59 429 60 q 389 57 404 58 q 369 55 382 56 q 342 51 357 54 q 228 24 303 47 q 167 3 193 13 q 124 -17 142 -7 l 103 -6 l 235 126 q 246 147 240 136 q 250 157 249 154 q 254 171 251 160 q 260 186 258 179 q 261 196 261 193 q 263 212 263 206 q 264 221 264 218 l 264 228 q 263 236 263 231 q 260 253 260 250 q 255 269 254 268 q 250 275 256 269 q 244 283 247 278 q 235 296 240 289 q 192 324 210 317 q 181 328 188 325 q 167 333 175 331 q 154 337 163 335 q 140 339 146 339 q 169 360 149 351 q 208 368 185 367 l 219 368 q 224 367 221 367 l 239 367 q 251 364 250 364 l 261 364 l 261 385 q 232 435 261 411 q 169 471 194 463 q 142 476 168 472 q 127 478 133 478 q 118 479 121 479 l 103 482 l 94 479 q 147 525 114 511 q 218 539 168 535 l 250 542 l 250 546 q 249 551 249 547 l 249 558 q 246 567 247 560 q 244 578 244 574 l 244 592 q 353 840 244 732 q 334 831 343 835 q 317 825 325 828 l 279 813 q 254 808 271 810 q 229 807 249 807 l 222 807 q 218 808 219 807 l 206 808 q 201 810 203 808 l 199 810 q 183 813 188 810 q 171 817 178 815 q 150 824 160 824 l 129 828 q 117 831 125 828 l 111 831 q 103 832 107 831 l 76 832 q 68 831 75 831 l 65 831 l 50 815 q 47 810 47 813 q 42 803 47 808 q 33 791 39 797 q 19 775 26 785 l 18 775 q 15 774 17 774 l 14 774 q 6 769 10 769 l 3 769 l 0 775 l 0 781 q 44 882 0 838 q 147 939 89 928 l 168 943 q 179 944 176 943 l 189 944 l 336 904 q 342 900 338 900 l 350 900 q 353 899 350 899 l 358 899 q 369 899 361 899 q 388 901 376 900 q 417 909 399 901 q 471 931 435 917 q 486 936 476 931 q 488 938 488 938 q 490 939 489 938 l 496 932 l 410 835 q 404 814 407 826 q 397 783 401 801 q 389 736 394 758 q 386 699 388 718 q 385 663 385 681 q 389 567 385 596 q 390 544 389 557 q 392 517 390 532 q 394 487 393 497 q 394 468 394 476 q 395 453 394 460 q 396 436 396 446 l 396 350 q 342 214 374 276 q 267 94 314 160 l 267 93 q 265 90 265 92 l 265 85 q 264 82 264 83 l 264 78 q 461 401 431 193 l 461 410 q 463 415 461 414 l 463 439 q 458 500 463 476 q 452 574 456 542 q 444 628 449 606 q 442 666 443 650 q 442 692 442 682 q 442 706 442 699 q 443 719 442 713 q 490 869 447 800 q 569 926 522 907 q 665 947 624 947 l 686 947 l 686 950 "},"M":{"ha":1319,"x_min":-37,"x_max":1228,"o":"m 619 961 l 619 958 q 324 789 476 890 q 211 658 243 736 q 175 490 182 589 q 162 490 167 490 q 149 486 157 489 l 136 482 q 122 478 126 479 q 17 358 17 442 l 17 356 l 18 356 l 18 351 l 19 351 l 19 350 q 26 353 22 351 q 31 356 29 356 q 43 360 33 356 q 68 365 61 364 q 75 367 71 365 l 82 367 q 89 368 85 367 l 108 368 q 113 367 111 367 q 126 364 115 367 q 139 361 131 364 q 164 353 158 357 q 261 172 261 286 l 261 146 q 118 57 243 57 q 115 57 117 57 q 110 55 113 56 q 103 54 107 54 q 100 54 101 54 q 96 53 97 53 q 88 50 88 50 q 0 0 40 36 q -37 -89 -37 -42 l -37 -93 q -36 -99 -36 -97 l -36 -111 q -33 -122 -33 -119 l -33 -128 q -32 -132 -32 -131 q 15 -77 -12 -92 q 75 -62 43 -62 q 111 -64 99 -62 q 150 -71 138 -68 l 188 -75 q 224 -78 213 -78 l 254 -78 q 260 -76 258 -76 l 267 -76 q 272 -75 271 -75 q 378 8 349 -51 q 417 146 408 67 l 417 417 l 576 417 l 576 189 q 575 186 575 188 l 575 182 q 563 151 574 168 q 536 124 553 135 q 617 58 586 88 q 683 -14 663 11 l 910 183 l 886 199 q 871 188 876 190 q 850 183 850 183 l 850 417 l 939 536 l 856 536 l 856 835 l 858 838 q 865 841 861 839 q 872 847 868 843 l 874 849 l 876 849 q 881 853 879 849 l 979 783 l 979 146 q 1010 48 986 85 q 1082 -14 1035 11 l 1096 -14 l 1228 110 l 1206 129 l 1201 125 q 1197 121 1199 122 q 1190 117 1194 119 q 1183 113 1185 115 q 1176 110 1182 111 q 1168 110 1172 108 l 1139 161 l 1139 772 q 1176 850 1151 818 l 1182 856 q 1188 864 1183 860 l 1188 869 q 1189 872 1188 871 l 1189 881 q 1190 885 1189 883 l 1190 899 l 1189 899 q 1186 897 1188 897 l 1182 897 q 1144 881 1158 889 q 1117 856 1125 865 l 967 958 l 738 794 q 724 842 731 826 q 703 889 710 872 q 699 892 701 889 q 697 899 697 896 q 679 915 692 904 q 661 931 667 925 q 619 961 635 951 m 414 804 l 414 801 q 399 768 401 778 q 389 732 392 744 q 386 725 388 731 q 383 713 385 719 q 382 700 382 706 l 382 139 q 381 131 381 135 q 374 102 374 103 q 372 98 374 101 q 369 92 371 94 l 369 90 q 368 88 368 89 l 368 86 q 367 83 367 85 q 328 50 354 57 q 299 40 294 40 l 279 40 q 275 41 276 40 q 272 43 274 42 q 269 43 271 43 q 257 46 265 43 q 253 49 256 47 q 247 51 250 51 q 308 102 279 68 q 336 175 336 136 l 336 697 q 367 754 344 722 q 414 804 397 789 m 738 417 l 818 417 l 818 124 q 795 105 807 113 q 767 94 783 97 q 744 132 753 110 q 738 178 738 149 l 738 417 m 511 847 l 511 844 q 555 818 535 839 q 576 781 575 797 l 576 542 l 482 542 l 419 450 l 419 740 q 447 793 429 767 q 482 840 472 831 l 486 840 q 492 843 489 840 l 496 843 l 497 844 l 499 844 q 503 847 501 844 l 511 847 m 818 797 l 818 536 l 735 536 l 735 738 l 818 797 "},"N":{"ha":1107,"x_min":-57,"x_max":1039,"o":"m 649 932 l 304 721 l 304 600 q 199 619 240 619 l 189 619 q 167 617 174 617 q 160 617 164 617 q 154 615 156 615 l 138 611 q 121 606 124 608 q 111 595 114 600 q 103 585 108 590 l 115 582 q 226 547 175 582 q 304 457 276 511 l 304 450 q 303 443 303 444 q 299 431 303 435 q 288 433 296 431 q 268 441 269 440 q 257 444 267 442 q 236 450 240 449 q 189 457 201 457 l 179 457 q 136 442 157 456 q 100 404 115 429 q 103 401 100 401 l 104 401 q 106 399 106 400 q 110 397 107 397 l 111 397 q 113 396 113 396 q 129 397 124 396 l 146 401 l 150 401 q 153 403 151 401 l 160 403 q 163 404 161 403 l 164 404 q 182 401 168 404 q 192 399 190 399 q 215 386 204 392 q 220 385 218 386 q 226 381 222 383 q 236 375 229 378 q 240 374 238 375 q 243 372 242 372 q 248 368 244 371 q 253 364 251 365 q 262 358 260 363 q 267 351 264 353 l 272 346 q 280 338 279 339 q 283 335 281 338 q 285 332 285 333 q 288 328 286 331 q 290 324 290 325 q 294 315 290 328 q 300 304 300 308 q 301 299 300 300 l 301 285 l 289 289 q 276 292 285 289 l 261 292 q 256 293 257 292 l 250 293 q 149 253 189 293 l 149 251 l 147 250 q 146 246 146 247 l 143 243 l 143 242 q 142 239 142 240 l 142 238 q 140 235 140 236 l 143 226 q 146 228 144 226 l 147 228 q 150 229 149 228 l 153 229 q 162 231 158 229 q 167 233 165 232 q 172 235 169 235 q 183 236 174 235 q 199 242 193 238 l 204 239 l 215 239 q 304 193 264 232 q 350 106 350 149 l 350 94 q 349 90 349 92 l 349 82 q 347 78 347 79 l 347 72 q 309 34 338 47 q 253 21 281 21 l 232 21 q 211 24 225 21 q 203 24 204 24 q 199 26 201 25 q 193 26 196 26 q 176 29 188 26 q 149 33 157 32 q 126 40 132 36 l 113 38 q 10 2 58 38 q -57 -83 -39 -33 q -53 -81 -54 -81 l -51 -81 l -50 -79 q -8 -62 -32 -71 q 35 -54 8 -54 l 38 -54 q 40 -56 39 -54 l 210 -106 l 242 -106 q 435 -25 351 -106 q 528 161 518 56 l 528 339 q 578 372 551 363 q 633 389 608 389 l 646 389 q 651 390 650 389 l 668 390 q 679 389 672 389 q 786 342 754 374 q 719 161 764 265 q 635 -6 678 64 l 614 -92 l 632 -97 q 707 -18 660 -42 q 810 3 750 3 q 843 0 821 3 l 860 0 q 869 -1 863 0 q 878 -1 875 -1 q 894 -6 883 -3 q 911 -8 906 -8 q 944 -17 928 -15 l 1039 143 l 1010 158 l 985 126 q 946 135 965 133 l 925 139 q 904 142 918 139 l 883 142 q 874 143 875 142 l 851 143 q 839 142 846 142 q 783 135 832 142 q 757 132 761 132 l 838 238 l 942 436 q 950 467 944 447 q 958 496 956 486 q 976 576 967 525 q 979 597 976 583 q 899 796 979 711 q 714 918 839 857 l 649 932 m 496 786 l 496 274 q 494 253 494 267 l 494 233 q 493 213 493 219 l 489 158 q 486 132 486 122 q 482 107 485 122 q 479 101 479 104 l 479 99 q 478 96 478 97 q 432 32 460 60 q 361 3 396 3 l 357 3 q 354 4 354 3 l 346 4 q 344 6 344 4 l 342 6 q 411 72 383 29 q 447 189 447 125 l 447 757 l 496 786 m 821 571 l 821 554 q 822 547 821 549 l 822 525 q 824 518 822 519 l 824 511 q 797 376 824 433 q 783 383 793 379 q 768 388 774 386 q 753 393 758 392 q 739 397 756 393 q 715 402 722 401 q 692 407 708 403 q 649 411 675 411 q 590 404 629 411 q 531 385 550 393 l 531 565 l 551 553 q 571 540 565 543 q 585 534 576 538 q 597 528 593 531 q 610 524 601 526 q 622 518 619 521 q 671 511 643 511 q 771 538 707 511 q 821 571 808 560 m 528 786 l 546 783 q 576 781 554 783 q 610 775 604 778 q 736 712 676 758 q 813 606 796 665 q 761 563 792 579 q 678 536 710 536 l 650 536 q 578 561 610 543 q 528 625 543 585 l 528 786 "},"O":{"ha":1050,"x_min":-6,"x_max":956,"o":"m 490 944 l 49 651 l 6 503 l -6 399 l 14 247 q 149 54 47 128 q 371 -17 246 -17 l 408 -17 q 417 -15 415 -15 l 424 -15 q 431 -14 429 -14 l 571 40 l 668 106 l 821 239 q 914 379 876 315 q 956 539 956 450 q 838 796 956 694 q 579 928 724 893 q 535 936 550 935 q 524 939 532 938 q 513 940 517 940 q 490 944 497 940 m 608 401 l 614 399 q 644 396 622 399 q 742 356 703 389 q 778 307 768 340 q 654 154 742 213 q 471 83 563 93 l 471 307 q 524 368 485 340 q 601 397 564 392 q 604 399 603 397 l 606 399 q 608 401 607 397 m 376 794 l 436 794 l 436 97 q 324 131 374 106 q 232 204 274 157 l 342 325 l 343 326 l 343 328 q 346 332 343 329 q 367 376 360 363 q 376 431 376 401 l 376 794 m 250 718 l 250 307 q 239 260 250 283 q 210 218 228 238 q 183 250 192 239 q 164 285 172 267 q 152 311 156 303 q 146 324 149 319 l 142 336 q 128 389 132 371 q 124 439 124 439 q 125 467 124 457 q 164 604 128 519 q 226 708 181 644 q 229 709 228 708 q 233 713 231 710 l 236 713 q 239 714 238 713 l 240 714 l 242 715 q 244 718 243 714 l 250 718 m 778 592 l 778 589 q 781 575 778 583 q 794 532 794 535 q 798 516 797 521 q 801 501 799 511 q 804 486 804 492 q 807 469 807 475 q 810 439 810 447 l 810 431 q 808 421 808 426 l 808 411 q 806 400 807 407 q 804 389 804 393 l 800 376 q 789 353 799 368 q 728 396 760 381 q 694 411 706 406 q 660 420 668 419 q 639 424 653 421 q 629 425 631 424 l 607 425 q 594 424 603 424 q 571 418 574 419 q 521 399 532 406 q 474 371 489 382 l 474 574 q 565 531 517 542 q 588 526 583 526 q 593 526 589 526 q 600 525 597 525 l 611 525 q 646 528 628 525 q 654 529 649 528 q 664 531 660 531 q 731 557 708 547 q 778 592 761 575 m 471 786 l 479 783 l 492 783 q 503 782 496 782 q 528 778 521 779 q 653 720 589 764 q 754 625 718 676 q 640 560 718 574 l 638 560 q 635 558 636 558 l 624 558 q 619 557 621 557 l 614 557 q 593 558 603 557 q 581 559 583 558 q 568 563 579 560 q 471 643 481 585 l 471 786 "},"P":{"ha":1050,"x_min":3,"x_max":936,"o":"m 675 950 l 511 835 l 511 944 l 476 944 l 474 813 l 433 778 q 358 904 418 844 q 285 938 328 924 q 235 944 250 944 l 224 944 q 213 943 219 943 q 192 940 199 940 q 67 878 132 925 q 65 874 67 876 q 63 868 64 871 q 61 864 61 865 l 61 860 q 60 856 60 857 l 60 850 q 161 872 111 874 q 244 824 217 871 q 274 731 272 776 q 275 725 274 726 l 275 703 q 274 697 274 700 l 274 678 q 272 669 272 676 l 272 663 q 239 638 256 653 q 204 613 222 628 q 171 589 182 597 q 136 565 147 572 l 90 532 q 70 517 75 521 q 58 508 65 514 q 46 500 50 503 q 201 382 136 463 q 272 204 272 296 l 272 192 q 78 94 160 160 q 65 83 72 89 q 55 76 58 78 q 46 68 51 74 l 21 43 q 6 17 11 33 q 4 13 6 15 q 3 10 3 11 l 3 1 l 4 1 l 4 0 l 6 0 l 6 -3 q 79 24 54 14 q 117 36 110 33 q 136 42 124 39 q 154 47 149 46 q 179 53 172 51 q 204 63 197 60 l 272 67 l 272 -192 l 511 -192 l 514 43 q 538 39 535 39 q 549 37 540 39 q 560 33 557 35 q 607 22 592 28 q 638 14 628 18 q 668 4 658 7 q 729 -17 708 -8 l 936 156 l 936 625 q 850 814 926 729 q 686 950 804 865 l 675 950 m 474 761 l 474 -169 l 433 -169 l 433 729 l 474 761 m 603 350 l 638 347 l 646 347 q 654 346 653 346 l 664 346 q 672 344 669 344 q 715 335 693 340 q 757 318 736 329 q 758 317 757 317 l 758 315 l 760 315 q 761 314 761 314 q 774 299 769 306 q 781 288 779 292 l 781 107 q 511 189 656 154 l 511 299 q 553 331 535 322 q 603 350 586 346 m 511 350 l 511 533 q 603 499 571 506 q 625 494 621 494 q 631 494 626 494 q 638 493 635 493 l 649 493 q 671 494 664 493 q 692 499 685 497 q 778 536 753 514 l 778 342 q 769 347 775 344 q 761 350 764 349 q 743 357 749 354 q 708 369 719 365 q 699 372 706 371 q 690 374 693 374 q 672 376 683 374 q 638 379 647 379 q 511 350 599 379 m 269 611 l 269 471 l 169 546 l 269 611 m 579 818 l 579 815 q 596 810 593 813 q 606 807 604 807 q 610 806 607 807 q 614 803 614 804 q 624 799 621 800 q 631 793 626 797 q 642 789 643 789 q 645 787 642 789 q 649 783 649 785 q 667 769 660 775 q 672 767 669 769 q 676 763 675 764 q 686 754 682 757 q 778 600 778 667 l 778 579 q 733 553 750 561 q 708 542 717 546 q 682 535 690 538 q 632 528 640 528 q 511 592 553 528 l 511 783 q 533 805 517 796 q 561 815 549 814 l 564 815 q 568 818 567 815 l 579 818 "},"Q":{"ha":1078,"x_min":3,"x_max":1007,"o":"m 490 932 l 60 649 l 24 543 q 22 538 24 540 q 21 533 21 536 l 21 525 q 11 468 11 457 q 8 446 11 461 q 4 422 6 431 q 3 379 3 407 q 38 195 3 283 q 161 46 74 107 q 235 8 189 26 q 313 -9 286 -6 q 351 -14 339 -12 l 382 -14 q 400 -12 388 -12 q 438 -7 433 -8 q 496 4 463 -6 q 553 25 518 10 q 660 89 608 47 l 867 -62 l 1007 63 l 982 86 l 953 67 l 783 194 l 899 328 q 911 353 907 346 q 922 376 918 368 q 932 401 932 397 q 942 425 939 413 q 951 472 950 460 q 956 522 956 493 l 956 536 q 954 550 954 540 l 954 565 q 953 581 953 569 q 944 625 947 610 q 788 830 903 754 q 517 928 672 906 q 503 928 508 928 q 490 932 499 929 m 665 393 l 665 390 q 731 358 701 381 q 781 307 760 336 q 661 151 749 225 q 486 78 574 78 l 479 78 q 474 81 475 78 l 474 307 q 543 368 499 347 q 635 393 581 386 l 665 393 m 385 789 l 442 789 l 442 94 l 440 94 l 439 93 l 435 93 l 433 92 l 431 92 q 406 93 415 92 q 382 100 401 93 q 238 204 288 133 l 339 301 q 342 310 342 308 q 346 314 343 311 l 349 317 q 355 328 351 321 q 360 339 358 335 q 369 357 361 343 q 382 404 382 392 l 385 789 m 253 708 l 253 304 q 241 256 253 279 q 215 218 229 232 q 160 315 179 267 q 136 421 144 354 q 135 433 135 425 l 135 471 q 139 497 135 474 q 157 567 143 521 q 186 640 176 615 l 253 708 m 781 585 l 781 582 q 789 558 788 567 q 796 535 793 543 q 806 485 804 507 q 807 479 806 483 q 807 474 807 476 q 810 449 810 457 l 810 425 q 808 413 808 421 q 801 369 808 404 q 799 359 799 361 q 797 353 799 357 q 794 347 796 350 q 789 353 793 350 q 781 358 785 357 q 768 368 776 360 q 763 374 767 371 q 754 378 758 376 q 742 388 750 379 q 706 411 718 401 q 689 414 700 411 q 674 415 683 414 q 660 418 664 417 l 649 418 q 638 419 642 418 l 628 419 q 549 405 585 419 q 476 364 514 390 l 476 571 l 482 563 q 614 519 540 519 l 626 519 q 663 525 635 519 q 781 585 735 539 m 474 640 l 474 778 q 757 622 664 764 q 740 601 753 615 q 721 582 728 588 q 629 556 668 556 q 619 554 625 554 l 597 554 q 521 578 561 554 q 474 640 481 601 "},"R":{"ha":1083,"x_min":19,"x_max":1033,"o":"m 253 956 q 319 936 288 951 q 375 897 350 921 q 418 844 400 874 q 444 783 436 815 l 692 950 l 886 675 l 692 542 l 807 442 q 823 421 814 433 q 843 393 832 408 q 849 384 846 390 q 858 368 853 378 q 872 342 864 361 l 947 143 l 979 106 l 1013 129 l 1033 106 l 893 -17 q 844 7 865 -15 q 811 53 821 33 q 803 69 808 61 q 794 86 800 78 l 746 238 q 661 363 725 303 q 519 422 597 422 l 519 175 l 663 118 l 692 146 l 714 126 l 571 -26 l 554 -26 q 446 39 514 14 q 319 67 367 67 l 271 67 q 263 65 269 65 q 147 43 218 63 q 43 0 96 28 l 19 3 q 58 68 29 38 q 88 93 71 78 q 129 129 106 108 l 275 199 l 275 229 q 207 394 275 314 q 63 506 146 469 q 51 511 57 506 l 275 665 l 275 797 q 235 851 267 828 q 168 878 200 878 l 158 878 l 153 881 q 137 874 147 878 q 108 865 126 869 q 97 863 101 864 q 86 863 92 863 l 81 863 q 75 861 79 861 l 63 861 q 110 915 79 897 q 140 931 121 922 q 182 946 158 939 q 198 949 192 949 q 222 953 204 950 l 235 953 l 253 956 m 482 775 l 442 746 l 442 186 l 482 178 l 482 775 m 582 832 l 522 792 l 522 460 l 740 606 l 582 832 m 275 628 l 172 560 q 200 539 182 550 q 226 518 208 531 q 275 474 240 507 l 275 628 "},"S":{"ha":1107,"x_min":0,"x_max":1014,"o":"m 396 958 l 244 818 q 182 731 210 786 q 146 622 154 676 q 64 565 101 606 q 32 476 32 532 l 32 472 q 33 471 32 471 l 33 464 q 35 463 33 463 l 35 460 q 269 290 76 311 q 275 290 271 290 q 283 288 279 289 q 293 288 286 288 l 325 288 q 329 289 328 288 l 344 289 q 353 293 351 289 l 331 250 l 297 254 q 281 256 286 254 q 250 258 258 256 l 238 258 q 215 261 219 258 l 181 258 q 124 246 151 256 q 0 107 0 200 l 0 83 q 3 75 1 79 q 67 -6 18 15 q 172 -29 124 -29 l 182 -29 q 192 -28 183 -28 l 203 -28 q 214 -26 207 -26 l 244 -22 q 272 -17 264 -19 l 465 54 l 638 -17 l 651 -17 l 850 103 q 960 219 911 154 q 1013 371 1014 293 q 916 553 1010 483 q 719 642 822 622 q 625 654 657 651 l 597 654 l 732 901 l 703 915 l 671 856 l 396 958 m 118 126 l 143 124 l 165 124 q 174 122 172 122 l 188 122 q 200 121 192 121 q 206 121 201 121 q 213 119 210 119 q 224 121 219 119 l 419 67 q 339 26 363 36 q 217 -4 293 7 q 201 -6 206 -4 l 175 -6 q 164 -4 171 -4 q 142 -1 150 -1 q 111 4 121 3 q 82 18 88 14 q 70 30 76 22 q 61 42 64 38 q 61 44 61 43 q 59 48 60 46 q 58 51 58 50 q 57 60 57 58 l 57 68 q 60 76 57 74 q 118 126 72 111 m 611 503 l 625 500 q 875 388 803 500 q 881 376 876 383 q 886 364 885 368 q 894 342 890 356 q 897 331 897 335 q 901 307 900 315 l 901 296 q 860 176 901 235 q 764 86 818 118 l 654 132 l 783 199 q 797 213 796 211 q 802 219 799 214 q 807 226 806 224 q 829 257 824 247 q 831 263 829 260 q 833 267 832 265 q 835 269 835 268 l 835 276 q 836 281 835 279 l 836 292 q 838 296 836 294 l 838 299 q 798 381 838 344 q 715 428 758 418 q 696 432 696 432 q 678 436 683 432 l 474 428 l 514 490 q 526 492 521 490 q 563 496 542 492 l 575 496 q 611 503 600 496 m 668 304 l 668 301 l 671 301 q 673 299 672 300 q 678 297 674 299 q 683 294 682 296 q 695 288 694 289 q 697 284 696 286 q 699 282 697 282 l 699 279 q 700 274 699 275 l 700 256 q 699 249 699 250 q 696 238 696 240 q 668 194 690 221 q 658 185 664 190 q 649 176 651 179 q 628 161 638 167 q 611 154 618 156 q 594 156 600 151 l 371 235 l 396 288 l 668 304 m 158 589 l 158 586 q 342 478 204 483 q 353 476 346 476 l 381 476 q 400 479 386 476 q 422 482 408 479 q 444 486 424 482 q 450 488 449 486 l 456 488 q 468 493 463 488 l 436 425 l 428 425 q 418 424 424 424 l 408 424 q 397 422 404 422 l 394 422 q 375 419 381 419 l 339 419 q 278 425 328 419 q 258 426 267 425 q 247 428 249 426 l 238 428 q 231 428 232 428 q 226 431 229 429 q 222 431 225 431 q 207 438 213 435 q 153 472 168 458 q 125 522 132 492 q 124 525 124 524 l 124 536 q 125 540 125 539 q 132 561 125 540 q 136 566 133 563 q 139 569 139 569 q 147 579 147 578 q 158 589 156 585 m 356 821 l 361 818 q 400 815 383 818 q 439 804 417 813 q 507 776 482 789 l 540 760 q 572 742 557 750 q 578 738 576 738 q 583 735 581 738 q 586 732 586 733 q 600 726 603 726 l 551 643 l 344 632 l 336 625 q 264 672 290 625 q 260 681 263 679 q 257 690 257 689 q 253 703 254 699 q 253 715 253 707 q 281 783 253 754 q 356 821 310 811 "},"T":{"ha":957,"x_min":-3,"x_max":904,"o":"m 904 906 l 904 933 l 903 933 q 900 932 901 932 l 897 932 q 894 931 896 931 l 892 931 l 890 929 l 888 929 l 888 928 l 886 926 l 883 926 q 881 922 883 926 q 876 915 878 918 q 869 904 874 911 q 863 894 865 897 q 857 888 860 890 q 847 880 854 885 q 835 872 839 875 l 822 868 q 810 865 814 865 q 802 863 807 864 q 793 861 797 861 l 771 861 q 768 863 768 861 l 758 863 q 755 863 756 863 q 751 867 754 864 l 388 926 l 375 926 q 368 928 372 926 l 357 928 q 350 929 351 928 l 333 929 q 314 928 319 929 q 304 928 311 928 q 293 926 297 926 q 254 921 260 922 q 76 833 161 903 q -3 668 -3 768 l -3 667 l -1 665 l -1 663 l 0 661 q -3 663 1 661 l 8 657 q 238 778 88 778 l 246 778 q 256 776 250 776 l 267 776 q 276 775 268 775 l 285 775 q 292 774 289 774 l 300 774 q 307 772 304 772 q 69 444 122 658 q 67 428 67 433 q 64 413 64 417 q 63 408 64 410 q 61 404 61 406 l 61 396 q 58 390 60 394 q 57 381 57 385 l 57 356 q 58 351 57 353 l 58 346 l 60 346 l 60 342 q 61 336 60 338 l 61 331 q 63 325 61 326 l 63 321 q 218 69 85 165 q 503 -24 346 -24 q 583 -17 521 -24 q 653 0 646 -1 q 743 46 703 14 q 769 67 761 60 q 899 288 899 169 l 899 307 l 886 304 q 861 269 878 292 l 832 232 q 749 151 801 192 q 649 115 696 110 l 643 118 l 643 718 l 646 718 q 649 717 647 717 l 660 717 q 664 715 663 715 l 685 715 q 701 718 690 715 q 710 719 708 718 l 718 719 q 726 721 725 719 l 735 721 q 840 775 793 728 q 901 883 892 828 q 903 890 901 886 l 903 897 q 904 906 903 904 m 525 732 l 611 721 l 611 97 l 606 97 q 599 96 600 96 l 592 96 q 585 94 586 94 q 569 92 574 92 l 557 92 q 451 108 503 92 q 356 161 400 125 q 359 164 357 163 q 361 165 361 165 q 371 172 367 168 q 376 175 374 172 q 478 272 431 213 q 525 404 525 332 l 525 732 m 342 767 l 367 764 l 367 760 q 369 757 367 757 l 369 754 l 371 754 l 371 753 q 372 751 371 751 l 372 750 l 374 750 l 374 310 q 369 274 374 285 q 365 257 365 257 q 353 218 353 207 q 349 213 350 215 l 343 207 q 340 203 340 204 q 337 200 339 201 q 333 197 335 199 l 328 192 q 324 189 325 189 q 320 190 321 189 q 317 197 319 192 q 311 203 314 201 q 286 229 296 221 q 265 259 268 256 q 263 264 263 263 l 258 268 q 255 272 256 271 q 253 278 254 274 q 218 361 238 306 q 207 447 207 406 q 208 481 207 469 q 213 514 211 503 q 224 567 221 549 q 242 617 233 596 q 254 646 253 643 q 301 731 274 690 q 342 767 314 750 "},"U":{"ha":1142,"x_min":0,"x_max":1065,"o":"m 589 956 l 589 953 l 569 953 q 567 951 568 953 l 560 951 q 558 950 558 950 q 554 949 557 950 q 549 944 551 947 q 544 942 546 942 l 540 938 q 531 929 533 933 l 522 921 q 493 910 513 917 q 464 900 474 904 q 419 893 429 893 l 413 893 q 407 894 408 893 q 392 895 397 894 q 382 901 388 896 l 238 947 l 210 944 q 79 888 139 944 q 4 760 19 832 q 0 740 0 740 l 0 715 q 1 713 0 713 l 1 708 q 3 704 1 706 l 3 700 q 4 692 3 696 q 6 685 6 689 q 8 682 7 682 l 8 681 l 19 675 q 25 687 22 679 q 29 698 28 694 q 35 709 31 701 q 42 721 40 717 q 92 783 61 754 q 161 815 118 808 l 315 813 l 425 840 l 407 829 q 198 660 288 771 q 83 417 108 550 l 83 401 q 82 396 82 399 l 82 386 q 81 379 81 381 l 81 368 q 164 124 81 231 q 385 -3 250 11 l 533 0 q 810 158 649 15 q 825 107 810 144 q 847 51 840 69 q 856 39 854 46 q 858 36 857 39 q 860 32 860 33 q 863 28 861 31 q 865 24 865 26 q 893 -4 885 0 q 929 -17 906 -17 l 1065 110 l 1065 113 q 1063 115 1064 114 q 1060 118 1061 117 q 1057 122 1058 119 q 1055 126 1056 125 q 1054 128 1054 128 l 1054 129 l 1053 129 l 1040 125 q 1033 122 1038 124 q 1028 119 1029 119 q 1022 117 1026 118 q 1015 114 1017 115 q 1008 110 1013 113 q 1001 107 1004 108 q 975 169 979 129 l 979 801 q 989 819 985 810 q 996 840 993 829 q 1004 860 999 847 q 1013 879 1010 874 q 1022 899 1019 892 q 1031 921 1028 914 l 1010 921 l 947 864 l 813 950 l 665 775 l 686 761 l 735 815 l 738 813 l 744 813 q 770 804 757 811 q 796 785 783 797 q 806 772 804 775 q 808 769 807 769 l 808 768 l 810 768 l 810 597 q 729 565 757 568 q 714 563 718 563 l 700 563 q 608 589 667 563 q 602 603 607 596 q 594 617 597 611 l 594 929 l 589 956 m 735 399 l 735 396 q 772 381 747 392 q 792 372 785 376 q 810 364 800 367 l 810 186 q 594 113 706 117 l 594 356 q 647 385 618 374 q 706 399 686 396 l 735 399 m 560 889 l 560 115 q 447 129 497 115 q 344 181 396 143 q 517 385 481 276 l 517 789 l 525 815 q 533 833 529 826 q 542 850 538 840 q 551 867 547 860 q 560 889 554 875 m 476 821 l 474 813 q 435 774 447 792 q 376 669 397 736 q 364 603 369 646 q 361 579 361 588 l 361 524 q 362 509 361 513 q 364 500 363 506 q 364 492 364 494 q 365 486 364 488 l 365 481 q 367 469 365 474 q 368 449 367 454 q 371 406 368 419 l 371 367 q 358 280 371 321 q 321 204 346 239 q 289 249 292 244 q 258 296 274 271 q 247 331 251 319 q 233 401 239 378 q 233 410 233 404 q 232 419 232 415 l 232 436 q 298 663 232 560 q 476 821 364 765 m 594 396 l 594 563 q 600 560 597 560 q 606 558 603 560 q 608 556 608 557 q 644 542 638 546 q 688 531 682 532 q 706 531 693 531 q 739 535 706 531 q 774 547 763 543 q 792 553 786 550 q 803 559 799 556 q 810 565 807 563 l 810 393 q 772 414 796 404 q 729 425 747 424 q 721 426 725 425 l 714 426 q 707 428 708 426 l 700 428 q 594 396 644 428 "},"V":{"ha":957,"x_min":0,"x_max":850,"o":"m 754 967 l 376 761 q 369 785 374 774 q 364 797 364 796 q 362 801 364 797 q 358 806 360 804 q 181 964 290 947 l 172 961 q 150 958 164 961 q 129 953 132 954 q 44 897 88 942 q 0 806 0 851 l 0 796 q 3 790 0 793 l 3 789 q 4 786 3 786 l 4 783 q 6 781 4 781 l 6 778 l 22 794 q 53 822 46 818 q 92 838 78 835 l 103 835 q 181 776 156 822 q 228 678 211 733 q 242 619 236 649 q 256 571 249 590 l 264 471 q 251 479 254 478 q 242 483 247 481 q 235 486 238 486 q 185 501 213 494 q 175 503 179 501 l 156 503 q 153 503 154 503 q 149 501 150 501 q 140 499 140 499 q 126 493 129 496 l 124 490 l 122 490 q 88 452 104 474 q 72 407 72 431 l 75 399 l 88 403 q 100 410 96 406 l 106 407 q 208 363 161 407 q 256 264 256 319 l 256 247 l 183 3 q 190 1 185 1 q 197 -1 194 0 q 200 -3 199 -3 l 213 -3 q 218 -1 217 -1 q 225 0 226 0 l 232 0 q 243 4 231 0 q 249 8 246 7 q 256 10 253 8 q 262 14 258 13 q 267 15 265 15 q 278 18 269 15 q 321 25 313 25 q 333 26 329 25 l 351 26 q 360 25 358 25 l 376 25 q 392 22 385 22 l 400 22 q 407 21 404 21 q 412 19 410 21 q 415 17 414 18 q 419 15 417 17 q 422 13 422 14 q 440 1 435 6 q 462 -10 454 -6 q 473 -15 469 -14 q 479 -17 476 -15 q 485 -17 483 -17 l 490 -17 q 513 3 506 -1 q 535 26 528 18 q 815 414 753 254 q 829 464 825 447 l 842 514 q 847 564 847 547 q 850 614 850 597 q 847 664 850 631 q 842 717 843 708 q 754 967 810 867 m 536 353 l 536 350 q 649 307 588 340 q 546 113 590 175 l 529 117 q 511 120 529 117 q 483 124 493 124 q 469 126 474 125 l 457 126 q 244 43 363 126 q 317 181 281 104 q 374 325 347 244 q 438 343 410 338 q 506 353 482 350 l 536 353 m 692 560 l 692 518 q 690 500 690 511 q 674 400 683 438 q 654 339 661 358 q 624 350 625 350 q 608 356 614 354 q 592 360 610 356 q 539 369 557 368 q 490 374 517 374 l 475 374 q 458 372 469 372 q 406 365 403 365 l 385 361 q 390 383 389 376 q 399 432 390 390 q 401 457 399 443 q 406 504 406 500 q 407 528 407 528 l 407 551 q 546 528 497 528 q 593 531 560 528 q 642 542 626 539 q 667 549 658 546 q 692 560 690 558 m 611 856 l 611 853 q 661 749 642 804 q 689 639 686 676 q 690 628 689 631 l 690 617 q 692 606 690 610 l 692 594 q 672 586 681 592 q 651 579 658 582 q 613 569 625 572 q 572 563 581 563 q 533 560 551 560 q 407 582 474 560 q 406 619 407 601 q 403 656 404 643 q 388 732 394 707 l 611 856 "},"W":{"ha":1497,"x_min":-3,"x_max":1415,"o":"m 519 967 l 511 964 l 510 964 q 507 963 508 963 l 497 963 q 494 961 496 961 l 490 961 q 378 906 439 914 l 371 906 q 364 904 365 904 l 350 904 l 350 906 l 346 906 l 346 907 l 344 907 q 186 964 267 943 l 179 964 q 176 965 176 964 l 164 965 q 161 967 161 965 l 158 967 q 61 917 100 967 q 6 801 22 867 l 1 785 q 1 775 1 781 q 0 767 0 769 q -3 738 0 742 l -3 706 l 8 703 q 49 789 17 751 q 129 832 82 826 q 169 825 157 825 q 189 821 186 821 l 228 821 q 247 824 233 821 q 314 839 293 832 q 374 875 353 856 l 376 864 l 229 751 q 92 554 142 668 l 51 399 l 51 376 q 85 199 51 290 q 281 7 142 42 q 336 0 329 0 l 346 0 q 501 57 419 0 q 628 181 575 108 q 672 117 642 157 q 721 57 701 76 q 794 13 746 32 q 881 0 842 0 l 893 0 q 1047 50 981 0 q 1171 167 1124 107 q 1251 -8 1189 54 l 1264 -12 q 1271 -14 1267 -12 l 1276 -14 l 1415 129 l 1411 133 q 1408 137 1410 133 q 1406 142 1406 140 l 1401 146 q 1398 149 1399 149 q 1394 153 1397 150 q 1390 149 1392 150 q 1386 148 1388 149 q 1381 144 1385 147 q 1375 140 1378 142 q 1365 132 1368 135 q 1349 113 1356 124 q 1343 118 1347 115 q 1337 123 1339 121 q 1332 129 1335 125 q 1326 135 1329 133 l 1326 139 q 1325 143 1325 142 q 1322 154 1322 151 q 1317 168 1317 171 l 1317 175 l 1318 175 l 1322 810 q 1323 814 1322 813 q 1325 818 1324 815 q 1327 822 1326 821 q 1329 825 1328 824 l 1329 829 l 1386 929 l 1357 929 l 1300 875 l 1203 961 l 1065 813 l 1082 794 l 1125 835 l 1174 786 l 1174 614 q 1171 610 1171 611 l 1163 601 q 1158 597 1160 599 q 1153 594 1157 594 q 1146 593 1149 594 q 1140 590 1143 592 q 1135 589 1136 589 l 1132 589 q 1129 588 1131 588 q 1113 583 1113 583 q 1099 582 1107 582 q 1082 583 1088 582 q 1039 597 1054 590 l 1035 597 q 1031 603 1032 597 l 1031 947 l 1026 951 q 1019 953 1024 951 q 1007 958 1015 956 l 1001 958 q 943 919 963 933 q 924 907 931 911 l 919 907 q 914 906 917 906 l 910 906 q 904 904 907 904 l 901 904 q 892 901 893 901 l 881 901 q 879 903 879 901 l 872 903 q 869 907 869 903 l 749 958 l 721 956 l 711 956 q 708 954 710 954 l 701 954 q 694 953 696 953 q 685 950 686 950 q 680 949 683 950 q 675 947 676 947 q 671 944 674 946 q 665 940 668 943 q 657 938 661 938 q 649 932 653 933 q 554 808 578 890 q 550 789 551 796 q 549 772 549 782 l 549 767 q 550 761 549 763 q 551 756 550 756 q 555 746 551 756 q 560 732 558 736 q 621 800 581 771 q 706 824 661 824 l 718 824 q 724 822 722 822 l 732 822 q 736 821 735 821 l 747 821 q 749 819 749 819 l 753 819 q 754 818 754 818 l 757 818 q 835 829 801 818 q 904 867 874 842 l 761 746 q 636 568 688 683 q 592 364 592 468 q 597 293 592 325 q 614 224 604 251 l 531 156 l 531 929 l 519 967 m 999 910 l 999 118 l 990 118 q 988 117 989 117 l 982 117 q 978 115 979 115 l 972 115 q 810 183 869 115 q 815 188 813 185 q 818 190 817 190 q 825 199 822 197 l 842 215 q 919 310 876 250 q 964 425 956 360 l 964 835 q 967 843 965 838 q 969 851 969 849 q 978 871 975 860 q 981 878 981 874 q 987 887 982 882 q 993 899 992 892 l 996 901 q 999 910 997 907 m 1128 396 l 1128 393 q 1151 385 1143 388 q 1156 382 1154 382 q 1160 381 1158 382 q 1163 378 1163 379 q 1174 374 1175 374 l 1174 210 q 1033 121 1115 138 l 1031 374 q 1039 379 1035 375 q 1060 388 1035 379 q 1071 390 1063 388 q 1079 392 1075 390 l 1086 392 q 1094 392 1090 392 q 1101 396 1099 393 l 1128 396 m 496 915 l 496 138 l 492 138 q 485 135 489 136 q 477 134 482 135 q 469 133 472 133 l 467 133 q 464 132 465 132 q 446 129 450 129 l 431 129 q 290 192 349 129 l 396 285 q 425 353 417 324 q 436 431 436 390 l 436 764 q 458 840 443 804 l 475 878 q 496 915 488 903 m 401 835 l 410 832 l 401 824 q 333 736 368 790 q 299 638 306 693 l 299 256 q 286 226 292 236 q 267 201 271 208 q 212 289 232 242 q 185 389 192 336 l 185 399 q 183 407 183 404 l 183 425 q 185 458 183 447 q 264 682 189 564 q 401 835 315 763 m 939 843 l 939 840 q 937 838 939 840 q 934 833 935 835 q 931 830 933 832 q 928 825 929 828 q 917 811 919 814 q 824 643 835 692 l 824 313 q 824 307 824 311 q 822 300 822 303 q 819 286 819 289 q 817 274 817 278 q 814 260 814 263 q 808 240 811 247 l 804 224 l 793 213 q 789 210 790 210 l 786 207 q 757 268 765 249 q 731 342 739 310 q 718 422 718 390 q 939 843 715 647 m 1031 410 l 1031 568 q 1071 557 1057 561 q 1108 551 1090 551 q 1132 555 1115 551 q 1157 561 1149 558 q 1161 563 1160 561 l 1165 563 q 1174 568 1172 563 l 1174 404 q 1132 413 1146 410 l 1113 413 q 1104 414 1108 413 l 1085 414 q 1072 413 1079 413 q 1047 410 1058 410 l 1043 410 q 1039 408 1040 408 q 1031 410 1035 408 "},"X":{"ha":900,"x_min":19,"x_max":835,"o":"m 649 967 l 649 964 q 482 611 579 769 l 358 872 q 207 958 293 958 l 200 958 q 192 957 196 957 l 185 957 q 176 956 181 956 q 165 953 168 953 q 160 951 163 953 q 156 950 158 950 q 144 946 149 947 q 120 937 126 940 q 108 928 114 933 q 49 879 78 911 q 19 818 19 847 l 24 813 l 38 810 q 44 813 40 811 q 49 816 47 815 q 52 818 50 817 q 56 819 54 819 q 60 822 57 819 q 65 826 63 824 q 69 828 68 828 q 73 831 71 829 q 76 832 75 832 q 81 833 78 832 q 85 836 83 835 l 90 836 q 97 838 94 836 q 100 839 99 839 l 117 843 q 125 844 121 843 l 144 844 q 189 829 172 842 q 221 797 211 819 l 333 557 l 189 554 l 143 444 l 401 442 l 272 153 l 103 235 l 49 94 l 242 -17 l 419 385 l 563 78 q 575 58 571 65 q 624 6 594 28 q 661 -14 647 -10 q 665 -15 664 -14 l 669 -15 q 674 -17 672 -15 l 689 -17 l 818 118 l 794 140 l 782 124 l 775 117 q 772 115 774 117 q 767 113 769 114 l 765 113 l 764 111 l 758 111 l 757 110 l 751 110 q 745 112 747 111 q 743 114 743 113 q 740 114 742 114 q 718 135 724 125 q 715 138 715 135 l 715 139 q 714 143 714 139 l 568 447 l 724 450 l 769 554 l 511 557 l 611 789 l 772 729 l 835 850 q 649 967 713 906 "},"Y":{"ha":957,"x_min":0,"x_max":886,"o":"m 178 944 l 178 942 l 169 942 q 160 940 165 940 l 142 940 q 93 926 125 940 q 57 893 72 918 q 183 850 146 888 l 213 794 l 213 649 q 200 651 208 649 q 193 653 197 651 q 186 653 188 653 q 172 656 182 654 q 157 658 163 658 l 140 658 q 132 660 136 658 l 124 660 q 49 646 76 660 q 56 643 51 646 q 61 639 60 640 q 75 631 71 633 q 179 546 133 597 q 215 460 215 506 l 215 453 q 214 450 214 451 l 214 440 q 213 436 213 438 l 213 431 q 183 442 193 439 q 167 447 172 446 q 150 451 168 447 q 125 456 143 453 q 114 457 118 456 l 88 457 q 82 456 85 456 l 65 451 q 51 447 60 450 q 158 362 113 421 q 214 238 203 303 l 214 224 q 215 217 214 218 l 215 181 l 210 181 q 203 179 204 179 l 185 179 q 179 178 182 178 l 167 178 q 128 167 142 172 q 37 103 74 149 q 0 3 0 58 l 0 -29 q 26 -104 6 -68 q 83 -167 47 -140 q 142 -191 122 -185 q 172 -199 163 -197 q 201 -201 193 -201 l 214 -201 q 225 -200 218 -200 q 241 -199 232 -200 q 254 -196 250 -197 q 364 -156 304 -185 q 467 -101 382 -146 l 499 -85 q 563 -57 536 -65 q 568 -58 565 -57 q 572 -61 571 -60 l 575 -64 q 580 -65 578 -64 q 585 -69 582 -67 l 585 -82 q 583 -86 583 -85 q 581 -97 581 -94 q 581 -100 581 -99 q 578 -102 579 -101 q 576 -106 578 -103 q 573 -111 574 -110 q 570 -116 572 -112 q 567 -120 568 -119 q 565 -124 565 -121 l 565 -126 q 564 -128 564 -128 l 564 -135 q 563 -136 563 -136 l 563 -147 q 581 -181 571 -171 q 613 -200 597 -199 q 615 -201 614 -200 l 632 -201 q 672 -174 660 -192 q 683 -135 683 -157 l 683 -131 q 682 -125 682 -128 l 682 -117 q 665 -78 674 -92 q 640 -49 653 -57 q 618 -37 626 -40 q 597 -29 604 -35 q 553 -18 568 -21 q 511 -14 515 -14 q 383 -39 449 -14 q 253 -96 331 -60 q 249 -97 250 -96 q 249 -99 249 -97 q 246 -99 247 -99 q 238 -103 243 -101 q 176 -114 199 -114 q 167 -115 171 -114 l 158 -115 q 97 -102 128 -115 q 49 -57 65 -89 q 40 -33 40 -32 q 36 -14 36 -12 q 35 0 35 -4 q 79 96 35 56 q 175 146 117 131 l 549 146 q 792 261 697 163 q 853 353 847 338 q 874 444 868 413 q 886 546 886 519 l 886 583 q 851 754 886 665 q 710 896 811 858 q 651 908 660 908 q 639 910 643 908 l 608 910 q 601 908 603 908 q 506 883 549 901 q 374 801 439 856 q 178 944 340 929 m 600 410 l 600 407 q 619 403 606 406 q 632 400 628 400 l 644 396 q 682 374 664 389 q 700 342 700 358 l 700 340 l 699 339 l 699 333 l 697 332 l 697 328 q 613 210 667 258 q 479 161 558 161 l 472 161 q 469 163 469 161 l 460 163 q 457 164 457 163 l 454 164 q 450 167 451 164 l 450 358 q 457 372 454 368 q 463 379 460 375 q 468 385 467 383 q 492 394 483 392 q 506 397 501 396 q 521 400 510 397 q 534 401 524 400 q 561 407 544 403 q 574 410 565 407 l 600 410 m 425 794 l 425 167 l 374 167 l 374 751 l 425 794 m 706 606 l 706 603 q 714 558 713 571 q 718 515 717 531 l 718 493 q 717 483 717 489 l 717 474 q 715 465 715 472 q 709 426 711 433 q 706 410 707 418 q 703 390 706 401 q 686 399 694 397 q 668 407 675 406 q 633 421 656 413 q 624 424 631 422 q 615 425 618 425 q 597 428 608 425 q 563 431 572 431 l 550 431 q 536 429 544 429 q 508 424 514 426 q 479 415 494 422 q 453 404 454 404 l 453 589 q 576 551 518 551 q 599 552 592 551 q 622 557 606 553 q 665 574 638 561 q 706 606 694 593 m 496 821 l 496 818 l 500 818 q 506 819 504 818 l 518 819 q 522 821 521 819 l 525 821 q 681 718 615 821 q 689 694 681 719 q 691 687 690 690 q 692 683 692 683 q 694 682 693 682 q 694 679 694 681 q 697 667 696 674 q 700 658 699 660 l 700 643 q 697 640 699 642 q 696 632 696 638 q 694 629 696 632 q 692 625 693 626 q 647 599 664 607 q 594 581 610 585 q 572 578 578 578 q 568 578 571 578 q 564 576 565 576 l 540 576 q 490 592 518 576 q 450 635 463 608 l 450 789 q 452 794 451 792 q 456 801 453 797 q 463 810 458 806 q 479 815 467 814 q 496 821 492 817 "},"Z":{"ha":871,"x_min":19,"x_max":794,"o":"m 215 956 l 81 783 l 100 764 l 146 810 l 196 793 q 244 782 228 785 q 342 772 288 772 q 442 782 388 772 q 546 813 506 793 l 689 881 q 382 571 549 767 l 194 571 l 172 525 l 344 525 l 301 453 l 129 453 l 110 410 l 275 407 q 24 8 174 188 l 19 -11 l 24 -11 q 26 -10 25 -10 l 36 -10 q 39 -8 38 -8 l 43 -8 q 144 25 110 14 q 251 50 200 43 q 342 57 301 57 l 358 57 q 376 56 371 56 q 415 53 413 53 q 433 50 426 50 q 469 43 461 43 q 488 40 483 40 l 649 -17 l 794 153 q 790 160 790 157 l 785 165 q 772 178 772 178 l 721 129 l 594 167 q 586 168 590 167 l 578 168 q 569 169 574 168 l 561 169 q 546 171 550 169 l 532 171 q 518 172 522 171 l 506 172 q 429 167 463 172 q 354 154 406 165 q 342 151 346 151 l 329 147 q 304 143 308 143 l 135 67 q 308 226 232 149 q 465 407 394 315 l 663 407 l 681 453 l 496 450 q 501 458 501 456 q 504 463 501 460 q 509 469 507 467 q 512 472 511 471 q 515 476 513 474 q 517 480 517 479 q 517 482 517 481 q 520 486 518 483 q 524 492 522 489 q 527 496 526 494 q 530 501 528 497 q 532 504 532 504 q 546 525 540 515 l 708 525 l 724 571 l 568 568 q 775 944 638 724 l 592 893 l 583 893 q 574 892 579 892 l 557 892 q 547 890 553 890 l 539 890 q 513 887 519 888 q 488 886 506 886 l 461 886 q 449 888 453 886 q 424 890 432 888 q 417 892 421 890 q 411 892 413 892 q 401 894 408 893 q 389 896 393 896 l 385 896 q 382 897 383 896 q 379 897 381 897 q 371 901 375 897 l 229 956 l 215 956 "},"[":{"ha":510,"x_min":3,"x_max":447,"o":"m 6 1188 l 6 1185 q 12 1176 10 1181 q 15 1168 14 1172 q 26 1151 24 1157 l 49 1118 q 60 1102 57 1106 q 67 1093 64 1099 q 72 1085 71 1088 q 94 1021 83 1063 q 103 988 100 999 q 108 953 107 964 q 110 944 108 950 q 110 938 110 939 q 113 906 113 917 l 113 847 q 89 689 96 767 q 81 531 81 621 l 81 510 q 82 499 81 503 l 82 478 q 83 468 82 469 l 83 442 q 93 349 89 407 q 100 260 97 290 l 106 168 q 109 123 108 138 q 113 78 110 108 q 3 -164 101 -47 q 6 -164 4 -164 q 7 -162 6 -162 q 10 -161 8 -161 l 18 -161 q 43 -156 26 -160 q 68 -150 60 -153 q 118 -146 118 -146 q 165 -149 132 -146 q 215 -157 190 -156 q 218 -158 217 -157 l 221 -158 q 224 -160 222 -158 l 226 -160 q 235 -160 232 -160 q 240 -162 238 -161 q 244 -162 243 -162 q 264 -167 250 -164 l 285 -167 q 392 -117 354 -167 q 447 -6 431 -68 l 442 -6 q 439 -7 439 -6 l 436 -7 q 433 -8 433 -7 l 431 -8 q 421 -17 429 -8 q 414 -26 414 -17 q 410 -31 411 -29 l 399 -42 q 392 -51 397 -46 q 386 -56 388 -56 q 383 -60 385 -57 q 381 -63 382 -62 q 379 -67 379 -64 q 290 -50 319 -56 q 261 -49 281 -49 q 189 -58 222 -49 q 124 -92 156 -68 q 188 3 163 -36 q 238 100 213 42 l 242 131 q 244 162 244 151 q 246 178 244 172 l 246 193 q 247 208 246 203 l 247 899 q 202 1008 231 957 q 135 1099 174 1058 q 157 1090 160 1090 q 226 1068 194 1072 q 261 1072 250 1071 l 294 1076 q 364 1085 358 1085 q 393 1061 385 1069 q 419 1033 408 1049 q 421 1030 419 1032 q 425 1025 422 1028 l 426 1025 q 428 1024 428 1024 l 429 1024 q 432 1021 431 1022 q 435 1019 433 1019 q 439 1022 438 1019 l 447 1022 q 447 1028 447 1025 q 445 1032 446 1031 q 442 1041 444 1033 q 440 1050 440 1049 q 438 1058 439 1051 q 431 1075 433 1071 q 427 1085 429 1079 q 422 1094 425 1092 q 404 1131 411 1119 q 351 1169 381 1160 q 290 1182 317 1182 l 267 1182 q 254 1181 261 1181 l 243 1181 q 232 1179 239 1179 q 208 1175 211 1175 q 185 1171 192 1172 q 163 1167 178 1169 q 140 1163 149 1164 l 6 1188 "},"\\":{"ha":418,"x_min":19,"x_max":374,"o":"m 226 169 l 226 814 l 342 783 l 374 883 l 226 924 l 226 921 q 160 861 197 890 q 89 813 113 825 l 89 668 l 35 668 l 19 589 l 89 589 l 89 232 q 76 160 89 189 q 35 103 65 125 q 128 57 86 82 q 207 -8 164 35 l 221 -8 l 374 129 l 350 156 l 299 107 l 294 107 q 291 108 292 107 q 290 111 290 110 l 289 111 q 288 113 288 111 l 285 113 q 226 169 257 129 "},"]":{"ha":510,"x_min":11,"x_max":460,"o":"m 175 1190 l 167 1188 q 78 1149 117 1188 q 24 1065 39 1110 q 11 1025 17 1039 l 17 1025 q 26 1026 22 1025 q 31 1028 29 1028 q 34 1031 32 1029 q 38 1033 36 1033 l 38 1038 q 40 1043 38 1040 q 58 1074 44 1054 q 92 1088 72 1088 q 121 1085 111 1085 q 186 1075 164 1078 q 194 1075 189 1075 q 204 1074 200 1074 l 221 1074 q 296 1086 264 1074 q 315 1094 308 1090 q 333 1101 322 1099 q 251 985 278 1031 q 215 853 215 924 l 215 381 q 217 335 215 363 q 218 288 218 299 q 219 193 219 225 l 224 100 q 269 3 243 47 q 333 -81 310 -53 q 258 -51 281 -57 l 256 -51 q 253 -50 254 -50 l 246 -50 q 240 -49 243 -49 l 235 -49 q 168 -58 246 -49 q 153 -60 163 -58 q 133 -64 144 -61 q 100 -67 111 -67 q 60 -39 76 -53 q 29 -3 39 -15 l 17 -3 q 19 -17 17 -7 l 24 -31 q 71 -121 39 -81 q 156 -164 103 -161 q 197 -160 179 -162 q 208 -160 201 -160 q 219 -158 217 -158 q 240 -156 228 -157 q 290 -149 274 -151 q 317 -146 317 -146 l 342 -146 q 371 -147 361 -146 q 446 -161 421 -154 l 451 -161 q 460 -164 457 -161 q 371 -14 421 -94 q 367 0 369 -8 q 363 13 365 1 q 354 68 357 50 q 353 97 353 82 q 367 228 358 144 q 378 361 378 343 q 381 440 379 414 q 382 481 382 481 l 382 568 q 369 657 374 628 q 360 744 363 708 q 353 921 353 807 l 353 932 q 354 939 353 935 l 354 960 q 356 967 354 963 l 356 972 q 457 1171 371 1081 l 460 1185 q 444 1182 449 1182 l 428 1178 q 397 1174 394 1174 q 364 1169 364 1169 q 333 1168 353 1168 l 307 1168 q 295 1169 299 1168 q 288 1171 292 1169 q 281 1171 282 1171 q 244 1176 268 1172 q 207 1182 219 1181 q 190 1185 201 1182 q 182 1185 185 1185 q 175 1190 179 1186 "},"^":{"ha":807,"x_min":101,"x_max":710,"o":"m 101 451 l 206 451 l 403 799 l 603 451 l 710 451 l 436 939 l 381 939 l 101 451 "},"_":{"ha":929,"x_min":-29,"x_max":918,"o":"m 17 -57 l -29 -126 l 867 -126 l 918 -57 l 17 -57 "},"`":{"ha":481,"x_min":72,"x_max":292,"o":"m 254 725 l 292 725 l 231 978 l 72 978 l 254 725 "},"a":{"ha":567,"x_min":8,"x_max":517,"o":"m 244 689 l 244 686 q 188 646 219 661 q 122 625 151 629 q 119 625 121 625 q 114 623 117 624 q 107 622 111 622 l 88 622 q 85 624 85 622 l 76 624 q 72 628 74 624 l 140 433 q 22 250 53 363 q 11 207 11 208 l 11 204 q 10 200 10 201 l 10 186 q 8 182 8 183 l 8 175 q 40 72 8 121 q 121 -6 71 22 l 304 153 l 304 144 q 306 140 304 142 l 306 133 q 307 131 306 131 l 307 121 q 312 94 307 117 q 321 63 317 72 q 347 14 326 42 q 388 -6 364 -6 l 396 -6 l 517 100 l 496 118 l 471 100 q 469 101 469 100 l 468 101 q 465 104 465 101 q 451 115 453 114 q 442 129 444 125 l 442 132 q 440 136 440 135 l 440 140 q 438 144 439 143 q 436 151 438 146 l 439 543 q 462 597 454 579 q 475 622 469 614 q 490 649 485 639 l 485 646 l 481 646 q 476 644 478 644 l 472 644 q 468 643 469 643 q 448 632 460 642 q 433 618 436 622 l 431 615 l 431 617 l 244 689 m 169 407 l 307 328 l 307 192 l 210 106 l 194 97 q 129 246 140 172 q 126 265 126 254 l 126 285 q 135 346 126 318 q 169 407 144 374 m 115 597 l 132 597 l 304 528 l 304 367 l 169 444 l 115 597 "},"b":{"ha":601,"x_min":3,"x_max":503,"o":"m 258 924 l 258 921 q 190 898 222 918 q 129 847 158 878 q 121 854 125 851 q 115 857 117 857 q 111 860 114 857 q 79 879 94 871 q 44 892 71 885 q 42 893 42 892 l 38 893 q 32 896 33 893 l 24 893 q 61 846 46 875 q 81 789 81 810 l 81 665 l 3 665 l 3 594 l 78 594 l 78 186 l 43 118 q 235 46 146 92 l 296 -6 q 304 0 300 -4 q 310 1 308 0 q 314 4 313 3 q 404 60 351 31 q 503 106 469 92 l 503 543 q 465 624 493 586 q 404 692 442 657 l 215 536 l 215 821 q 285 924 225 868 l 258 924 m 315 571 l 367 525 l 367 110 q 287 146 335 121 q 213 192 239 171 l 213 482 l 315 571 "},"c":{"ha":457,"x_min":35,"x_max":404,"o":"m 244 692 l 390 589 l 328 496 q 204 565 264 517 l 204 169 q 260 133 226 147 q 283 120 269 128 q 315 103 296 113 l 385 156 q 388 151 386 154 q 392 146 389 149 l 396 142 q 404 126 396 135 l 229 -6 q 35 89 119 72 q 72 181 72 132 l 72 576 q 142 613 100 583 q 154 623 147 617 q 172 636 161 629 l 206 669 q 220 682 211 674 q 238 689 229 690 l 244 689 l 244 692 "},"d":{"ha":567,"x_min":11,"x_max":490,"o":"m 14 896 l 11 764 l 181 625 l 57 574 l 57 192 q 17 103 57 138 l 167 54 l 272 -11 q 279 -6 275 -10 q 284 -1 283 -3 q 288 0 285 0 q 378 57 347 38 q 476 103 443 89 l 476 608 l 490 654 q 460 635 472 646 q 444 621 449 625 q 433 608 436 610 l 14 896 m 232 592 l 342 500 l 342 113 l 189 175 l 189 565 l 232 592 "},"e":{"ha":481,"x_min":8,"x_max":422,"o":"m 242 692 l 242 689 q 153 622 194 650 q 54 571 103 589 l 54 183 q 8 75 54 121 q 35 69 29 72 q 49 65 42 67 q 62 63 56 64 q 72 61 68 61 l 85 57 q 110 48 100 54 q 125 40 121 42 q 132 35 129 38 q 136 31 135 32 q 144 24 142 25 q 177 2 174 3 q 193 -2 181 1 q 213 -6 206 -6 l 218 -6 l 404 140 l 385 167 l 299 103 l 183 158 l 183 296 l 422 506 l 242 692 m 183 568 l 304 442 q 281 420 294 432 q 254 401 267 408 q 246 394 251 399 q 240 390 240 390 q 236 387 239 389 q 232 384 233 385 q 228 381 231 383 q 224 378 226 379 l 203 361 q 183 350 192 351 l 183 568 "},"f":{"ha":418,"x_min":17,"x_max":374,"o":"m 229 924 l 92 813 l 92 665 l 32 663 l 17 589 l 92 585 l 92 207 q 38 103 92 147 q 215 -11 136 68 l 374 126 q 367 136 371 133 q 363 140 363 139 q 360 142 363 140 q 356 143 358 143 q 354 144 354 143 l 354 146 q 353 149 353 147 l 299 103 q 265 119 281 110 q 252 132 261 124 q 240 144 243 140 q 233 155 236 147 q 228 165 231 163 q 224 189 224 186 l 224 589 l 313 589 l 331 665 l 224 665 l 224 804 l 339 781 l 371 889 l 229 924 "},"g":{"ha":660,"x_min":51,"x_max":597,"o":"m 269 692 l 269 689 q 63 594 185 613 l 63 106 l 199 8 l 51 -172 l 54 -199 l 63 -199 q 71 -197 69 -197 l 79 -197 q 86 -196 83 -196 q 112 -190 104 -193 q 124 -187 119 -187 q 147 -181 144 -181 q 161 -176 156 -178 q 189 -172 190 -172 q 229 -167 228 -167 l 242 -167 q 319 -174 264 -167 q 344 -178 338 -176 q 368 -185 360 -182 q 393 -192 382 -187 q 406 -196 397 -193 q 417 -199 414 -199 l 554 -121 l 558 -117 q 564 -112 561 -114 l 574 -103 q 578 -96 576 -100 q 581 -90 579 -92 q 584 -81 582 -87 q 586 -72 586 -74 q 588 -68 586 -69 l 588 -62 q 589 -58 588 -60 l 589 -51 q 588 -49 588 -50 l 588 -43 q 585 -37 585 -40 l 585 -32 l 514 72 q 489 126 494 110 q 485 132 486 129 q 485 136 485 135 q 482 149 482 144 l 482 514 l 597 514 l 597 660 l 496 589 l 482 589 l 269 692 m 350 124 l 350 121 q 414 0 374 61 q 500 -106 449 -51 l 496 -118 q 275 -67 379 -67 l 263 -67 q 236 -69 244 -67 q 203 -74 219 -69 l 186 -78 l 350 124 m 194 579 l 350 522 l 350 201 q 275 103 331 144 l 194 158 l 194 579 "},"h":{"ha":601,"x_min":8,"x_max":503,"o":"m 258 929 l 258 926 q 129 840 186 913 l 124 846 q 122 850 124 847 q 119 853 121 853 q 87 879 110 867 q 51 896 64 892 q 46 897 47 896 l 40 897 q 29 901 33 897 l 19 899 q 86 778 69 858 l 86 665 l 8 665 l 8 592 l 81 589 l 81 140 l 38 89 l 146 -6 l 256 89 l 213 140 l 213 490 l 318 576 l 371 528 l 371 67 q 132 -137 325 -74 l 124 -158 q 126 -160 125 -158 l 128 -160 q 131 -161 129 -160 l 132 -161 q 141 -165 139 -164 q 144 -167 143 -165 l 149 -167 q 372 -74 268 -142 q 503 118 476 -7 l 503 546 q 468 626 492 590 q 404 692 446 658 l 215 533 l 215 778 q 236 861 222 829 q 290 929 250 893 l 258 929 "},"i":{"ha":332,"x_min":38,"x_max":285,"o":"m 140 683 l 38 597 l 69 542 l 69 100 q 71 83 69 89 q 106 14 74 46 q 161 -8 128 -8 l 285 97 l 264 118 l 232 92 q 208 113 214 100 q 201 149 201 126 l 201 539 l 242 592 l 140 683 m 186 907 l 158 757 l 269 907 l 186 907 "},"j":{"ha":361,"x_min":17,"x_max":310,"o":"m 169 686 l 24 571 l 40 554 l 83 579 l 132 525 q 85 328 90 419 q 83 307 83 318 l 83 276 q 85 275 83 275 q 85 272 85 274 l 85 253 q 86 247 85 249 l 86 242 q 96 181 86 249 l 96 169 q 97 165 96 167 q 99 163 97 164 q 99 160 99 161 l 103 131 q 106 89 103 117 q 110 46 110 61 q 90 -61 110 -7 q 17 -156 71 -115 l 17 -157 l 18 -158 l 18 -161 l 19 -162 l 19 -164 l 22 -167 l 24 -167 q 27 -169 25 -168 q 31 -171 29 -171 q 33 -172 32 -171 l 38 -172 q 51 -169 42 -172 q 63 -164 61 -167 q 226 110 226 -67 l 226 124 q 225 139 225 133 q 222 171 222 169 q 219 183 219 179 l 219 190 q 218 199 218 196 l 215 356 q 296 557 232 464 l 169 686 m 218 910 l 189 746 l 310 910 l 218 910 "},"k":{"ha":631,"x_min":11,"x_max":579,"o":"m 256 929 l 256 926 q 188 901 218 924 q 135 853 164 888 l 129 858 q 78 891 100 881 q 24 901 56 901 q 83 767 69 843 l 83 668 l 11 668 l 11 589 l 83 589 l 83 129 q 78 117 81 119 q 75 110 76 115 q 71 103 74 106 q 65 88 68 93 q 54 75 61 82 q 96 58 83 64 q 136 39 122 46 q 213 -6 169 22 l 376 129 q 431 0 386 74 q 443 -3 435 0 q 457 -6 451 -6 l 579 100 l 563 118 l 536 106 l 519 118 l 519 126 q 518 133 518 131 l 518 142 q 517 150 517 149 q 479 296 507 232 q 390 422 449 367 l 522 546 l 401 692 l 390 692 l 221 514 l 221 801 q 288 929 221 879 l 256 929 m 293 318 l 293 315 q 374 167 361 247 l 296 97 l 218 135 l 218 244 l 293 318 m 324 568 l 404 476 l 221 296 l 221 447 l 253 506 l 324 568 "},"l":{"ha":389,"x_min":24,"x_max":336,"o":"m 247 929 l 247 926 q 185 896 211 918 q 135 847 164 881 q 132 850 132 847 q 125 857 125 850 l 121 861 q 91 884 103 878 q 74 892 79 890 q 59 899 69 894 q 42 903 49 903 q 32 907 36 903 l 24 904 q 83 813 68 868 l 83 201 q 29 107 83 142 q 124 57 79 88 q 204 -11 163 31 l 336 106 l 315 129 l 290 110 l 215 167 l 215 783 q 236 863 222 825 q 288 929 249 894 l 247 929 "},"m":{"ha":929,"x_min":0,"x_max":869,"o":"m 126 692 l 0 574 l 14 554 l 51 574 l 78 542 l 81 132 l 38 86 l 146 -11 l 261 83 q 258 87 258 86 q 254 92 257 88 q 249 99 251 97 q 229 121 240 107 q 213 149 218 140 l 213 476 l 307 568 l 314 568 q 319 567 318 567 q 332 563 328 564 q 339 557 336 561 q 343 550 342 553 q 351 536 349 542 q 364 503 363 514 q 365 497 364 499 l 365 490 q 367 485 365 486 l 367 143 q 321 86 351 97 l 422 0 l 439 -3 l 546 78 l 549 89 l 503 140 l 503 482 l 592 568 q 654 496 638 547 l 654 138 q 678 44 654 94 q 754 -6 697 4 l 869 106 l 853 126 l 826 107 q 822 108 825 107 q 811 117 818 110 l 807 121 q 801 131 806 124 q 796 143 796 139 q 792 153 792 156 q 789 167 789 161 l 789 528 q 843 628 803 575 l 824 649 l 764 589 l 668 689 l 506 528 q 472 610 494 576 q 417 678 458 639 q 390 689 400 686 l 218 525 l 218 532 q 217 533 217 533 q 126 692 204 631 "},"n":{"ha":631,"x_min":11,"x_max":585,"o":"m 124 692 l 11 576 l 24 557 l 54 568 q 63 560 54 564 q 76 540 72 547 q 83 522 83 529 l 83 135 l 43 92 l 146 -3 q 256 89 190 18 q 252 92 253 92 q 249 98 251 93 q 243 104 246 103 q 226 128 235 113 q 213 156 217 143 l 213 490 l 299 574 l 313 571 q 338 554 326 568 q 358 529 350 546 q 367 513 364 522 q 369 510 368 513 q 371 505 371 507 q 374 503 371 503 l 374 83 q 406 28 382 60 q 457 -6 426 4 l 585 103 l 563 126 l 533 103 q 524 111 529 104 q 517 119 518 118 q 513 124 515 121 q 508 129 510 128 q 505 139 507 136 q 501 149 503 142 q 500 156 500 156 l 500 528 q 551 617 514 579 l 554 619 q 557 625 556 621 l 539 643 l 482 594 l 388 689 l 215 533 q 188 619 214 581 q 124 692 161 658 "},"o":{"ha":567,"x_min":17,"x_max":476,"o":"m 250 692 l 250 689 q 158 617 210 649 q 54 576 107 586 l 54 194 l 46 149 l 17 106 l 89 86 l 267 -6 l 476 106 l 476 585 l 431 597 q 339 634 390 608 q 250 692 288 660 m 189 568 l 342 503 l 342 103 l 189 169 l 189 568 "},"p":{"ha":601,"x_min":3,"x_max":506,"o":"m 121 692 l 3 574 l 19 557 l 57 579 q 63 574 60 578 q 67 569 65 571 q 72 563 68 567 q 75 556 75 558 q 88 529 81 550 q 89 519 88 525 q 92 511 90 513 l 92 186 q 57 146 78 163 l 53 146 q 49 144 50 144 l 44 144 q 40 143 42 143 q 35 142 38 143 q 31 140 33 140 l 21 140 q 19 142 19 142 l 14 142 q 11 146 11 142 l 11 100 l 26 97 l 36 97 q 46 96 38 96 q 68 93 60 93 l 71 93 l 71 92 l 78 92 q 83 90 82 90 q 94 92 90 90 l 94 -17 q 75 -94 94 -50 q 29 -161 58 -132 l 35 -161 q 133 -112 79 -161 q 140 -106 133 -106 q 188 -150 179 -144 q 242 -186 204 -167 l 250 -186 q 254 -187 253 -186 l 267 -187 q 271 -189 269 -187 l 293 -189 q 218 -17 218 -122 q 219 0 218 -3 q 224 24 219 3 l 224 29 q 225 33 224 32 l 225 38 q 226 42 225 40 l 226 49 l 333 -3 q 506 135 406 69 l 506 476 q 465 599 506 538 q 374 692 429 654 l 224 539 q 189 635 219 586 q 186 639 186 638 q 185 642 186 640 q 181 647 183 644 q 178 651 178 649 q 176 656 178 653 q 172 658 174 658 q 165 666 165 665 q 162 669 164 667 q 158 673 160 672 q 154 676 157 674 q 150 678 151 678 q 147 681 149 679 q 142 683 144 683 q 138 685 139 683 q 135 688 136 686 q 132 688 133 688 q 124 692 128 688 l 121 692 m 304 568 l 304 565 q 344 532 325 556 q 374 490 358 511 l 374 124 l 221 172 l 221 476 q 281 546 240 506 q 304 568 299 560 "},"q":{"ha":567,"x_min":49,"x_max":528,"o":"m 244 692 l 244 689 q 156 618 204 644 q 51 574 94 585 l 49 118 q 95 40 65 75 q 164 -11 125 6 l 331 129 l 331 -94 q 326 -104 328 -97 q 324 -108 325 -106 q 320 -118 324 -111 q 314 -128 317 -125 q 299 -147 304 -140 q 264 -178 281 -168 q 267 -179 265 -178 l 271 -179 q 275 -181 274 -179 l 300 -181 q 306 -179 304 -179 l 313 -179 q 318 -178 317 -178 q 372 -151 344 -171 q 417 -106 400 -132 l 424 -112 q 472 -150 442 -131 q 528 -167 499 -167 q 485 -107 504 -143 q 468 -37 468 -76 l 468 506 l 503 546 q 244 692 324 613 m 181 557 l 333 482 l 333 172 l 250 92 q 181 172 181 113 l 181 557 "},"r":{"ha":481,"x_min":3,"x_max":436,"o":"m 118 692 l 3 582 l 14 563 l 46 579 q 67 560 58 572 q 80 533 79 538 q 82 526 81 528 l 82 521 q 83 515 82 517 l 83 210 q 67 153 83 176 q 35 107 60 126 q 192 -6 121 71 l 353 132 l 328 156 l 278 113 q 210 167 238 131 l 210 528 l 264 576 l 344 490 l 436 574 l 433 585 l 344 689 l 210 568 q 210 572 210 571 q 208 576 208 575 q 205 585 207 578 q 202 592 203 592 q 199 597 201 593 q 197 604 197 601 q 196 610 197 607 q 193 613 194 613 q 190 621 190 621 q 186 629 189 628 q 178 640 182 638 q 174 649 174 653 q 172 653 174 650 q 169 657 169 656 q 165 660 168 658 q 161 664 163 663 q 158 668 160 665 q 151 673 156 671 q 139 683 147 675 q 135 685 136 683 q 132 688 133 686 q 129 688 131 688 q 121 692 125 688 l 118 692 "},"s":{"ha":601,"x_min":24,"x_max":525,"o":"m 471 781 l 471 778 l 469 778 l 468 776 q 456 765 460 771 q 448 753 449 756 q 447 749 447 750 l 447 743 q 449 740 447 742 q 451 738 450 738 l 451 735 q 453 733 451 733 l 453 732 l 457 728 q 462 724 457 726 q 468 715 467 722 q 476 706 476 708 q 485 700 483 703 l 485 674 q 472 648 479 651 q 457 638 465 644 q 424 626 436 631 q 407 625 419 625 q 398 626 400 625 q 383 631 396 626 q 379 632 381 631 l 375 632 q 367 638 372 632 l 224 689 q 219 685 219 685 q 218 683 219 685 q 215 679 217 681 l 207 671 q 63 571 129 593 l 63 333 l 189 256 l 24 14 l 43 0 q 78 19 67 15 q 142 36 124 33 q 154 38 150 36 l 179 38 q 192 36 183 36 q 197 36 193 36 q 204 35 201 35 q 215 32 213 32 q 265 17 243 25 q 313 -6 297 3 q 316 -4 314 -6 q 319 -1 318 -3 q 323 1 321 0 q 328 3 325 1 q 332 6 331 6 q 410 58 363 31 q 496 100 436 75 l 496 367 l 367 447 l 517 663 q 518 665 517 664 l 518 668 q 519 671 518 669 l 519 675 l 524 692 q 525 701 524 697 l 525 724 q 524 728 524 726 q 511 761 522 739 q 485 781 506 772 l 471 781 m 288 336 l 376 278 l 376 97 q 319 125 349 114 q 290 135 300 132 q 261 140 269 139 q 249 142 253 140 l 238 142 q 228 143 229 142 l 207 143 q 195 142 201 142 q 169 139 189 142 l 165 139 q 161 138 163 138 q 153 140 156 138 l 288 336 m 186 404 l 186 563 q 260 538 235 544 q 333 528 338 528 l 346 528 q 353 529 351 528 l 361 529 q 368 531 364 529 l 375 531 q 388 536 382 531 l 264 358 l 186 404 "},"t":{"ha":418,"x_min":32,"x_max":361,"o":"m 218 869 l 40 619 l 32 594 l 83 589 l 83 204 q 69 150 83 193 q 43 100 61 125 q 128 51 82 83 q 201 -11 156 32 l 350 118 l 331 140 l 281 103 l 215 158 l 215 594 l 361 594 l 361 663 l 218 663 l 218 869 "},"u":{"ha":631,"x_min":11,"x_max":579,"o":"m 138 692 l 11 576 l 26 560 l 49 574 l 75 546 l 75 126 q 108 58 83 89 q 165 0 132 26 l 168 0 l 169 -1 q 173 -4 171 -3 q 175 -6 175 -6 l 364 153 l 364 151 q 363 149 363 150 l 363 143 q 361 140 361 142 l 361 138 q 431 -3 361 44 q 439 -7 438 -6 q 449 -10 447 -10 q 453 -11 451 -10 l 460 -11 l 579 103 l 560 121 l 531 100 q 528 104 528 103 q 521 111 521 104 q 518 114 518 111 q 507 128 511 124 q 500 149 500 149 l 500 542 l 539 589 l 533 603 l 433 692 l 324 594 l 364 546 l 364 199 l 267 110 l 264 110 l 258 103 l 256 103 q 253 106 253 103 l 250 106 l 250 107 q 248 108 249 108 q 245 110 247 108 q 243 113 243 111 l 242 113 q 216 143 225 126 q 207 181 207 160 l 210 543 q 222 556 222 556 q 250 603 240 574 l 149 692 l 138 692 "},"v":{"ha":601,"x_min":24,"x_max":503,"o":"m 164 869 l 164 867 q 157 865 158 867 q 147 861 156 864 q 129 853 138 858 q 123 849 126 850 q 117 847 119 849 q 111 843 114 844 q 103 838 108 842 q 94 832 97 835 q 47 779 57 797 q 25 719 29 746 l 25 713 q 24 706 24 707 l 24 694 q 25 672 24 678 q 31 651 28 658 q 49 607 42 621 q 78 568 68 582 l 78 221 q 61 161 78 192 q 26 113 53 139 q 281 -11 168 92 l 286 -6 q 294 0 290 -4 q 331 25 315 13 l 351 38 q 371 50 364 46 q 392 57 378 54 q 398 60 394 58 q 404 61 401 61 q 415 64 407 61 q 418 65 417 64 l 421 65 q 425 67 424 65 q 429 69 426 68 q 440 72 432 69 q 450 75 447 75 q 471 83 457 81 q 503 115 492 90 l 503 586 q 499 590 500 589 q 497 594 497 590 q 492 601 496 597 q 404 692 435 663 l 213 533 q 140 708 200 638 q 132 719 139 713 q 122 746 122 749 q 121 758 121 750 l 121 764 q 122 769 121 768 q 126 791 122 782 q 140 813 131 800 q 175 853 163 840 l 164 869 m 318 571 l 318 568 l 319 568 l 319 567 l 322 567 q 349 542 336 560 q 364 504 361 524 q 365 500 364 501 l 365 496 q 367 492 365 493 l 367 103 l 213 172 l 213 488 l 318 571 "},"w":{"ha":871,"x_min":17,"x_max":764,"o":"m 161 867 l 153 864 l 150 864 q 147 863 149 863 l 142 863 q 139 861 140 861 l 135 861 q 78 818 100 840 q 32 764 56 796 q 30 756 32 761 q 26 747 28 750 q 18 714 18 714 q 17 697 17 706 q 69 557 17 644 l 69 213 q 58 154 69 181 q 19 107 46 128 q 100 88 58 107 q 174 46 106 85 q 201 25 190 35 l 222 8 q 231 3 226 7 q 242 -6 236 0 q 371 51 299 51 q 413 47 396 51 q 457 36 442 40 q 510 15 489 26 l 560 -6 q 596 18 592 14 q 636 42 613 28 q 717 89 688 72 q 728 94 721 90 q 741 100 736 99 q 753 107 746 101 q 764 115 757 108 l 764 539 q 736 611 754 585 q 694 676 715 647 q 690 679 692 676 q 688 683 689 682 q 686 685 686 683 l 682 685 q 676 688 679 685 l 668 688 q 663 692 664 688 l 493 533 l 482 531 q 385 694 467 622 l 207 533 q 174 646 204 594 q 110 746 149 697 l 110 753 q 111 761 110 760 l 111 769 q 113 774 111 771 q 113 776 113 775 q 115 785 113 776 q 119 792 115 789 q 129 803 122 796 q 139 814 136 811 q 161 838 158 833 l 161 867 m 585 563 l 585 560 q 619 544 608 560 q 638 511 636 526 l 638 100 l 485 158 l 485 468 l 585 563 m 301 571 l 301 568 q 321 556 310 567 q 331 547 328 551 q 339 539 339 539 q 346 521 344 528 q 347 508 347 514 l 347 110 l 215 172 l 204 183 l 204 479 l 301 571 "},"x":{"ha":660,"x_min":24,"x_max":597,"o":"m 153 692 l 24 574 l 38 557 l 78 579 q 121 551 103 568 q 158 517 131 544 l 258 315 l 186 135 l 81 181 q 61 142 67 156 q 46 103 47 107 q 38 67 38 61 l 164 -11 l 281 269 l 390 67 q 428 24 415 38 q 471 -11 465 -7 l 597 103 l 576 121 l 546 97 q 510 123 524 110 q 485 161 497 136 l 358 414 l 414 549 l 522 506 l 563 611 l 431 692 l 333 463 q 297 538 311 515 q 253 608 269 585 q 240 624 251 613 q 238 629 240 626 q 233 633 235 632 q 224 644 228 639 q 217 651 221 650 q 207 660 208 660 q 199 668 203 667 q 191 676 193 675 q 186 678 189 676 q 180 682 183 681 q 173 685 176 683 q 164 689 169 688 q 156 692 158 690 l 153 692 "},"y":{"ha":601,"x_min":3,"x_max":519,"o":"m 146 689 l 3 554 l 26 531 q 39 542 31 535 q 50 551 47 549 q 78 568 68 564 q 86 564 85 567 q 94 560 93 563 q 96 558 94 558 l 96 556 q 99 551 96 553 q 106 531 103 539 l 106 103 q 93 61 104 86 q 69 21 82 36 q 15 -62 29 -19 q 8 -103 8 -85 q 83 -189 8 -171 q 142 -197 121 -196 q 149 -199 144 -197 l 178 -199 q 186 -197 185 -197 l 203 -197 q 264 -182 221 -197 q 310 -149 293 -172 l 310 -146 q 311 -144 310 -144 l 311 -137 q 313 -136 311 -136 l 313 -132 q 311 -129 311 -131 l 311 -128 q 310 -125 310 -126 q 290 -103 299 -108 q 258 -117 275 -103 q 235 -144 242 -131 q 233 -146 233 -144 l 232 -146 l 232 -149 q 213 -162 221 -160 q 186 -168 204 -165 q 182 -169 183 -168 l 161 -169 q 153 -168 160 -168 l 146 -168 q 138 -167 142 -167 q 63 -137 108 -164 q 54 -125 61 -132 q 44 -97 44 -96 q 43 -86 43 -93 l 43 -78 q 63 -37 53 -49 q 92 -8 72 -25 q 385 189 264 85 q 508 368 468 261 q 513 392 510 376 q 518 415 517 407 l 518 429 q 519 438 518 433 l 519 460 q 518 475 518 464 q 513 508 515 503 q 500 556 504 540 q 436 689 478 619 l 425 689 l 247 528 l 243 544 q 239 565 240 556 q 236 578 238 574 l 232 590 q 228 604 229 599 l 224 617 q 219 624 222 619 q 214 628 215 628 q 213 632 213 629 q 202 647 207 640 q 193 656 197 653 q 174 677 179 672 q 158 684 168 682 q 146 689 149 686 m 333 557 l 333 554 q 390 439 381 507 q 392 429 390 431 l 392 419 q 393 411 392 413 l 393 390 q 392 378 392 385 q 389 354 389 364 q 338 226 379 293 q 244 124 296 160 l 244 476 l 333 557 "},"z":{"ha":481,"x_min":24,"x_max":393,"o":"m 201 692 l 24 560 l 43 542 l 118 589 l 242 476 l 35 269 q 38 271 36 269 l 40 271 q 43 272 42 271 l 46 272 q 52 275 49 274 q 58 276 56 276 q 68 278 61 276 q 83 283 75 281 q 97 285 92 285 q 106 286 101 285 l 114 286 q 124 288 119 286 l 139 288 q 144 286 143 286 l 151 286 q 158 285 156 285 q 193 274 188 278 q 224 253 215 264 q 227 249 225 253 q 229 247 229 246 q 233 237 229 247 q 237 225 236 226 q 240 215 238 224 q 246 197 246 203 q 247 186 246 190 l 247 178 q 135 -3 247 85 q 124 -12 126 -10 q 117 -17 121 -14 q 111 -22 114 -21 q 101 -29 108 -24 q 89 -37 93 -35 q 83 -51 86 -44 q 74 -68 79 -57 q 68 -85 69 -79 q 68 -89 68 -87 q 67 -93 67 -92 l 67 -108 q 68 -117 67 -111 q 72 -132 69 -124 q 76 -142 75 -140 q 81 -147 78 -144 l 83 -150 q 90 -158 88 -157 l 100 -168 q 107 -173 103 -169 q 114 -176 111 -176 q 142 -190 129 -185 q 158 -196 154 -196 q 165 -197 163 -196 q 169 -197 168 -197 q 178 -199 175 -199 q 215 -161 215 -199 l 210 -156 q 201 -149 204 -150 q 197 -146 199 -147 l 186 -146 q 181 -149 183 -146 l 178 -149 q 172 -149 175 -149 q 168 -151 169 -150 l 161 -151 q 154 -153 156 -151 l 143 -153 q 136 -151 138 -151 q 133 -151 135 -151 q 129 -150 131 -150 q 126 -149 128 -150 q 121 -146 124 -147 l 114 -139 q 112 -135 114 -137 q 109 -132 110 -133 q 106 -128 108 -131 q 103 -124 104 -125 q 101 -120 103 -122 q 99 -115 100 -118 q 97 -107 97 -112 l 97 -100 q 100 -86 97 -97 q 114 -58 108 -69 q 122 -49 121 -51 q 124 -46 122 -46 l 124 -44 l 125 -44 q 128 -42 126 -43 q 135 -38 129 -42 q 143 -32 140 -35 q 155 -28 156 -28 q 158 -26 154 -28 q 163 -22 161 -24 q 167 -19 164 -19 q 172 -18 169 -19 q 175 -15 175 -17 q 189 -8 185 -11 q 314 74 253 25 q 390 201 371 118 l 390 207 q 392 211 390 210 l 392 219 q 393 224 392 222 l 393 226 q 347 329 393 285 q 240 385 300 374 q 233 386 235 385 q 228 389 231 388 q 222 389 225 389 q 204 393 210 389 l 390 574 l 358 571 q 271 620 314 586 q 201 692 228 654 "},"{":{"ha":539,"x_min":8,"x_max":476,"o":"m 321 1188 l 321 1185 q 246 1176 293 1183 q 208 1169 221 1172 q 169 1163 183 1164 l 121 1133 q 111 1110 115 1118 l 108 1107 q 106 1102 107 1104 q 104 1097 104 1100 l 104 1094 q 101 1090 103 1092 q 100 1085 100 1088 q 124 1021 118 1046 q 131 989 128 1008 l 135 956 q 136 942 135 946 l 136 926 q 138 913 136 917 l 138 899 q 136 869 138 879 q 133 824 136 854 q 131 778 131 793 l 131 775 q 129 771 129 772 l 129 764 q 126 735 129 754 q 124 710 124 715 q 121 660 121 674 l 86 582 l 8 517 l 81 482 l 126 385 q 129 331 126 364 q 135 279 135 289 q 136 267 135 269 l 136 256 q 139 233 136 247 q 142 186 139 233 q 143 163 143 163 l 143 126 q 142 113 142 121 l 142 100 q 140 86 140 90 q 121 -15 138 46 q 116 -35 117 -28 q 113 -58 115 -42 q 108 -83 108 -83 q 106 -92 106 -92 q 103 -100 103 -100 q 124 -121 117 -114 q 143 -146 138 -139 q 155 -149 147 -147 q 165 -150 163 -150 q 190 -153 178 -150 q 240 -158 224 -157 q 254 -160 251 -160 l 269 -160 q 285 -161 279 -160 l 307 -161 q 317 -160 311 -160 l 349 -160 q 357 -158 356 -158 l 374 -158 q 468 -35 438 -126 q 472 -24 468 -35 q 476 -6 475 -12 l 469 -6 q 464 -8 467 -6 l 458 -8 q 453 -12 456 -8 q 446 -22 451 -15 q 439 -31 440 -28 q 435 -36 438 -33 q 431 -40 432 -39 q 427 -45 429 -42 q 422 -49 425 -49 l 422 -50 q 420 -51 421 -51 q 419 -53 419 -51 l 418 -53 q 414 -56 415 -56 q 411 -60 413 -57 q 408 -63 410 -62 q 407 -67 407 -64 q 392 -62 397 -64 l 375 -58 q 360 -56 364 -56 q 343 -53 349 -53 q 316 -49 324 -50 q 290 -49 308 -49 l 274 -49 q 153 -92 210 -49 q 222 -1 201 -37 q 269 103 253 40 l 269 358 q 254 417 269 374 q 226 476 246 440 l 167 525 l 226 574 q 269 675 254 617 l 269 896 q 164 1099 250 1004 q 186 1090 189 1090 q 256 1068 224 1072 q 290 1072 279 1071 l 324 1076 q 393 1085 388 1085 q 422 1061 415 1069 q 447 1033 435 1051 q 449 1030 447 1032 q 453 1025 450 1028 l 454 1025 q 456 1024 456 1024 l 458 1024 q 461 1021 460 1022 q 464 1019 463 1019 q 468 1022 467 1019 l 476 1022 q 476 1028 476 1025 q 474 1032 475 1031 q 472 1041 474 1033 q 469 1050 469 1049 q 468 1055 469 1051 q 465 1058 467 1058 q 453 1093 454 1089 q 448 1103 451 1097 q 443 1113 444 1110 q 433 1131 436 1125 q 381 1165 406 1157 q 321 1188 329 1185 "},"|":{"ha":929,"x_min":374,"x_max":493,"o":"m 374 944 l 374 -11 l 493 -11 l 493 944 l 374 944 "},"}":{"ha":567,"x_min":26,"x_max":490,"o":"m 181 1188 l 172 1185 q 86 1146 125 1185 q 38 1063 53 1113 q 31 1044 36 1058 q 26 1025 26 1031 l 32 1019 l 35 1019 l 36 1021 l 39 1021 l 40 1022 l 42 1022 l 43 1024 l 44 1024 q 47 1025 46 1024 l 49 1025 q 51 1029 49 1026 q 54 1033 53 1032 q 79 1061 65 1051 q 110 1085 89 1071 q 144 1081 133 1082 l 178 1076 q 247 1068 224 1071 q 254 1069 251 1068 q 260 1071 257 1069 q 263 1071 261 1071 q 278 1076 272 1075 q 286 1078 279 1076 q 296 1082 293 1079 q 315 1090 304 1088 q 326 1094 314 1090 l 339 1099 q 232 901 272 1015 l 232 660 l 275 568 l 331 525 l 275 479 q 239 390 253 442 q 225 296 225 338 l 225 285 q 224 274 224 281 l 224 253 q 225 215 224 235 q 228 176 226 194 l 228 171 q 229 165 228 167 q 231 149 229 154 l 231 132 q 232 117 231 121 l 232 100 q 279 -2 247 49 q 347 -92 311 -53 q 304 -68 329 -78 q 232 -50 263 -51 q 210 -49 219 -49 q 181 -50 190 -49 q 94 -67 124 -58 l 92 -64 q 89 -60 89 -61 l 86 -57 q 83 -53 83 -54 l 81 -50 q 78 -46 78 -47 l 72 -40 q 60 -26 64 -31 q 58 -24 60 -26 q 55 -19 56 -21 q 52 -16 54 -18 q 48 -11 50 -14 q 43 -8 46 -8 l 40 -8 q 38 -7 39 -7 l 35 -7 q 32 -6 33 -6 l 26 -6 q 49 -69 36 -42 q 83 -129 61 -97 q 131 -158 103 -149 q 186 -167 158 -167 q 256 -160 193 -167 q 264 -157 264 -157 l 275 -157 q 318 -149 304 -151 q 358 -146 349 -146 q 364 -137 363 -142 l 368 -133 q 371 -129 368 -132 q 383 -112 379 -119 q 396 -100 388 -106 q 393 -92 393 -97 l 393 -87 q 392 -83 392 -85 q 387 -59 389 -68 q 385 -35 385 -50 q 365 33 369 17 q 357 107 357 74 q 357 111 357 110 q 356 115 356 114 l 356 138 q 364 267 356 192 q 365 279 364 276 q 367 285 365 282 q 367 290 367 289 q 372 338 371 322 q 375 363 374 354 q 376 374 375 365 q 376 388 376 382 l 419 482 l 490 517 l 414 582 l 379 657 q 374 714 378 676 q 369 771 371 751 q 368 775 368 774 l 368 781 q 365 813 368 792 q 361 843 361 835 q 358 904 358 885 q 360 938 358 919 q 361 956 360 950 q 376 1029 369 1004 q 399 1085 390 1068 q 396 1090 396 1088 l 396 1094 q 394 1097 394 1096 q 392 1107 392 1106 q 390 1112 392 1108 q 388 1115 389 1115 q 382 1136 385 1129 l 331 1160 l 318 1164 q 306 1167 314 1164 q 257 1176 260 1176 q 206 1183 254 1176 q 181 1188 190 1183 "},"~":{"ha":926,"x_min":90,"x_max":836,"o":"m 793 572 q 676 450 779 450 q 632 456 653 450 q 535 493 600 464 q 349 563 418 544 q 274 574 313 574 q 135 499 183 574 q 90 340 96 439 l 133 340 q 250 461 153 461 q 390 419 293 461 q 646 340 581 340 q 789 413 738 340 q 836 572 832 475 l 793 572 "},"‚":{"ha":390,"x_min":93,"x_max":293,"o":"m 93 108 q 164 6 164 51 q 147 -44 164 -19 q 93 -97 139 -60 l 110 -121 q 293 115 257 -50 l 194 208 l 93 108 "},"ƒ":{"ha":678,"x_min":10,"x_max":669,"o":"m 450 617 l 556 617 l 574 693 l 467 693 l 506 856 l 622 826 l 669 940 l 549 972 q 368 856 483 924 l 331 693 l 267 693 l 249 617 l 313 617 l 163 -31 l 72 -89 l 29 -47 l 10 -65 l 138 -193 q 333 -89 239 -115 l 342 -72 q 310 -7 310 -50 q 314 28 310 7 l 450 617 "},"„":{"ha":622,"x_min":93,"x_max":563,"o":"m 93 108 q 164 6 164 51 q 147 -44 164 -19 q 93 -97 139 -60 l 110 -121 q 293 115 257 -50 l 194 208 l 93 108 m 363 108 q 433 6 433 51 q 417 -44 433 -19 q 363 -97 408 -60 l 379 -121 q 563 115 526 -50 l 464 208 l 363 108 "},"…":{"ha":1403,"x_min":131,"x_max":1274,"o":"m 233 0 l 338 103 l 233 207 l 131 103 l 233 0 m 701 0 l 806 103 l 701 207 l 599 103 l 701 0 m 1169 0 l 1274 103 l 1169 207 l 1067 103 l 1169 0 "},"†":{"ha":708,"x_min":35,"x_max":672,"o":"m 575 528 l 672 631 l 575 733 q 374 649 488 658 q 464 897 378 799 l 356 1001 l 247 900 q 310 785 294 829 q 338 649 332 725 q 135 733 232 658 l 35 632 l 135 526 q 339 614 236 611 q 246 418 332 494 q 311 192 294 300 q 338 -229 333 51 l 374 -229 q 372 -196 372 -207 q 464 418 372 210 q 374 614 376 497 q 575 528 488 608 "},"‡":{"ha":708,"x_min":35,"x_max":674,"o":"m 574 528 l 671 631 l 574 735 q 372 649 481 656 q 463 900 379 811 l 354 1001 l 246 900 q 335 649 325 796 q 135 735 224 654 l 35 631 l 135 528 q 335 614 228 608 q 246 390 324 476 q 335 160 324 297 q 135 246 229 164 l 35 143 l 135 40 q 335 125 232 117 q 246 -125 324 -29 l 354 -229 l 465 -125 q 372 125 381 -26 q 574 40 479 113 l 674 143 l 574 246 q 372 160 471 165 q 463 390 385 304 q 372 614 379 492 q 574 528 483 607 "},"ˆ":{"ha":481,"x_min":22,"x_max":422,"o":"m 63 726 l 224 872 l 382 726 l 422 726 l 297 981 l 150 981 l 22 726 l 63 726 "},"‰":{"ha":1528,"x_min":35,"x_max":1422,"o":"m 754 517 l 754 514 q 608 399 668 479 q 549 224 549 318 l 549 208 q 551 193 549 201 q 553 190 551 190 l 553 188 q 554 182 553 183 q 555 172 554 175 q 557 167 556 168 l 557 161 q 633 42 579 86 q 761 -24 678 6 q 860 58 814 13 q 936 164 906 104 q 939 170 938 167 q 940 174 940 174 q 947 201 940 174 q 949 213 947 206 q 951 225 950 221 l 951 235 q 953 246 951 242 l 953 256 q 897 415 953 344 q 754 517 840 486 m 678 425 l 678 422 q 821 350 747 408 q 854 301 842 333 q 876 228 876 260 q 878 219 876 221 l 878 203 q 876 196 876 197 l 876 182 q 818 60 861 103 q 810 61 813 60 q 801 64 808 63 q 792 67 794 65 q 782 71 790 68 q 772 74 774 74 q 763 80 771 75 q 746 86 754 85 q 622 275 622 143 q 623 297 622 289 q 628 321 624 306 q 646 374 639 356 q 678 425 663 404 m 714 878 l 299 143 l 207 -14 l 278 -14 l 692 718 l 783 878 l 714 878 m 232 883 l 232 881 q 74 726 142 847 q 49 672 57 697 q 47 667 49 669 q 46 663 46 665 l 46 658 q 43 653 44 656 q 42 646 42 651 l 42 642 q 40 639 40 640 q 36 617 36 619 q 35 597 35 610 q 96 443 35 515 q 232 342 149 381 l 233 342 l 233 340 l 238 340 q 239 339 239 339 l 247 339 q 253 342 250 339 l 257 342 q 261 343 258 342 q 265 345 264 344 q 268 347 267 346 l 269 347 q 347 422 314 386 q 419 506 381 457 q 439 558 435 540 q 447 614 447 586 l 447 626 q 446 639 446 631 q 442 665 443 657 q 431 707 435 693 q 417 746 424 731 q 412 754 415 749 q 407 763 408 760 q 403 768 406 765 q 400 772 401 771 q 393 781 394 778 q 331 840 363 817 q 257 878 286 875 q 250 879 251 878 l 243 879 q 232 883 236 879 m 169 786 l 172 783 l 181 783 q 188 782 185 782 q 204 779 199 779 q 246 760 236 768 q 286 735 265 751 q 291 732 289 735 q 296 727 293 729 q 301 722 299 725 q 315 711 310 715 q 369 589 358 676 q 371 583 369 585 l 371 558 q 369 551 369 553 l 369 538 q 350 474 363 497 q 315 425 333 439 q 212 463 256 433 q 138 543 168 492 q 135 552 135 551 q 133 556 135 553 q 131 558 132 558 q 127 567 128 567 q 125 574 126 568 q 115 635 115 642 q 119 671 115 633 q 147 746 140 733 q 169 786 161 772 m 1224 514 l 1224 511 q 1078 396 1138 476 q 1018 221 1018 315 l 1018 206 q 1021 190 1018 199 q 1022 188 1021 188 l 1022 185 q 1024 179 1022 181 q 1024 169 1024 172 q 1026 164 1025 165 l 1026 158 q 1103 39 1049 83 q 1231 -26 1147 3 q 1329 56 1283 10 q 1406 161 1375 101 q 1408 167 1407 164 q 1410 171 1410 171 q 1417 199 1410 171 q 1418 210 1417 203 q 1421 222 1419 218 l 1421 232 q 1422 243 1421 239 l 1422 253 q 1366 413 1422 342 q 1224 514 1310 483 m 1147 422 l 1147 419 q 1290 347 1217 406 q 1324 299 1311 331 q 1346 225 1346 257 q 1347 217 1346 218 l 1347 200 q 1346 193 1346 194 l 1346 179 q 1288 57 1331 100 q 1280 58 1282 57 q 1271 61 1278 60 q 1262 64 1264 63 q 1251 68 1260 65 q 1242 72 1243 71 q 1232 77 1240 72 q 1215 83 1224 82 q 1092 272 1092 140 q 1092 294 1092 286 q 1097 318 1093 303 q 1115 371 1108 353 q 1147 422 1132 401 "},"Š":{"ha":1107,"x_min":0,"x_max":1014,"o":"m 396 958 l 244 818 q 182 731 210 786 q 146 622 154 676 q 64 565 101 606 q 32 476 32 532 l 32 472 q 33 471 32 471 l 33 464 q 35 463 33 463 l 35 460 q 269 290 76 311 q 275 290 271 290 q 283 288 279 289 q 293 288 286 288 l 325 288 q 329 289 328 288 l 344 289 q 353 293 351 289 l 331 250 l 297 254 q 281 256 286 254 q 250 258 258 256 l 238 258 q 215 261 219 258 l 181 258 q 124 246 151 256 q 0 107 0 200 l 0 83 q 3 75 1 79 q 67 -6 18 15 q 172 -29 124 -29 l 182 -29 q 192 -28 183 -28 l 203 -28 q 214 -26 207 -26 l 244 -22 q 272 -17 264 -19 l 465 54 l 638 -17 l 651 -17 l 850 103 q 960 219 911 154 q 1013 371 1014 293 q 916 553 1010 483 q 719 642 822 622 q 625 654 657 651 l 597 654 l 732 901 l 703 915 l 671 856 l 396 958 m 118 126 l 143 124 l 165 124 q 174 122 172 122 l 188 122 q 200 121 192 121 q 206 121 201 121 q 213 119 210 119 q 224 121 219 119 l 419 67 q 339 26 363 36 q 217 -4 293 7 q 201 -6 206 -4 l 175 -6 q 164 -4 171 -4 q 142 -1 150 -1 q 111 4 121 3 q 82 18 88 14 q 71 29 76 22 q 65 36 68 32 q 61 42 63 40 q 61 44 61 43 q 59 48 60 46 q 58 51 58 50 q 57 60 57 58 l 57 68 q 60 76 57 74 q 118 126 72 111 m 611 503 l 625 500 q 875 388 803 500 q 881 376 876 383 q 886 364 885 368 q 894 342 890 356 q 897 331 897 335 q 901 307 900 315 l 901 296 q 860 176 901 235 q 764 86 818 118 l 654 132 l 783 199 q 797 213 796 211 q 802 219 799 214 q 807 226 806 224 q 829 257 824 247 q 831 263 829 260 q 833 267 832 265 q 835 269 835 268 l 835 276 q 836 281 835 279 l 836 292 q 838 296 836 294 l 838 299 q 798 381 838 344 q 715 428 758 418 q 696 432 696 432 q 678 436 683 432 l 474 428 l 514 490 q 526 492 521 490 q 563 496 542 492 l 575 496 q 611 503 600 496 m 668 304 l 668 301 l 671 301 q 673 299 672 300 q 678 297 674 299 q 683 294 682 296 q 695 288 694 289 q 697 284 696 286 q 699 282 697 282 l 699 279 q 700 274 699 275 l 700 256 q 699 249 699 250 q 696 238 696 240 q 668 194 690 221 q 658 185 664 190 q 649 176 651 179 q 628 161 638 167 q 611 154 618 156 q 594 156 600 151 l 371 235 l 396 288 l 668 304 m 158 589 l 158 586 q 342 478 204 483 q 353 476 346 476 l 381 476 q 400 479 386 476 q 422 482 408 479 q 444 486 424 482 q 450 488 449 486 l 456 488 q 468 493 463 488 l 436 425 l 428 425 q 418 424 424 424 l 408 424 q 397 422 404 422 l 394 422 q 375 419 381 419 l 339 419 q 278 425 328 419 q 258 426 267 425 q 247 428 249 426 l 238 428 q 231 428 232 428 q 226 431 229 429 q 222 431 225 431 q 207 438 213 435 q 153 472 168 458 q 125 522 132 492 q 124 525 124 524 l 124 536 q 125 540 125 539 q 132 561 125 540 q 135 565 132 561 q 139 569 139 569 q 147 579 147 578 q 158 589 156 585 m 356 821 l 361 818 q 400 815 383 818 q 439 804 417 813 q 507 776 482 789 l 540 760 q 572 742 557 750 q 578 738 576 738 q 583 735 581 738 q 586 732 586 733 q 600 726 603 726 l 551 643 l 344 632 l 336 625 q 264 672 290 625 q 260 681 263 679 q 257 690 257 689 q 253 703 254 699 q 253 715 253 707 q 281 783 253 754 q 356 821 310 811 m 692 1264 l 531 1118 l 372 1264 l 332 1264 l 458 1010 l 604 1010 l 732 1264 l 692 1264 "},"‹":{"ha":510,"x_min":89,"x_max":379,"o":"m 269 557 l 89 333 l 269 118 l 376 118 l 201 336 l 379 557 l 269 557 "},"Œ":{"ha":1729,"x_min":-6,"x_max":1631,"o":"m 608 401 l 614 399 q 644 396 622 399 q 742 356 703 389 q 778 307 768 340 q 654 154 742 213 q 471 83 563 93 l 471 307 q 524 368 485 340 q 601 397 564 392 q 604 399 603 397 l 606 399 q 608 401 607 397 m 376 794 l 436 794 l 436 97 q 324 131 374 106 q 232 204 274 157 l 342 325 l 343 326 l 343 328 q 346 332 343 329 q 367 376 360 363 q 376 431 376 401 l 376 794 m 250 718 l 250 307 q 239 260 250 283 q 210 218 228 238 q 183 250 192 239 q 151 310 161 289 q 146 324 149 319 l 142 336 q 128 389 136 353 q 124 439 124 439 q 125 467 124 457 q 164 604 128 519 q 226 708 181 644 q 229 709 228 708 q 233 713 231 710 l 236 713 q 239 714 238 713 l 240 714 l 242 715 q 244 718 243 714 l 250 718 m 471 786 l 479 783 l 492 783 q 503 782 496 782 q 528 778 521 779 q 653 720 589 764 q 754 625 718 676 q 640 560 718 574 l 638 560 q 635 558 636 558 l 624 558 q 619 557 621 557 l 614 557 q 594 558 606 557 q 581 560 582 560 q 568 563 579 560 q 471 643 481 585 l 471 786 m 807 403 l 807 401 q 804 389 804 393 l 800 376 q 789 353 799 368 q 728 396 760 381 q 694 411 706 406 q 660 420 668 419 q 639 424 653 421 q 629 425 631 424 l 607 425 q 594 424 603 424 q 571 418 574 419 q 521 399 532 406 q 474 371 489 382 l 474 574 q 565 531 517 542 q 588 526 583 526 q 593 526 589 526 q 600 525 597 525 l 611 525 q 646 528 625 525 q 664 531 667 531 q 731 557 708 547 q 778 592 761 575 l 778 589 q 781 575 778 583 q 794 532 794 535 q 798 516 797 521 q 801 501 799 511 q 804 486 804 492 q 807 469 807 475 q 808 454 808 457 q 807 407 807 433 l 807 403 m 1318 950 l 1033 694 q 1035 688 1033 689 l 1035 679 q 1036 672 1035 674 l 1036 664 q 1039 633 1036 653 q 1042 603 1039 622 q 1044 556 1042 601 q 1046 533 1046 533 l 1046 485 q 1044 458 1044 467 q 1031 301 1036 353 l 1017 267 l 1017 268 l 1015 268 l 1015 269 q 1013 271 1014 271 q 1013 272 1013 271 l 1011 272 l 1011 275 q 933 514 933 378 l 933 515 q 932 517 932 517 l 932 521 q 931 522 931 522 l 931 525 q 1132 867 931 693 l 1106 864 q 903 699 997 829 q 838 796 883 756 q 579 928 724 893 q 535 936 550 935 q 524 939 532 938 q 513 940 517 940 q 490 944 497 940 l 49 651 l 6 503 l -6 399 l 14 247 q 149 54 47 128 q 371 -17 246 -17 l 408 -17 q 417 -15 415 -15 l 424 -15 q 431 -14 429 -14 l 571 40 l 668 106 l 821 239 q 833 256 826 246 l 836 247 q 996 53 882 124 q 1233 -17 1110 -17 l 1260 -17 q 1274 -15 1264 -15 l 1289 -15 q 1305 -12 1293 -14 q 1324 -11 1317 -11 l 1344 -7 q 1388 2 1374 -3 q 1411 8 1401 7 q 1439 21 1429 15 q 1564 107 1511 56 q 1631 235 1622 163 q 1494 144 1572 181 q 1338 107 1417 107 l 1317 107 q 1296 111 1317 107 l 1288 111 q 1284 112 1285 111 q 1281 115 1283 113 l 1281 517 l 1513 517 l 1582 660 l 1432 660 l 1631 872 l 1625 872 q 1618 871 1619 871 l 1611 871 q 1604 869 1606 869 q 1589 867 1593 867 l 1576 867 q 1318 950 1440 867 m 1243 813 l 1243 113 q 1042 232 1129 140 l 1047 238 q 1051 243 1047 239 l 1063 254 q 1178 399 1114 306 l 1189 447 l 1189 764 l 1243 813 m 1281 792 l 1453 726 l 1281 546 l 1281 792 "},"Ž":{"ha":871,"x_min":19,"x_max":794,"o":"m 215 956 l 81 783 l 100 764 l 146 810 l 196 793 q 244 782 228 785 q 342 772 289 772 q 442 782 388 772 q 546 813 506 793 l 689 881 q 382 571 549 767 l 194 571 l 172 525 l 344 525 l 301 453 l 129 453 l 110 410 l 275 407 q 24 8 174 188 l 19 -11 l 24 -11 q 26 -10 25 -10 l 36 -10 q 39 -8 38 -8 l 43 -8 q 144 25 110 14 q 251 50 200 43 q 342 57 301 57 l 358 57 q 376 56 371 56 q 415 53 413 53 q 433 50 426 50 q 469 43 461 43 q 488 40 483 40 l 649 -17 l 794 153 q 790 160 790 157 l 785 165 q 772 178 772 178 l 721 129 l 594 167 q 586 168 590 167 l 578 168 q 569 169 574 168 l 561 169 q 546 171 550 169 l 532 171 q 518 172 522 171 l 506 172 q 429 167 463 172 q 354 154 406 165 q 342 151 346 151 l 329 147 q 304 143 308 143 l 135 67 q 308 226 232 149 q 465 407 394 315 l 663 407 l 681 453 l 496 450 q 501 458 501 456 q 504 463 501 460 q 509 469 507 467 q 512 472 511 471 q 515 476 513 474 q 517 480 517 479 q 517 482 517 481 q 520 486 518 483 q 524 492 522 489 q 527 496 526 494 q 530 501 528 497 q 532 504 532 504 q 546 525 540 515 l 708 525 l 724 571 l 568 568 q 775 944 638 724 l 592 893 l 583 893 q 574 892 579 892 l 557 892 q 547 890 553 890 l 539 890 q 513 887 519 888 q 488 886 506 886 l 461 886 q 449 888 453 886 q 424 890 432 888 q 417 892 421 890 q 411 892 413 892 q 401 894 408 893 q 389 896 393 896 l 385 896 q 382 897 383 896 q 379 897 381 897 q 371 901 375 897 l 229 956 l 215 956 m 608 1264 l 447 1118 l 289 1264 l 249 1264 l 375 1010 l 521 1010 l 649 1264 l 608 1264 "},"‘":{"ha":390,"x_min":96,"x_max":296,"o":"m 296 785 q 226 888 226 842 q 242 938 226 913 q 296 990 251 953 l 281 1014 q 96 779 133 943 l 197 685 l 296 785 "},"’":{"ha":390,"x_min":93,"x_max":293,"o":"m 93 914 q 164 811 164 857 q 147 761 164 786 q 93 708 139 746 l 110 685 q 293 921 257 756 l 194 1014 l 93 914 "},"“":{"ha":622,"x_min":96,"x_max":550,"o":"m 296 785 q 226 888 226 842 q 242 938 226 913 q 296 990 251 953 l 281 1014 q 96 779 133 943 l 197 685 l 296 785 m 550 785 q 481 888 481 842 q 496 938 481 913 q 550 990 506 953 l 535 1014 q 350 779 388 943 l 451 685 l 550 785 "},"”":{"ha":622,"x_min":93,"x_max":550,"o":"m 93 914 q 164 811 164 857 q 147 761 164 786 q 93 708 139 746 l 110 685 q 293 921 257 756 l 194 1014 l 93 914 m 350 914 q 421 811 421 857 q 404 761 421 786 q 350 708 396 746 l 367 685 q 550 921 514 756 l 451 1014 l 350 914 "},"•":{"ha":486,"x_min":53,"x_max":439,"o":"m 246 653 q 109 597 165 653 q 53 458 53 540 q 109 321 53 378 q 246 264 165 264 q 383 321 326 264 q 439 458 439 378 q 383 597 439 540 q 246 653 328 653 "},"–":{"ha":694,"x_min":-8,"x_max":703,"o":"m -8 378 l -8 317 l 703 317 l 703 378 l -8 378 "},"—":{"ha":1389,"x_min":-8,"x_max":1397,"o":"m -8 378 l -8 317 l 1397 317 l 1397 378 l -8 378 "},"˜":{"ha":631,"x_min":85,"x_max":522,"o":"m 113 767 q 178 826 133 826 q 274 797 206 826 q 379 767 342 767 q 522 932 506 767 l 496 932 q 428 869 475 869 q 319 903 393 869 q 264 925 279 921 q 221 932 238 932 q 121 876 161 932 q 85 767 94 840 l 113 767 "},"™":{"ha":1361,"x_min":21,"x_max":1338,"o":"m 35 919 l 21 783 l 43 783 q 83 859 54 839 q 172 879 113 879 l 224 879 l 224 486 q 213 418 224 435 q 156 397 203 401 l 156 372 l 410 372 l 410 397 q 349 417 361 399 q 338 486 338 435 l 338 879 l 389 879 q 521 783 507 879 l 543 783 l 528 919 l 35 919 m 783 919 l 590 919 l 590 894 q 656 874 642 894 q 667 801 667 858 l 667 486 q 661 425 667 439 q 590 397 649 397 l 590 372 l 797 372 l 797 397 l 774 397 q 714 431 725 397 q 710 486 710 440 l 710 813 l 919 372 l 940 372 l 1149 818 l 1149 485 q 1143 426 1149 440 q 1111 401 1133 407 q 1068 397 1097 397 l 1068 372 l 1338 372 l 1338 397 q 1275 416 1288 400 q 1263 486 1263 432 l 1263 803 q 1275 875 1263 857 q 1338 894 1288 893 l 1338 919 l 1149 919 l 969 532 l 783 919 "},"š":{"ha":601,"x_min":24,"x_max":525,"o":"m 471 781 l 471 778 l 469 778 l 468 776 q 456 765 460 771 q 448 753 449 756 q 447 749 447 750 l 447 743 q 449 740 447 742 q 451 738 450 738 l 451 735 q 453 733 451 733 l 453 732 l 457 728 q 462 724 457 726 q 468 715 467 722 q 476 706 476 708 q 485 700 483 703 l 485 674 q 472 648 479 651 q 457 638 465 644 q 424 626 436 631 q 407 625 419 625 q 398 626 400 625 q 383 631 396 626 q 379 632 381 631 l 375 632 q 367 638 372 632 l 224 689 q 219 685 219 685 q 218 683 219 685 q 215 679 217 681 l 207 671 q 63 571 129 593 l 63 333 l 189 256 l 24 14 l 43 0 q 78 19 67 15 q 142 36 124 33 q 154 38 150 36 l 179 38 q 192 36 183 36 q 197 36 193 36 q 204 35 201 35 q 215 32 213 32 q 265 17 243 25 q 313 -6 297 3 q 316 -4 314 -6 q 319 -1 318 -3 q 323 1 321 0 q 328 3 325 1 q 332 6 331 6 q 410 58 363 31 q 496 100 436 75 l 496 367 l 367 447 l 517 663 q 518 665 517 664 l 518 668 q 519 671 518 669 l 519 675 l 524 692 q 525 701 524 697 l 525 724 q 524 728 524 726 q 511 761 522 739 q 485 781 506 772 l 471 781 m 288 336 l 376 278 l 376 97 q 319 125 349 114 q 290 135 300 132 q 261 140 269 139 q 249 142 253 140 l 238 142 q 228 143 229 142 l 207 143 q 195 142 201 142 q 169 139 189 142 l 165 139 q 161 138 163 138 q 153 140 156 138 l 288 336 m 186 404 l 186 563 q 260 538 235 544 q 333 528 338 528 l 346 528 q 353 529 351 528 l 361 529 q 368 531 364 529 l 375 531 q 388 536 382 531 l 264 358 l 186 404 m 424 981 l 263 835 l 104 981 l 64 981 l 190 726 l 336 726 l 464 981 l 424 981 "},"›":{"ha":510,"x_min":86,"x_max":376,"o":"m 94 554 l 261 333 l 86 118 l 199 118 l 376 333 l 201 554 l 94 554 "},"œ":{"ha":775,"x_min":17,"x_max":715,"o":"m 328 108 l 189 169 l 189 568 l 342 503 l 342 142 q 328 108 336 124 m 535 690 l 535 688 q 415 601 463 629 q 338 635 382 613 q 250 692 288 660 l 250 689 q 158 617 210 649 q 54 576 107 586 l 54 194 l 46 149 l 17 106 l 89 86 l 267 -6 l 381 56 q 404 47 394 53 q 418 38 414 40 q 425 33 422 36 q 429 29 428 31 q 438 22 435 24 q 470 1 467 1 q 486 -3 474 0 q 506 -7 499 -7 l 511 -7 l 697 139 l 678 165 l 592 101 l 476 157 l 476 294 l 715 504 l 535 690 m 476 567 l 597 440 q 574 419 588 431 q 547 400 560 407 q 539 393 544 397 q 533 388 533 389 q 528 385 532 388 q 524 382 525 382 q 522 380 524 382 q 517 376 519 378 l 496 360 q 476 349 485 350 l 476 567 "},"ž":{"ha":481,"x_min":22,"x_max":422,"o":"m 201 692 l 24 560 l 43 542 l 118 589 l 242 476 l 35 269 q 38 271 36 269 l 40 271 q 43 272 42 271 l 46 272 q 52 275 49 274 q 58 276 56 276 q 68 278 61 276 q 83 283 75 281 q 97 285 92 285 q 106 286 101 285 l 114 286 q 124 288 119 286 l 139 288 q 144 286 143 286 l 151 286 q 158 285 156 285 q 193 274 188 278 q 224 253 215 264 q 227 249 225 253 q 229 247 229 246 q 233 237 229 247 q 237 225 236 226 q 240 215 238 224 q 246 197 246 203 q 247 186 246 190 l 247 178 q 135 -3 247 85 q 124 -12 126 -10 q 117 -17 121 -14 q 111 -22 114 -21 q 101 -29 108 -24 q 89 -37 93 -35 q 83 -51 86 -44 q 74 -68 79 -57 q 68 -85 69 -79 q 68 -89 68 -87 q 67 -93 67 -92 l 67 -108 q 68 -117 67 -111 q 72 -132 69 -124 q 76 -142 75 -140 q 81 -147 78 -144 l 83 -150 q 90 -158 88 -157 l 100 -168 q 107 -173 103 -169 q 114 -176 111 -176 q 142 -190 129 -185 q 158 -196 154 -196 q 165 -197 163 -196 q 169 -197 168 -197 q 178 -199 175 -199 q 215 -161 215 -199 l 210 -156 q 201 -149 204 -150 q 197 -146 199 -147 l 186 -146 q 181 -149 183 -146 l 178 -149 q 172 -149 175 -149 q 168 -151 169 -150 l 161 -151 q 154 -153 156 -151 l 143 -153 q 136 -151 138 -151 q 133 -151 135 -151 q 129 -150 131 -150 q 126 -149 128 -150 q 121 -146 124 -147 l 114 -139 q 112 -135 114 -137 q 109 -132 110 -133 q 106 -128 108 -131 q 103 -124 104 -125 q 101 -120 103 -122 q 99 -115 100 -118 q 97 -107 97 -112 l 97 -100 q 100 -86 97 -97 q 114 -58 108 -69 q 122 -49 121 -51 q 124 -46 122 -46 l 124 -44 l 125 -44 q 128 -42 126 -43 q 135 -38 129 -42 q 143 -32 140 -35 q 155 -28 156 -28 q 158 -26 154 -28 q 163 -22 161 -24 q 167 -19 164 -19 q 172 -18 169 -19 q 175 -15 175 -17 q 189 -8 185 -11 q 314 74 253 25 q 390 201 371 118 l 390 207 q 392 211 390 210 l 392 219 q 393 224 392 222 l 393 226 q 347 329 393 285 q 240 385 300 374 q 233 386 235 385 q 228 389 231 388 q 222 389 225 389 q 204 393 210 389 l 390 574 l 358 571 q 271 620 314 586 q 201 692 228 654 m 382 981 l 221 835 l 63 981 l 22 981 l 149 726 l 294 726 l 422 981 l 382 981 "},"Ÿ":{"ha":957,"x_min":0,"x_max":886,"o":"m 178 944 l 178 942 l 169 942 q 160 940 165 940 l 142 940 q 93 926 125 940 q 57 893 72 918 q 183 850 146 888 l 213 794 l 213 649 q 200 651 208 649 q 193 653 197 651 q 186 653 188 653 q 172 656 182 654 q 157 658 163 658 l 140 658 q 132 660 136 658 l 124 660 q 49 646 76 660 q 56 643 51 646 q 61 639 60 640 q 75 631 71 633 q 179 546 133 597 q 215 460 215 506 l 215 453 q 214 450 214 451 l 214 440 q 213 436 213 438 l 213 431 q 183 442 193 439 q 167 447 172 446 q 150 451 169 447 q 125 456 143 453 q 114 457 118 456 l 88 457 q 82 456 85 456 l 65 451 q 51 447 60 450 q 158 362 113 421 q 214 238 203 303 l 214 224 q 215 217 214 218 l 215 181 l 210 181 q 203 179 204 179 l 185 179 q 179 178 182 178 l 167 178 q 128 167 142 172 q 37 103 74 149 q 0 3 0 58 l 0 -29 q 26 -104 6 -68 q 83 -167 47 -140 q 142 -191 122 -185 q 172 -199 163 -197 q 201 -201 193 -201 l 214 -201 q 225 -200 218 -200 q 241 -199 232 -200 q 254 -196 250 -197 q 364 -156 304 -185 q 467 -101 382 -146 l 499 -85 q 563 -57 536 -65 q 568 -58 565 -57 q 572 -61 571 -60 l 575 -64 q 580 -65 578 -64 q 585 -69 582 -67 l 585 -82 q 583 -86 583 -85 q 581 -97 581 -94 q 581 -100 581 -99 q 578 -102 579 -101 q 576 -106 578 -103 q 573 -111 574 -110 q 570 -116 572 -112 q 567 -120 568 -119 q 565 -124 565 -121 l 565 -126 q 564 -128 564 -128 l 564 -135 q 563 -136 563 -136 l 563 -147 q 581 -181 571 -171 q 613 -200 597 -199 q 615 -201 614 -200 l 632 -201 q 672 -174 660 -192 q 683 -135 683 -157 l 683 -131 q 682 -125 682 -128 l 682 -117 q 665 -78 674 -92 q 640 -49 653 -57 q 618 -37 626 -40 q 597 -29 604 -35 q 553 -18 568 -21 q 511 -14 515 -14 q 383 -39 449 -14 q 253 -96 331 -60 q 249 -97 250 -96 q 249 -99 249 -97 q 246 -99 247 -99 q 238 -103 243 -101 q 176 -114 199 -114 q 167 -115 171 -114 l 158 -115 q 97 -102 128 -115 q 49 -57 65 -89 q 40 -33 40 -32 q 36 -14 36 -12 q 35 0 35 -4 q 79 96 35 56 q 175 146 117 131 l 549 146 q 792 261 697 163 q 853 353 847 338 q 874 444 868 413 q 886 546 886 519 l 886 583 q 851 754 886 665 q 710 896 811 858 q 651 908 660 908 q 639 910 643 908 l 608 910 q 601 908 603 908 q 506 883 549 901 q 374 801 440 856 q 178 944 340 929 m 600 410 l 600 407 q 619 403 606 406 q 632 400 628 400 l 644 396 q 682 374 664 389 q 700 342 700 358 l 700 340 l 699 339 l 699 333 l 697 332 l 697 328 q 613 210 667 258 q 479 161 558 161 l 472 161 q 469 163 469 161 l 460 163 q 457 164 457 163 l 454 164 q 450 167 451 164 l 450 358 q 457 372 454 368 q 463 379 460 375 q 468 385 467 383 q 492 394 483 392 q 506 397 501 396 q 521 400 510 397 q 534 401 524 400 q 561 407 544 403 q 574 410 565 407 l 600 410 m 425 794 l 425 167 l 374 167 l 374 751 l 425 794 m 706 606 l 706 603 q 714 558 713 571 q 718 515 717 531 l 718 493 q 717 483 717 489 l 717 474 q 715 465 715 472 q 709 425 711 433 q 706 409 707 417 q 703 390 706 401 q 686 399 694 397 q 668 407 675 406 q 633 421 656 413 q 624 424 631 422 q 615 425 618 425 q 597 428 608 425 q 563 431 572 431 l 550 431 q 536 429 544 429 q 508 424 514 426 q 479 415 494 422 q 453 404 454 404 l 453 589 q 576 551 518 551 q 599 552 592 551 q 622 557 606 553 q 665 574 638 561 q 706 606 694 593 m 496 821 l 496 818 l 500 818 q 506 819 504 818 l 518 819 q 522 821 521 819 l 525 821 q 681 718 615 821 q 689 694 681 719 q 691 687 690 690 q 692 683 692 683 q 694 682 693 682 q 694 679 694 681 q 697 667 696 674 q 700 658 699 660 l 700 643 q 697 640 699 642 q 696 632 696 638 q 694 629 696 632 q 692 625 693 626 q 647 599 664 607 q 594 581 610 585 q 572 578 578 578 q 568 578 571 578 q 564 576 565 576 l 540 576 q 490 592 518 576 q 450 635 463 608 l 450 789 q 452 794 451 792 q 456 801 453 797 q 463 810 458 806 q 479 815 467 814 q 496 821 492 817 m 664 1067 l 739 1142 l 664 1215 l 590 1142 l 664 1067 m 393 1067 l 468 1142 l 393 1215 l 319 1142 l 393 1067 "},"¡":{"ha":390,"x_min":75,"x_max":317,"o":"m 196 733 l 92 631 l 196 526 l 299 631 l 196 733 m 317 -67 q 208 481 238 94 l 181 481 q 75 -67 161 106 l 196 -193 l 317 -67 "},"¢":{"ha":481,"x_min":38,"x_max":401,"o":"m 238 904 l 238 835 q 231 819 235 824 l 218 807 q 144 753 169 771 q 72 706 107 724 l 72 313 q 69 304 71 311 q 67 297 67 297 q 38 221 49 246 q 235 126 139 194 l 235 -17 l 299 -17 l 299 175 l 401 267 l 379 285 q 356 266 371 276 q 335 250 340 256 q 326 247 332 250 q 318 242 321 244 q 310 240 315 240 q 304 242 306 240 l 299 253 l 299 643 l 324 635 l 393 726 q 299 797 333 746 l 299 904 l 238 904 m 199 711 l 242 683 l 242 275 l 221 275 l 199 301 l 199 711 "},"£":{"ha":722,"x_min":57,"x_max":638,"o":"m 404 889 l 404 886 l 399 886 q 392 885 393 885 l 379 881 q 143 471 143 676 l 143 458 q 144 447 143 454 q 147 439 146 440 l 147 432 q 149 426 147 428 l 149 422 l 83 422 l 83 390 l 156 388 l 175 347 l 83 347 l 83 321 l 192 318 q 229 222 213 294 q 232 211 229 219 q 233 204 232 208 q 233 199 233 200 q 235 186 233 190 l 235 169 q 233 163 233 164 l 233 149 q 231 136 231 140 l 226 124 q 215 103 224 111 l 69 29 l 57 14 l 72 -6 q 85 -3 76 -6 q 97 0 93 0 q 122 7 115 4 q 149 15 139 14 q 174 24 165 22 l 224 36 q 250 42 242 40 q 275 49 268 44 l 417 46 l 589 -14 l 638 115 q 532 144 593 135 q 422 156 499 150 l 269 124 q 339 321 325 232 l 511 321 l 511 347 l 342 347 l 336 393 l 511 393 l 511 422 l 333 422 l 275 571 l 275 576 q 273 582 274 579 q 272 590 272 585 q 271 597 271 596 l 271 600 q 269 603 269 601 q 269 607 269 606 q 267 613 268 610 q 267 618 267 615 l 267 635 q 267 656 267 644 q 269 669 268 667 q 271 675 269 672 q 271 681 271 679 q 313 775 286 735 l 557 665 l 617 781 l 606 794 l 404 889 "},"¤":{"ha":972,"x_min":18,"x_max":949,"o":"m 949 818 q 593 972 797 972 q 317 865 435 972 q 168 606 204 764 l 60 606 l 18 506 l 154 506 q 153 481 153 492 q 154 456 153 468 l 60 456 l 18 354 l 168 354 q 318 96 208 196 q 593 -11 435 -11 q 915 107 769 -11 l 915 254 q 593 89 775 89 q 390 167 478 89 q 274 354 310 239 l 754 354 l 796 456 l 256 456 l 256 506 l 818 506 l 860 606 l 272 606 q 390 794 300 717 q 593 871 481 871 q 906 717 774 871 l 949 818 "},"€":{"ha":972,"x_min":18,"x_max":949,"o":"m 949 818 l 906 717 q 593 871 774 871 q 390 794 481 871 q 272 606 300 717 l 860 606 l 818 506 l 256 506 l 256 456 l 796 456 l 754 354 l 274 354 q 390 167 310 239 q 593 89 478 89 q 915 254 775 89 l 915 107 q 593 -11 769 -11 q 318 96 435 -11 q 168 354 208 196 l 18 354 l 60 456 l 154 456 q 153 481 153 468 q 154 506 153 492 l 18 506 l 60 606 l 168 606 q 317 865 204 764 q 593 972 435 972 q 949 818 797 972 "},"¥":{"ha":1013,"x_min":33,"x_max":978,"o":"m 978 817 l 917 849 q 772 933 838 889 l 592 497 l 413 801 q 358 878 392 839 q 229 938 308 938 q 107 889 161 938 q 33 776 60 846 l 53 754 q 108 814 88 801 q 171 833 138 833 q 249 799 215 833 q 297 725 268 779 q 308 707 306 713 l 465 444 l 465 394 l 278 394 l 243 292 l 465 292 l 465 103 q 318 29 364 56 l 328 0 q 610 46 475 46 q 697 35 633 46 l 749 147 q 682 157 713 157 q 603 147 639 157 l 603 292 l 792 292 l 826 394 l 603 394 l 603 444 l 749 789 l 928 717 l 978 817 "},"¦":{"ha":786,"x_min":328,"x_max":454,"o":"m 328 967 l 328 472 l 454 472 l 454 967 l 328 967 m 328 306 l 328 -187 l 454 -187 l 454 306 l 328 306 "},"§":{"ha":708,"x_min":67,"x_max":642,"o":"m 128 -128 l 414 -229 q 521 -112 499 -142 q 576 32 576 -37 q 525 147 576 93 q 642 357 642 256 q 571 511 642 442 q 451 604 531 551 q 321 683 408 632 q 199 818 199 756 q 231 893 199 844 l 514 790 l 581 900 l 299 1001 q 135 744 135 857 q 183 626 135 678 q 67 422 67 525 q 157 242 67 319 q 288 154 190 214 q 442 56 422 69 q 511 -44 511 6 q 478 -118 511 -75 l 193 -17 l 128 -128 m 506 169 q 340 285 432 229 q 215 367 249 340 q 138 488 138 432 q 204 604 138 542 q 392 476 326 515 q 506 397 472 426 q 572 282 572 338 q 506 169 572 229 "},"¨":{"ha":481,"x_min":13,"x_max":433,"o":"m 358 803 l 433 878 l 358 951 l 285 878 l 358 803 m 88 803 l 161 878 l 88 951 l 13 878 l 88 803 "},"©":{"ha":1056,"x_min":47,"x_max":1010,"o":"m 528 940 q 293 879 407 940 q 113 703 179 818 q 47 460 47 589 q 110 222 47 335 q 285 44 172 108 q 528 -21 399 -21 q 766 42 653 -21 q 944 217 879 104 q 1010 460 1010 331 q 944 701 1010 585 q 769 876 882 811 q 528 940 656 940 m 528 899 q 743 842 639 899 q 907 682 847 786 q 967 460 967 578 q 910 242 967 346 q 749 80 853 139 q 528 21 646 21 q 310 78 414 21 q 148 239 207 136 q 89 460 89 342 q 147 681 89 575 q 308 840 204 781 q 528 899 411 899 m 765 769 l 739 769 q 706 739 726 739 q 681 744 697 739 q 554 769 603 769 q 318 683 414 769 q 217 456 217 594 q 310 239 217 325 q 531 154 399 154 q 790 292 696 154 l 765 306 q 554 196 686 196 q 379 279 436 196 q 329 475 329 351 q 376 654 329 588 q 547 739 438 739 q 753 579 704 739 l 779 579 l 765 769 "},"ª":{"ha":419,"x_min":28,"x_max":399,"o":"m 386 686 q 375 681 376 681 q 356 669 360 669 q 331 757 331 669 l 331 851 q 338 918 331 890 q 357 960 340 932 q 372 988 367 976 l 353 1001 q 317 975 332 975 q 300 979 311 975 l 211 1013 q 138 983 165 983 q 89 993 118 983 l 72 967 l 118 858 q 28 704 28 781 q 101 593 28 646 l 239 679 q 289 593 244 622 l 399 665 l 386 686 m 239 826 l 140 874 l 101 961 l 239 918 l 239 826 m 239 708 l 164 661 q 118 765 118 710 q 142 847 118 793 l 239 800 l 239 708 "},"«":{"ha":751,"x_min":78,"x_max":617,"o":"m 506 554 l 506 551 q 453 489 469 510 q 430 457 442 471 q 404 426 418 443 q 385 400 390 408 q 367 375 369 379 q 331 331 349 350 l 506 115 l 617 115 l 442 331 l 617 554 l 506 554 m 258 557 l 78 336 l 258 118 l 371 118 l 192 336 l 364 557 l 258 557 "},"¬":{"ha":926,"x_min":88,"x_max":838,"o":"m 88 686 l 88 561 l 713 561 l 713 231 l 838 231 l 838 686 l 88 686 "},"®":{"ha":1056,"x_min":47,"x_max":1010,"o":"m 528 940 q 293 879 407 940 q 113 703 179 818 q 47 460 47 589 q 110 222 47 335 q 285 44 172 108 q 528 -21 399 -21 q 766 42 653 -21 q 944 217 879 104 q 1010 460 1010 331 q 944 701 1010 585 q 769 876 882 811 q 528 940 656 940 m 528 899 q 743 842 639 899 q 907 682 847 786 q 967 460 967 578 q 910 242 967 346 q 749 80 853 139 q 528 21 646 21 q 310 78 414 21 q 148 239 207 136 q 89 460 89 342 q 147 681 89 575 q 308 840 204 781 q 528 899 411 899 m 261 756 l 261 731 q 322 699 313 731 q 324 639 324 692 l 324 285 q 321 226 324 235 q 254 192 310 192 l 254 169 l 503 169 l 503 192 q 422 233 431 192 l 422 443 l 474 443 l 674 169 l 799 169 l 799 192 q 717 251 756 194 l 575 453 q 725 604 725 492 q 660 721 725 681 q 524 756 604 756 l 261 756 m 422 472 l 422 715 q 479 725 454 725 q 576 689 538 725 q 615 596 615 653 q 443 472 615 472 l 422 472 "},"¯":{"ha":463,"x_min":25,"x_max":438,"o":"m 438 844 l 438 936 l 25 936 l 25 844 l 438 844 "},"ˉ":{"ha":463,"x_min":25,"x_max":438,"o":"m 438 844 l 25 844 l 25 936 l 438 936 l 438 844 "},"°":{"ha":556,"x_min":40,"x_max":510,"o":"m 275 939 q 108 871 176 939 q 40 704 40 803 q 108 538 40 607 q 275 469 176 469 q 441 538 372 469 q 510 704 510 607 q 442 871 510 803 q 275 939 374 939 m 275 850 q 378 808 336 850 q 421 704 421 765 q 378 601 421 644 q 275 558 336 558 q 172 601 214 558 q 129 704 129 644 q 172 808 129 765 q 275 850 214 850 "},"±":{"ha":926,"x_min":88,"x_max":838,"o":"m 88 636 l 88 511 l 400 511 l 400 200 l 525 200 l 525 511 l 838 511 l 838 636 l 525 636 l 525 949 l 400 949 l 400 636 l 88 636 m 88 89 l 88 -36 l 838 -36 l 838 89 l 88 89 "},"²":{"ha":463,"x_min":28,"x_max":428,"o":"m 64 431 q 199 458 128 458 q 350 431 258 458 l 428 525 q 297 549 367 549 q 107 504 206 549 q 154 555 129 536 q 265 611 179 574 q 376 675 344 644 q 428 797 428 722 q 422 842 428 814 l 185 939 l 28 838 l 107 765 l 274 869 q 303 808 303 840 q 269 704 303 754 q 183 626 249 671 q 28 443 43 529 l 64 431 "},"³":{"ha":463,"x_min":-6,"x_max":417,"o":"m 115 432 q 417 592 417 447 q 289 707 417 675 q 401 860 378 735 l 119 936 l 28 874 l 100 796 l 199 865 q 233 881 219 881 q 267 831 267 881 q 119 721 267 721 l 119 686 l 144 686 q 240 665 213 686 q 285 567 285 633 q 249 478 285 514 l 79 608 l -6 529 l 115 432 "},"´":{"ha":481,"x_min":154,"x_max":374,"o":"m 192 725 l 374 978 l 215 978 l 154 725 l 192 725 "},"¶":{"ha":622,"x_min":-10,"x_max":632,"o":"m 542 882 l 632 882 l 632 919 l 296 919 q 125 886 190 919 q -10 665 -10 817 q 25 531 -10 590 q 151 431 65 460 q 317 407 210 413 l 317 -300 l 365 -300 l 365 882 l 492 882 l 492 -300 l 542 -300 l 542 882 "},"·":{"ha":389,"x_min":69,"x_max":275,"o":"m 189 536 l 172 533 q 105 508 138 533 q 72 447 72 482 l 72 442 q 71 439 71 440 l 71 433 q 69 431 69 432 l 69 428 q 99 364 69 389 q 163 339 128 339 l 183 339 q 194 342 186 339 q 256 374 228 346 q 267 390 265 383 q 274 413 272 406 l 274 421 q 275 426 274 425 l 275 440 q 274 444 274 443 q 247 506 272 476 q 189 536 226 529 "},"∙":{"ha":389,"x_min":69,"x_max":275,"o":"m 189 536 q 247 506 226 529 q 274 444 272 476 q 275 440 274 443 l 275 426 q 274 421 274 425 l 274 413 q 267 390 272 406 q 256 374 265 383 q 194 342 228 346 q 183 339 186 339 l 163 339 q 99 364 128 339 q 69 428 69 389 l 69 431 q 71 433 69 432 l 71 439 q 72 442 71 440 l 72 447 q 105 508 72 482 q 172 533 138 533 l 189 536 "},"¸":{"ha":510,"x_min":72,"x_max":385,"o":"m 232 14 l 183 -83 l 193 -83 q 194 -82 194 -82 l 197 -82 q 199 -81 199 -81 l 201 -81 q 248 -90 228 -81 q 288 -118 268 -99 q 292 -133 289 -122 q 294 -143 292 -135 q 296 -147 294 -144 q 296 -151 296 -150 l 296 -165 q 294 -171 294 -169 l 294 -185 q 294 -187 294 -186 q 292 -191 293 -189 q 292 -194 292 -193 l 292 -200 q 290 -204 290 -203 q 266 -223 283 -214 q 236 -233 249 -232 q 232 -235 233 -233 l 218 -235 q 213 -233 215 -233 l 207 -233 q 201 -232 204 -232 q 158 -208 181 -226 q 124 -172 135 -190 l 72 -207 l 72 -218 l 81 -226 q 118 -240 93 -232 q 232 -264 189 -264 l 240 -264 q 249 -262 247 -262 l 258 -262 q 268 -261 260 -261 q 310 -253 310 -253 q 382 -174 363 -232 q 383 -167 382 -168 l 383 -160 q 385 -154 383 -156 l 385 -144 q 383 -140 383 -142 l 383 -132 q 374 -107 378 -117 q 356 -83 363 -92 q 340 -76 346 -79 q 324 -69 335 -72 q 293 -58 303 -62 q 269 -53 278 -56 q 244 -51 260 -51 l 239 -51 q 233 -53 235 -51 l 226 -53 q 224 -54 224 -53 l 221 -54 l 258 14 l 232 14 "},"¹":{"ha":463,"x_min":101,"x_max":368,"o":"m 368 515 l 350 540 l 314 515 q 306 522 308 521 q 292 540 294 533 l 292 793 q 278 890 292 864 q 213 939 260 925 l 101 865 l 118 839 q 156 861 147 861 q 174 788 174 861 l 174 521 l 149 494 l 254 435 l 368 515 "},"º":{"ha":390,"x_min":25,"x_max":338,"o":"m 338 967 q 189 1014 257 974 q 51 953 126 968 l 51 756 q 25 658 51 690 l 35 640 l 49 640 q 200 596 100 640 q 338 658 272 640 l 338 967 m 247 672 l 143 710 l 143 931 q 247 899 203 922 l 247 672 "},"»":{"ha":751,"x_min":86,"x_max":622,"o":"m 336 557 l 511 331 l 336 115 l 444 115 l 622 331 l 442 557 l 336 557 m 86 560 l 258 336 l 86 118 l 194 118 l 371 336 l 194 560 l 86 560 "},"¼":{"ha":1403,"x_min":228,"x_max":1243,"o":"m 433 -46 l 1050 943 l 961 943 l 344 -46 l 433 -46 m 493 515 l 476 540 l 439 515 q 432 522 433 521 q 418 540 421 533 l 417 793 q 404 890 417 864 q 339 939 386 925 l 228 865 l 244 839 q 282 861 274 861 q 300 788 300 861 l 300 521 l 275 494 l 379 435 l 493 515 m 1118 0 l 1228 71 l 1210 97 l 1176 81 l 1154 113 l 1154 135 l 1243 135 l 1221 218 l 1154 218 l 1154 372 q 1135 463 1154 433 q 1057 506 1115 493 l 822 228 l 846 135 l 1038 135 l 1038 86 l 1018 58 l 1118 0 m 1038 218 l 856 224 l 999 394 q 1026 417 1018 417 q 1034 411 1031 417 q 1039 396 1038 406 q 1038 356 1038 372 l 1038 218 "},"½":{"ha":1403,"x_min":228,"x_max":1244,"o":"m 433 -46 l 1050 943 l 961 943 l 344 -46 l 433 -46 m 493 515 l 476 540 l 439 515 q 432 522 433 521 q 418 540 421 533 l 417 793 q 404 890 417 864 q 339 939 386 925 l 228 865 l 244 839 q 282 861 274 861 q 300 788 300 861 l 300 521 l 275 494 l 379 435 l 493 515 m 879 0 q 1013 28 943 28 q 1165 0 1074 28 l 1244 94 q 1113 117 1182 117 q 922 74 1022 117 q 969 124 944 106 q 1081 179 994 143 q 1193 244 1160 214 q 1243 367 1243 292 q 1238 411 1243 383 l 1000 508 l 842 406 l 922 336 l 1090 439 q 1118 376 1118 410 q 1085 274 1118 325 q 999 196 1063 239 q 842 13 858 99 l 879 0 "},"¾":{"ha":1403,"x_min":119,"x_max":1243,"o":"m 433 -46 l 1050 943 l 961 943 l 344 -46 l 433 -46 m 240 432 q 543 592 543 447 q 414 707 543 675 q 526 860 503 735 l 246 936 l 153 874 l 225 796 l 324 865 q 360 881 346 881 q 393 831 393 881 q 246 721 393 721 l 246 686 l 269 686 q 365 665 339 686 q 410 567 410 633 q 374 478 410 514 l 204 608 l 119 529 l 240 432 m 1118 0 l 1228 71 l 1208 97 l 1176 81 l 1153 113 l 1153 135 l 1243 135 l 1221 218 l 1153 218 l 1153 372 q 1136 461 1153 435 q 1057 506 1115 493 l 822 228 l 846 135 l 1038 135 l 1038 86 l 1018 58 l 1118 0 m 1038 218 l 856 224 l 999 394 q 1026 417 1018 417 q 1034 411 1031 417 q 1039 396 1038 406 q 1038 356 1038 372 l 1038 218 "},"¿":{"ha":463,"x_min":57,"x_max":440,"o":"m 274 733 l 171 631 l 274 526 l 376 631 l 274 733 m 440 -10 l 421 1 q 315 -53 369 -53 q 260 -37 286 -53 q 204 58 204 -7 q 232 181 204 107 q 289 435 289 342 q 288 478 289 450 l 257 478 q 237 335 257 388 q 157 213 217 283 q 57 10 57 93 q 125 -132 57 -72 q 315 -193 197 -196 l 339 -192 l 440 -10 "},"À":{"ha":929,"x_min":3,"x_max":853,"o":"m 818 961 l 818 958 q 739 924 776 950 q 675 868 711 904 l 669 863 q 665 861 667 860 l 528 929 q 490 938 511 936 q 469 941 476 940 q 451 943 463 942 q 436 946 440 944 l 421 946 q 407 947 411 946 l 371 947 q 364 946 365 946 q 175 890 264 940 q 46 738 86 839 q 43 726 43 731 q 36 703 36 699 q 33 690 33 692 q 28 657 32 683 q 24 622 24 636 q 69 461 24 540 q 181 333 111 386 l 43 129 q 22 81 31 97 q 3 32 8 50 q 14 -1 3 10 q 40 -17 25 -17 l 43 -17 q 46 -15 44 -15 l 50 -15 q 58 -12 53 -14 q 62 -10 60 -11 q 65 -8 64 -8 q 68 -7 67 -7 l 68 -4 q 69 -3 68 -3 l 69 0 q 73 5 72 3 q 75 8 74 7 l 75 11 q 72 28 75 17 q 68 49 69 40 q 67 51 67 50 q 64 60 64 60 l 64 64 q 63 67 63 65 l 63 78 q 65 83 63 81 l 65 88 q 67 90 65 89 l 67 92 q 76 106 69 103 q 93 111 82 108 l 99 111 q 103 113 101 111 l 106 115 l 118 115 l 361 -17 l 576 143 q 649 0 592 65 q 666 -8 660 -4 q 686 -15 672 -12 l 690 -15 q 693 -17 692 -15 l 853 121 l 826 149 l 781 113 q 740 183 750 143 l 740 810 q 778 890 751 856 q 840 961 818 939 l 818 961 m 207 290 l 574 290 l 576 181 l 463 86 l 450 86 l 164 221 l 207 290 m 331 832 l 344 829 q 426 818 382 829 q 503 789 469 807 l 465 740 q 460 742 461 740 l 454 742 q 443 744 451 742 q 440 746 440 744 l 436 746 q 433 747 433 746 l 429 747 q 376 754 381 754 q 349 751 368 754 q 321 743 331 747 q 213 629 213 703 l 213 624 q 214 619 213 621 q 215 608 214 613 q 218 600 217 604 q 321 663 251 663 l 329 663 q 340 661 336 661 q 353 658 343 661 q 365 655 363 656 q 377 651 367 654 q 386 647 388 647 q 396 643 390 643 l 201 361 q 78 543 93 438 l 78 547 q 76 551 76 550 l 76 557 q 75 561 75 560 q 72 569 72 569 l 72 579 q 149 752 72 683 q 331 832 226 821 m 533 761 l 542 761 l 563 711 l 574 404 l 288 404 l 533 761 m 633 1071 l 671 1071 l 610 1324 l 453 1324 l 633 1071 "},"Á":{"ha":929,"x_min":3,"x_max":853,"o":"m 818 961 l 818 958 q 739 924 776 950 q 675 868 711 904 l 669 863 q 665 861 667 860 l 528 929 q 490 938 511 936 q 469 941 476 940 q 451 943 463 942 q 436 946 440 944 l 421 946 q 407 947 411 946 l 371 947 q 364 946 365 946 q 175 890 264 940 q 46 738 86 839 q 43 726 43 731 q 36 703 36 699 q 33 690 33 692 q 28 657 32 683 q 24 622 24 636 q 69 461 24 540 q 181 333 111 386 l 43 129 q 22 81 31 97 q 3 32 8 50 q 14 -1 3 10 q 40 -17 25 -17 l 43 -17 q 46 -15 44 -15 l 50 -15 q 58 -12 53 -14 q 62 -10 60 -11 q 65 -8 64 -8 q 68 -7 67 -7 l 68 -4 q 69 -3 68 -3 l 69 0 q 73 5 72 3 q 75 8 74 7 l 75 11 q 72 28 75 17 q 68 49 69 40 q 67 51 67 50 q 64 60 64 60 l 64 64 q 63 67 63 65 l 63 78 q 65 83 63 81 l 65 88 q 67 90 65 89 l 67 92 q 76 106 69 103 q 93 111 82 108 l 99 111 q 103 113 101 111 l 106 115 l 118 115 l 361 -17 l 576 143 q 649 0 592 65 q 666 -8 660 -4 q 686 -15 672 -12 l 690 -15 q 693 -17 692 -15 l 853 121 l 826 149 l 781 113 q 740 183 750 143 l 740 810 q 778 890 751 856 q 840 961 818 939 l 818 961 m 207 290 l 574 290 l 576 181 l 463 86 l 450 86 l 164 221 l 207 290 m 331 832 l 344 829 q 426 818 382 829 q 503 789 469 807 l 465 740 q 460 742 461 740 l 454 742 q 443 744 451 742 q 440 746 440 744 l 436 746 q 433 747 433 746 l 429 747 q 376 754 381 754 q 349 751 368 754 q 321 743 331 747 q 213 629 213 703 l 213 624 q 214 619 213 621 q 215 608 214 613 q 218 600 217 604 q 321 663 251 663 l 329 663 q 340 661 336 661 q 353 658 343 661 q 365 655 363 656 q 377 651 367 654 q 386 647 388 647 q 396 643 390 643 l 201 361 q 78 543 93 438 l 78 547 q 76 551 76 550 l 76 557 q 75 561 75 560 q 72 569 72 569 l 72 579 q 149 752 72 683 q 331 832 226 821 m 533 761 l 542 761 l 563 711 l 574 404 l 288 404 l 533 761 m 524 1031 l 706 1283 l 547 1283 l 486 1031 l 524 1031 "},"Â":{"ha":929,"x_min":3,"x_max":853,"o":"m 818 961 l 818 958 q 739 924 776 950 q 675 868 711 904 l 669 863 q 665 861 667 860 l 528 929 q 490 938 511 936 q 469 941 476 940 q 451 943 463 942 q 436 946 440 944 l 421 946 q 407 947 411 946 l 371 947 q 364 946 365 946 q 175 890 264 940 q 46 738 86 839 q 43 726 43 731 q 36 703 36 699 q 33 690 33 692 q 28 657 32 683 q 24 622 24 636 q 69 461 24 540 q 181 333 111 386 l 43 129 q 22 81 31 97 q 3 32 8 50 q 14 -1 3 10 q 40 -17 25 -17 l 43 -17 q 46 -15 44 -15 l 50 -15 q 58 -12 53 -14 q 62 -10 60 -11 q 65 -8 64 -8 q 68 -7 67 -7 l 68 -4 q 69 -3 68 -3 l 69 0 q 73 5 72 3 q 75 8 74 7 l 75 11 q 72 28 75 17 q 68 49 69 40 q 67 51 67 50 q 64 60 64 60 l 64 64 q 63 67 63 65 l 63 78 q 65 83 63 81 l 65 88 q 67 90 65 89 l 67 92 q 76 106 69 103 q 93 111 82 108 l 99 111 q 103 113 101 111 l 106 115 l 118 115 l 361 -17 l 576 143 q 649 0 592 65 q 666 -8 660 -4 q 686 -15 672 -12 l 690 -15 q 693 -17 692 -15 l 853 121 l 826 149 l 781 113 q 740 183 750 143 l 740 810 q 778 890 751 856 q 840 961 818 939 l 818 961 m 207 290 l 574 290 l 576 181 l 463 86 l 450 86 l 164 221 l 207 290 m 331 832 l 344 829 q 426 818 382 829 q 503 789 469 807 l 465 740 q 460 742 461 740 l 454 742 q 443 744 451 742 q 440 746 440 744 l 436 746 q 433 747 433 746 l 429 747 q 376 754 381 754 q 349 751 368 754 q 321 743 331 747 q 213 629 213 703 l 213 624 q 214 619 213 621 q 215 608 214 613 q 218 600 217 604 q 321 663 251 663 l 329 663 q 340 661 336 661 q 353 658 343 661 q 365 655 363 656 q 377 651 367 654 q 386 647 388 647 q 396 643 390 643 l 201 361 q 78 543 93 438 l 78 547 q 76 551 76 550 l 76 557 q 75 561 75 560 q 72 569 72 569 l 72 579 q 149 752 72 683 q 331 832 226 821 m 533 761 l 542 761 l 563 711 l 574 404 l 288 404 l 533 761 m 429 1031 l 590 1176 l 749 1031 l 789 1031 l 664 1285 l 517 1285 l 389 1031 l 429 1031 "},"Ã":{"ha":929,"x_min":3,"x_max":853,"o":"m 818 961 l 818 958 q 739 924 776 950 q 675 868 711 904 l 669 863 q 665 861 667 860 l 528 929 q 490 938 511 936 q 469 941 476 940 q 451 943 463 942 q 436 946 440 944 l 421 946 q 407 947 411 946 l 371 947 q 364 946 365 946 q 175 890 264 940 q 46 738 86 839 q 43 726 43 731 q 36 703 36 699 q 33 690 33 692 q 28 657 32 683 q 24 622 24 636 q 69 461 24 540 q 181 333 111 386 l 43 129 q 22 81 31 97 q 3 32 8 50 q 14 -1 3 10 q 40 -17 25 -17 l 43 -17 q 46 -15 44 -15 l 50 -15 q 58 -12 53 -14 q 62 -10 60 -11 q 65 -8 64 -8 q 68 -7 67 -7 l 68 -4 q 69 -3 68 -3 l 69 0 q 73 5 72 3 q 75 8 74 7 l 75 11 q 72 28 75 17 q 68 49 69 40 q 67 51 67 50 q 64 60 64 60 l 64 64 q 63 67 63 65 l 63 78 q 65 83 63 81 l 65 88 q 67 90 65 89 l 67 92 q 76 106 69 103 q 93 111 82 108 l 99 111 q 103 113 101 111 l 106 115 l 118 115 l 361 -17 l 576 143 q 649 0 592 65 q 666 -8 660 -4 q 686 -15 672 -12 l 690 -15 q 693 -17 692 -15 l 853 121 l 826 149 l 781 113 q 740 183 750 143 l 740 810 q 778 890 751 856 q 840 961 818 939 l 818 961 m 207 290 l 574 290 l 576 181 l 463 86 l 450 86 l 164 221 l 207 290 m 331 832 l 344 829 q 426 818 382 829 q 503 789 469 807 l 465 740 q 460 742 461 740 l 454 742 q 443 744 451 742 q 440 746 440 744 l 436 746 q 433 747 433 746 l 429 747 q 376 754 381 754 q 349 751 368 754 q 321 743 331 747 q 213 629 213 703 l 213 624 q 214 619 213 621 q 215 608 214 613 q 218 600 217 604 q 321 663 251 663 l 329 663 q 340 661 336 661 q 353 658 343 661 q 365 655 363 656 q 377 651 367 654 q 386 647 388 647 q 396 643 390 643 l 201 361 q 78 543 93 438 l 78 547 q 76 551 76 550 l 76 557 q 75 561 75 560 q 72 569 72 569 l 72 579 q 149 752 72 683 q 331 832 226 821 m 533 761 l 542 761 l 563 711 l 574 404 l 288 404 l 533 761 m 393 1051 q 458 1111 414 1111 q 554 1081 486 1111 q 660 1051 622 1051 q 801 1215 786 1051 l 776 1215 q 707 1154 754 1154 q 600 1188 674 1154 q 543 1210 560 1206 q 501 1217 518 1217 q 401 1160 442 1217 q 365 1051 375 1124 l 393 1051 "},"Ä":{"ha":929,"x_min":3,"x_max":853,"o":"m 818 961 l 818 958 q 739 924 776 950 q 675 868 711 904 l 669 863 q 665 861 667 860 l 528 929 q 490 938 511 936 q 469 941 476 940 q 451 943 463 942 q 436 946 440 944 l 421 946 q 407 947 411 946 l 371 947 q 364 946 365 946 q 175 890 264 940 q 46 738 86 839 q 43 726 43 731 q 36 703 36 699 q 33 690 33 692 q 28 657 32 683 q 24 622 24 636 q 69 461 24 540 q 181 333 111 386 l 43 129 q 22 81 31 97 q 3 32 8 50 q 14 -1 3 10 q 40 -17 25 -17 l 43 -17 q 46 -15 44 -15 l 50 -15 q 58 -12 53 -14 q 62 -10 60 -11 q 65 -8 64 -8 q 68 -7 67 -7 l 68 -4 q 69 -3 68 -3 l 69 0 q 73 5 72 3 q 75 8 74 7 l 75 11 q 72 28 75 17 q 68 49 69 40 q 67 51 67 50 q 64 60 64 60 l 64 64 q 63 67 63 65 l 63 78 q 65 83 63 81 l 65 88 q 67 90 65 89 l 67 92 q 76 106 69 103 q 93 111 82 108 l 99 111 q 103 113 101 111 l 106 115 l 118 115 l 361 -17 l 576 143 q 649 0 592 65 q 666 -8 660 -4 q 686 -15 672 -12 l 690 -15 q 693 -17 692 -15 l 853 121 l 826 149 l 781 113 q 740 183 750 143 l 740 810 q 778 890 751 856 q 840 961 818 939 l 818 961 m 207 290 l 574 290 l 576 181 l 463 86 l 450 86 l 164 221 l 207 290 m 331 832 l 344 829 q 426 818 382 829 q 503 789 469 807 l 465 740 q 460 742 461 740 l 454 742 q 443 744 451 742 q 440 746 440 744 l 436 746 q 433 747 433 746 l 429 747 q 376 754 381 754 q 349 751 368 754 q 321 743 331 747 q 213 629 213 703 l 213 624 q 214 619 213 621 q 215 608 214 613 q 218 600 217 604 q 321 663 251 663 l 329 663 q 340 661 336 661 q 353 658 343 661 q 365 655 363 656 q 377 651 367 654 q 386 647 388 647 q 396 643 390 643 l 201 361 q 78 543 93 438 l 78 547 q 76 551 76 550 l 76 557 q 75 561 75 560 q 72 569 72 569 l 72 579 q 149 752 72 683 q 331 832 226 821 m 533 761 l 542 761 l 563 711 l 574 404 l 288 404 l 533 761 m 758 1088 l 833 1161 l 758 1236 l 685 1161 l 758 1088 m 488 1088 l 561 1161 l 488 1236 l 413 1161 l 488 1088 "},"Å":{"ha":929,"x_min":3,"x_max":853,"o":"m 818 961 l 818 958 q 739 924 776 950 q 675 868 711 904 l 669 863 q 665 861 667 860 l 528 929 q 490 938 511 936 q 469 941 476 940 q 451 943 463 942 q 436 946 440 944 l 421 946 q 407 947 411 946 l 371 947 q 364 946 365 946 q 175 890 264 940 q 46 738 86 839 q 43 726 43 731 q 36 703 36 699 q 33 690 33 692 q 28 657 32 683 q 24 622 24 636 q 69 461 24 540 q 181 333 111 386 l 43 129 q 22 81 31 97 q 3 32 8 50 q 14 -1 3 10 q 40 -17 25 -17 l 43 -17 q 46 -15 44 -15 l 50 -15 q 58 -12 53 -14 q 62 -10 60 -11 q 65 -8 64 -8 q 68 -7 67 -7 l 68 -4 q 69 -3 68 -3 l 69 0 q 73 5 72 3 q 75 8 74 7 l 75 11 q 72 28 75 17 q 68 49 69 40 q 67 51 67 50 q 64 60 64 60 l 64 64 q 63 67 63 65 l 63 78 q 65 83 63 81 l 65 88 q 67 90 65 89 l 67 92 q 76 106 69 103 q 93 111 82 108 l 99 111 q 103 113 101 111 l 106 115 l 118 115 l 361 -17 l 576 143 q 649 0 592 65 q 666 -8 660 -4 q 686 -15 672 -12 l 690 -15 q 693 -17 692 -15 l 853 121 l 826 149 l 781 113 q 740 183 750 143 l 740 810 q 778 890 751 856 q 840 961 818 939 l 818 961 m 207 290 l 574 290 l 576 181 l 463 86 l 450 86 l 164 221 l 207 290 m 331 832 l 344 829 q 426 818 382 829 q 503 789 469 807 l 465 740 q 460 742 461 740 l 454 742 q 443 744 451 742 q 440 746 440 744 l 436 746 q 433 747 433 746 l 429 747 q 376 754 381 754 q 349 751 368 754 q 321 743 331 747 q 213 629 213 703 l 213 624 q 214 619 213 621 q 215 608 214 613 q 218 600 217 604 q 321 663 251 663 l 329 663 q 340 661 336 661 q 353 658 343 661 q 365 655 363 656 q 377 651 367 654 q 386 647 388 647 q 396 643 390 643 l 201 361 q 78 543 93 438 l 78 547 q 76 551 76 550 l 76 557 q 75 561 75 560 q 72 569 72 569 l 72 579 q 149 752 72 683 q 331 832 226 821 m 533 761 l 542 761 l 563 711 l 574 404 l 288 404 l 533 761 m 657 1278 q 576 1245 610 1278 q 543 1165 543 1213 q 576 1085 543 1118 q 657 1051 610 1051 q 737 1085 704 1051 q 769 1165 769 1118 q 737 1245 769 1213 q 657 1278 704 1278 m 657 1239 q 709 1217 688 1239 q 731 1165 731 1196 q 709 1113 731 1135 q 657 1090 688 1090 q 604 1113 626 1090 q 582 1165 582 1135 q 603 1217 582 1196 q 657 1239 625 1239 "},"Æ":{"ha":1376,"x_min":8,"x_max":1297,"o":"m 390 950 l 364 947 q 133 851 235 947 q 32 625 32 756 l 32 624 l 31 622 l 31 617 q 29 614 29 615 l 29 611 q 118 390 29 518 q 121 388 119 390 q 122 384 122 386 q 125 379 122 382 l 129 375 q 132 374 129 371 l 178 321 l 24 72 q 21 68 21 69 l 21 65 q 19 60 21 64 q 15 53 17 56 q 13 47 14 51 q 11 38 11 42 q 8 26 8 29 l 8 17 q 16 -8 8 4 q 49 -19 24 -19 q 67 -7 64 -17 q 72 8 72 -1 l 72 13 q 71 17 71 15 l 71 25 q 68 36 68 33 q 64 46 65 44 q 63 50 63 47 l 63 57 l 60 57 q 60 67 60 63 q 63 73 61 71 q 65 77 64 75 q 67 82 65 79 q 69 86 68 85 q 72 91 69 88 q 74 97 74 94 q 81 104 75 99 q 85 109 82 106 q 88 113 88 113 q 92 115 89 113 l 94 118 q 100 126 99 122 l 342 -11 l 364 -14 l 603 178 q 958 -17 714 -17 l 999 -17 q 1006 -15 1003 -15 l 1014 -15 q 1022 -14 1021 -14 q 1294 213 1192 13 l 1294 235 q 1201 158 1251 192 q 1090 113 1147 122 l 996 106 l 996 517 l 1190 517 l 1260 654 l 1131 654 l 1297 875 l 1292 875 q 1285 874 1286 874 l 1279 874 q 1272 872 1274 872 q 1257 869 1261 869 l 1233 869 q 1207 874 1219 869 q 1176 878 1193 874 q 1160 883 1167 878 l 1018 947 l 1004 947 l 772 700 l 772 313 q 768 306 769 310 q 767 296 767 301 q 756 271 761 281 q 740 247 744 253 q 737 253 738 250 q 736 258 736 257 q 731 270 733 267 q 725 281 729 274 q 719 296 721 289 q 715 306 718 303 q 699 354 703 338 q 689 410 690 383 l 681 619 l 692 769 q 748 872 710 828 q 843 947 786 915 l 824 944 q 717 915 768 944 q 628 847 665 885 q 514 912 569 885 q 390 950 458 939 m 213 285 l 557 285 l 585 192 l 436 72 l 158 201 l 213 285 m 958 807 l 958 97 q 757 204 835 110 q 804 257 788 240 q 875 346 844 301 q 913 453 913 400 l 913 767 l 958 807 m 331 832 l 331 829 l 338 829 q 343 828 342 828 l 357 828 q 419 810 388 828 q 476 778 443 803 l 457 740 q 444 743 451 742 q 431 746 438 744 q 422 749 424 747 l 415 749 q 401 754 407 749 l 376 751 l 365 751 q 354 750 361 750 l 333 746 q 244 699 290 738 q 204 617 204 664 l 204 613 q 206 611 204 611 l 206 604 q 207 603 206 603 l 207 600 q 244 635 221 617 q 304 661 281 661 q 311 663 307 661 l 326 663 q 331 661 329 661 q 358 653 343 660 q 385 635 378 642 l 194 353 l 189 356 q 125 437 151 389 q 89 536 99 485 l 89 539 q 88 542 88 540 l 88 550 q 86 551 86 551 l 86 556 q 83 564 83 564 l 83 574 q 158 745 83 667 q 331 832 232 824 m 508 738 l 551 686 l 536 393 l 278 393 l 508 738 m 996 781 l 1142 729 l 996 549 l 996 781 "},"Ç":{"ha":900,"x_min":0,"x_max":826,"o":"m 436 813 l 439 115 q 343 143 392 115 q 238 229 275 192 q 261 254 253 247 l 275 268 q 288 283 283 278 q 353 365 333 336 q 382 463 382 410 l 382 767 l 436 813 m 418 -14 l 503 -17 q 815 194 696 3 l 826 239 q 531 107 674 107 l 518 107 q 511 108 513 107 l 504 108 q 496 110 500 108 l 489 110 q 476 115 482 110 l 476 794 l 671 729 l 800 861 l 799 861 l 797 860 l 792 860 q 789 858 790 858 l 786 858 q 511 944 639 858 l 229 700 l 229 299 q 226 288 226 290 q 218 268 218 263 q 216 265 218 268 q 213 261 214 263 q 147 379 167 321 q 126 511 126 444 q 129 557 126 542 q 132 572 129 564 q 133 579 132 575 l 133 585 q 136 597 133 586 q 138 604 136 600 l 138 611 q 140 625 138 614 q 200 740 157 689 q 290 836 247 797 q 300 843 294 838 q 307 853 306 849 l 288 850 q 43 603 133 779 l 3 450 l 3 447 q 1 443 1 444 l 1 432 q 0 428 0 429 l 0 422 q 89 142 0 261 q 336 -11 182 15 l 393 -12 l 357 -85 l 367 -85 q 368 -83 368 -83 l 371 -83 q 372 -82 372 -82 l 375 -82 q 422 -91 401 -82 q 461 -119 442 -100 q 465 -135 463 -124 q 468 -144 465 -136 q 469 -149 468 -146 q 469 -153 469 -151 l 469 -167 q 468 -172 468 -171 l 468 -186 q 468 -189 468 -187 q 466 -192 467 -190 q 465 -196 465 -194 l 465 -201 q 464 -206 464 -204 q 440 -224 457 -215 q 410 -235 422 -233 q 406 -236 407 -235 l 392 -236 q 386 -235 389 -235 l 381 -235 q 375 -233 378 -233 q 331 -210 354 -228 q 297 -174 308 -192 l 246 -208 l 246 -219 l 254 -228 q 292 -242 267 -233 q 406 -265 363 -265 l 414 -265 q 422 -264 421 -264 l 432 -264 q 442 -262 433 -262 q 483 -254 483 -254 q 556 -175 536 -233 q 557 -168 556 -169 l 557 -161 q 558 -156 557 -157 l 558 -146 q 557 -142 557 -143 l 557 -133 q 547 -108 551 -118 q 529 -85 536 -93 q 514 -77 519 -81 q 497 -71 508 -74 q 467 -60 476 -64 q 442 -55 451 -57 q 418 -53 433 -53 l 413 -53 q 407 -54 408 -53 l 400 -54 q 397 -56 397 -54 l 394 -56 l 418 -14 "},"È":{"ha":929,"x_min":3,"x_max":826,"o":"m 514 950 l 229 694 q 231 688 229 689 l 231 679 q 232 672 231 674 l 232 664 q 235 633 232 653 q 238 603 235 622 q 240 556 238 600 q 242 533 242 533 l 242 485 q 240 458 240 467 q 226 301 232 353 l 213 267 l 213 268 l 211 268 l 211 269 q 209 271 210 271 q 208 272 208 271 l 207 272 l 207 275 q 129 514 129 378 l 129 515 q 128 517 128 517 l 128 521 q 126 522 126 522 l 126 525 q 328 867 126 693 l 301 864 q 47 614 147 814 q 38 593 40 600 q 29 574 35 582 q 3 407 3 463 q 32 247 3 324 q 188 56 78 128 q 429 -17 299 -17 l 456 -17 q 469 -15 460 -15 l 485 -15 q 501 -12 489 -14 q 519 -11 513 -11 l 540 -7 q 583 2 569 -3 q 607 8 597 7 q 635 21 625 15 q 760 107 707 56 q 826 235 818 163 q 690 144 768 181 q 533 107 613 107 l 513 107 q 492 111 513 107 l 483 111 q 480 112 481 111 q 476 115 479 113 l 476 517 l 708 517 l 778 660 l 628 660 l 826 872 l 821 872 q 814 871 815 871 l 807 871 q 800 869 801 869 q 785 867 789 867 l 772 867 q 514 950 636 867 m 439 813 l 439 113 q 238 232 325 140 l 243 238 q 247 243 243 239 l 258 254 q 374 399 310 306 l 385 447 l 385 764 l 439 813 m 476 792 l 649 726 l 476 546 l 476 792 m 613 1010 l 650 1010 l 589 1263 l 431 1263 l 613 1010 "},"É":{"ha":929,"x_min":3,"x_max":826,"o":"m 514 950 l 229 694 q 231 688 229 689 l 231 679 q 232 672 231 674 l 232 664 q 235 633 232 653 q 238 603 235 622 q 240 556 238 600 q 242 533 242 533 l 242 485 q 240 458 240 467 q 226 301 232 353 l 213 267 l 213 268 l 211 268 l 211 269 q 209 271 210 271 q 208 272 208 271 l 207 272 l 207 275 q 129 514 129 378 l 129 515 q 128 517 128 517 l 128 521 q 126 522 126 522 l 126 525 q 328 867 126 693 l 301 864 q 47 614 147 814 q 38 593 40 600 q 29 574 35 582 q 3 407 3 463 q 32 247 3 324 q 188 56 78 128 q 429 -17 299 -17 l 456 -17 q 469 -15 460 -15 l 485 -15 q 501 -12 489 -14 q 519 -11 513 -11 l 540 -7 q 583 2 569 -3 q 607 8 597 7 q 635 21 625 15 q 760 107 707 56 q 826 235 818 163 q 690 144 768 181 q 533 107 613 107 l 513 107 q 492 111 513 107 l 483 111 q 480 112 481 111 q 476 115 479 113 l 476 517 l 708 517 l 778 660 l 628 660 l 826 872 l 821 872 q 814 871 815 871 l 807 871 q 800 869 801 869 q 785 867 789 867 l 772 867 q 514 950 636 867 m 439 813 l 439 113 q 238 232 325 140 l 243 238 q 247 243 243 239 l 258 254 q 374 399 310 306 l 385 447 l 385 764 l 439 813 m 476 792 l 649 726 l 476 546 l 476 792 m 429 1010 l 611 1263 l 453 1263 l 393 1010 l 429 1010 "},"Ê":{"ha":929,"x_min":3,"x_max":826,"o":"m 514 950 l 229 694 q 231 688 229 689 l 231 679 q 232 672 231 674 l 232 664 q 235 633 232 653 q 238 603 235 622 q 240 556 238 600 q 242 533 242 533 l 242 485 q 240 458 240 467 q 226 301 232 353 l 213 267 l 213 268 l 211 268 l 211 269 q 209 271 210 271 q 208 272 208 271 l 207 272 l 207 275 q 129 514 129 378 l 129 515 q 128 517 128 517 l 128 521 q 126 522 126 522 l 126 525 q 328 867 126 693 l 301 864 q 47 614 147 814 q 38 593 40 600 q 29 574 35 582 q 3 407 3 463 q 32 247 3 324 q 188 56 78 128 q 429 -17 299 -17 l 456 -17 q 469 -15 460 -15 l 485 -15 q 501 -12 489 -14 q 519 -11 513 -11 l 540 -7 q 583 2 569 -3 q 607 8 597 7 q 635 21 625 15 q 760 107 707 56 q 826 235 818 163 q 690 144 768 181 q 533 107 613 107 l 513 107 q 492 111 513 107 l 483 111 q 480 112 481 111 q 476 115 479 113 l 476 517 l 708 517 l 778 660 l 628 660 l 826 872 l 821 872 q 814 871 815 871 l 807 871 q 800 869 801 869 q 785 867 789 867 l 772 867 q 514 950 636 867 m 439 813 l 439 113 q 238 232 325 140 l 243 238 q 247 243 243 239 l 258 254 q 374 399 310 306 l 385 447 l 385 764 l 439 813 m 476 792 l 649 726 l 476 546 l 476 792 m 356 1011 l 517 1157 l 674 1011 l 715 1011 l 589 1264 l 443 1264 l 315 1011 l 356 1011 "},"Ë":{"ha":929,"x_min":3,"x_max":826,"o":"m 514 950 l 229 694 q 231 688 229 689 l 231 679 q 232 672 231 674 l 232 664 q 235 633 232 653 q 238 603 235 622 q 240 556 238 600 q 242 533 242 533 l 242 485 q 240 458 240 467 q 226 301 232 353 l 213 267 l 213 268 l 211 268 l 211 269 q 209 271 210 271 q 208 272 208 271 l 207 272 l 207 275 q 129 514 129 378 l 129 515 q 128 517 128 517 l 128 521 q 126 522 126 522 l 126 525 q 328 867 126 693 l 301 864 q 47 614 147 814 q 38 593 40 600 q 29 574 35 582 q 3 407 3 463 q 32 247 3 324 q 188 56 78 128 q 429 -17 299 -17 l 456 -17 q 469 -15 460 -15 l 485 -15 q 501 -12 489 -14 q 519 -11 513 -11 l 540 -7 q 583 2 569 -3 q 607 8 597 7 q 635 21 625 15 q 760 107 707 56 q 826 235 818 163 q 690 144 768 181 q 533 107 613 107 l 513 107 q 492 111 513 107 l 483 111 q 480 112 481 111 q 476 115 479 113 l 476 517 l 708 517 l 778 660 l 628 660 l 826 872 l 821 872 q 814 871 815 871 l 807 871 q 800 869 801 869 q 785 867 789 867 l 772 867 q 514 950 636 867 m 439 813 l 439 113 q 238 232 325 140 l 243 238 q 247 243 243 239 l 258 254 q 374 399 310 306 l 385 447 l 385 764 l 439 813 m 476 792 l 649 726 l 476 546 l 476 792 m 650 1054 l 725 1128 l 650 1203 l 576 1128 l 650 1054 m 379 1054 l 454 1128 l 379 1203 l 306 1128 l 379 1054 "},"Ì":{"ha":779,"x_min":17,"x_max":714,"o":"m 207 944 l 207 942 q 113 883 151 932 q 72 778 75 835 q 109 825 89 808 q 161 850 129 842 q 181 847 172 847 q 203 844 194 844 q 226 842 211 844 q 249 838 242 839 q 293 835 279 835 q 332 838 307 835 q 374 849 361 846 q 392 856 386 853 q 404 862 397 858 q 414 867 411 865 q 285 571 285 738 q 167 540 217 571 q 97 444 111 507 q 111 449 103 447 q 124 453 119 451 q 149 460 140 457 q 199 471 182 467 l 210 468 q 325 326 303 468 q 326 313 325 317 l 326 299 q 328 285 326 289 l 328 267 q 326 261 326 264 l 326 242 q 324 226 324 231 l 324 213 q 319 199 321 203 q 309 188 317 196 q 299 178 301 181 q 294 175 297 176 q 290 172 292 174 q 281 168 282 169 q 278 167 279 167 q 275 169 275 167 l 194 167 q 183 165 190 167 q 167 160 176 164 q 156 157 158 157 q 142 151 146 154 q 57 96 97 135 q 17 11 17 57 q 19 -1 17 3 q 22 -10 21 -4 l 22 -11 q 24 -17 22 -14 q 26 -21 25 -19 l 26 -24 q 63 19 38 0 q 138 49 97 49 l 140 49 q 144 47 143 47 l 156 47 q 160 46 158 46 l 164 46 l 167 49 l 367 -14 l 375 -14 q 385 -15 381 -14 l 397 -15 q 403 -17 401 -15 l 418 -17 q 428 -15 419 -15 l 439 -15 q 452 -12 443 -14 q 467 -11 461 -11 l 483 -7 q 499 -4 494 -4 q 624 94 589 18 q 668 246 660 169 q 669 261 668 256 l 669 276 q 671 292 669 286 l 671 332 q 669 336 669 335 l 669 357 q 668 367 668 358 l 619 735 l 619 739 q 618 743 618 742 q 616 752 617 750 q 615 756 615 754 l 615 758 q 614 761 614 760 q 611 774 611 769 l 611 786 q 613 804 611 797 q 617 825 615 818 l 617 831 q 621 842 619 838 q 622 850 622 847 l 622 854 q 624 860 622 858 q 625 864 625 863 q 647 898 633 888 q 681 919 660 908 q 686 922 683 921 q 692 924 689 924 q 699 926 696 924 q 703 929 701 928 q 708 933 706 931 q 714 936 711 935 l 711 944 l 692 942 q 563 885 617 942 q 490 761 510 829 l 482 608 l 536 156 l 536 131 q 535 122 535 126 l 535 114 q 533 107 533 110 q 531 94 531 99 l 526 82 q 522 69 522 69 q 520 65 522 68 q 517 61 518 63 q 513 57 517 60 q 508 53 510 54 q 504 51 507 53 q 500 48 501 49 q 495 46 499 47 q 490 43 492 44 q 481 40 482 40 q 468 38 469 38 l 449 38 q 444 39 447 38 q 439 39 442 39 q 422 43 436 39 q 368 69 394 51 q 322 106 358 76 l 306 122 q 297 131 301 129 l 290 138 l 307 138 q 315 138 313 138 q 321 140 318 139 q 325 140 324 140 q 347 147 332 142 q 368 153 361 151 q 410 169 392 161 q 440 210 432 189 q 457 261 456 235 q 458 268 457 264 l 458 274 q 460 281 458 279 l 460 307 l 453 331 q 429 506 435 447 q 422 606 422 569 l 422 661 q 425 688 422 668 l 425 699 q 426 704 425 703 l 426 710 q 428 718 426 714 l 428 740 q 536 942 442 838 q 519 939 525 939 q 503 936 508 936 l 501 935 l 500 935 q 464 929 476 932 q 428 929 436 926 l 414 926 q 369 928 385 926 q 349 932 363 929 q 326 935 335 935 l 282 939 q 238 944 246 942 l 207 944 m 594 1043 l 632 1043 l 528 1296 l 371 1296 l 594 1043 "},"Í":{"ha":779,"x_min":17,"x_max":714,"o":"m 207 944 l 207 942 q 113 883 151 932 q 72 778 75 835 q 109 825 89 808 q 161 850 129 842 q 181 847 172 847 q 203 844 194 844 q 226 842 211 844 q 249 838 242 839 q 293 835 279 835 q 332 838 307 835 q 374 849 361 846 q 392 856 386 853 q 404 862 397 858 q 414 867 411 865 q 285 571 285 738 q 167 540 217 571 q 97 444 111 507 q 111 449 103 447 q 124 453 119 451 q 149 460 140 457 q 199 471 182 467 l 210 468 q 325 326 303 468 q 326 313 325 317 l 326 299 q 328 285 326 289 l 328 267 q 326 261 326 264 l 326 242 q 324 226 324 231 l 324 213 q 319 199 321 203 q 309 188 317 196 q 299 178 301 181 q 294 175 297 176 q 290 172 292 174 q 281 168 282 169 q 278 167 279 167 q 275 169 275 167 l 194 167 q 183 165 190 167 q 167 160 176 164 q 156 157 158 157 q 142 151 146 154 q 57 96 97 135 q 17 11 17 57 q 19 -1 17 3 q 22 -10 21 -4 l 22 -11 q 24 -17 22 -14 q 26 -21 25 -19 l 26 -24 q 63 19 38 0 q 138 49 97 49 l 140 49 q 144 47 143 47 l 156 47 q 160 46 158 46 l 164 46 l 167 49 l 367 -14 l 375 -14 q 385 -15 381 -14 l 397 -15 q 403 -17 401 -15 l 418 -17 q 428 -15 419 -15 l 439 -15 q 452 -12 443 -14 q 467 -11 461 -11 l 483 -7 q 499 -4 494 -4 q 624 94 589 18 q 668 246 660 169 q 669 261 668 256 l 669 276 q 671 292 669 286 l 671 332 q 669 336 669 335 l 669 357 q 668 367 668 358 l 619 735 l 619 739 q 618 743 618 742 q 616 752 617 750 q 615 756 615 754 l 615 758 q 614 761 614 760 q 611 774 611 769 l 611 786 q 613 804 611 797 q 617 825 615 818 l 617 831 q 621 842 619 838 q 622 850 622 847 l 622 854 q 624 860 622 858 q 625 864 625 863 q 647 898 633 888 q 681 919 660 908 q 686 922 683 921 q 692 924 689 924 q 699 926 696 924 q 703 929 701 928 q 708 933 706 931 q 714 936 711 935 l 711 944 l 692 942 q 563 885 617 942 q 490 761 510 829 l 482 608 l 536 156 l 536 131 q 535 122 535 126 l 535 114 q 533 107 533 110 q 531 94 531 99 l 526 82 q 522 69 522 69 q 520 65 522 68 q 517 61 518 63 q 513 57 517 60 q 508 53 510 54 q 504 51 507 53 q 500 48 501 49 q 495 46 499 47 q 490 43 492 44 q 481 40 482 40 q 468 38 469 38 l 449 38 q 444 39 447 38 q 439 39 442 39 q 422 43 436 39 q 368 69 394 51 q 322 106 358 76 l 306 122 q 297 131 301 129 l 290 138 l 307 138 q 315 138 313 138 q 321 140 318 139 q 325 140 324 140 q 347 147 332 142 q 368 153 361 151 q 410 169 392 161 q 440 210 432 189 q 457 261 456 235 q 458 268 457 264 l 458 274 q 460 281 458 279 l 460 307 l 453 331 q 429 506 435 447 q 422 606 422 569 l 422 661 q 425 688 422 668 l 425 699 q 426 704 425 703 l 426 710 q 428 718 426 714 l 428 740 q 536 942 442 838 q 519 939 525 939 q 503 936 508 936 l 501 935 l 500 935 q 464 929 476 932 q 428 929 436 926 l 414 926 q 369 928 385 926 q 349 932 363 929 q 326 935 335 935 l 282 939 q 238 944 246 942 l 207 944 m 497 1043 l 679 1296 l 521 1296 l 460 1043 l 497 1043 "},"Î":{"ha":779,"x_min":17,"x_max":714,"o":"m 207 944 l 207 942 q 113 883 151 932 q 72 778 75 835 q 109 825 89 808 q 161 850 129 842 q 181 847 172 847 q 203 844 194 844 q 226 842 211 844 q 249 838 242 839 q 293 835 279 835 q 332 838 307 835 q 374 849 361 846 q 392 856 386 853 q 404 862 397 858 q 414 867 411 865 q 285 571 285 738 q 167 540 217 571 q 97 444 111 507 q 111 449 103 447 q 124 453 119 451 q 149 460 140 457 q 199 471 182 467 l 210 468 q 325 326 303 468 q 326 313 325 317 l 326 299 q 328 285 326 289 l 328 267 q 326 261 326 264 l 326 242 q 324 226 324 231 l 324 213 q 319 199 321 203 q 309 188 317 196 q 299 178 301 181 q 294 175 297 176 q 290 172 292 174 q 281 168 282 169 q 278 167 279 167 q 275 169 275 167 l 194 167 q 183 165 190 167 q 167 160 176 164 q 156 157 158 157 q 142 151 146 154 q 57 96 97 135 q 17 11 17 57 q 19 -1 17 3 q 22 -10 21 -4 l 22 -11 q 24 -17 22 -14 q 26 -21 25 -19 l 26 -24 q 63 19 38 0 q 138 49 97 49 l 140 49 q 144 47 143 47 l 156 47 q 160 46 158 46 l 164 46 l 167 49 l 367 -14 l 375 -14 q 385 -15 381 -14 l 397 -15 q 403 -17 401 -15 l 418 -17 q 428 -15 419 -15 l 439 -15 q 452 -12 443 -14 q 467 -11 461 -11 l 483 -7 q 499 -4 494 -4 q 624 94 589 18 q 668 246 660 169 q 669 261 668 256 l 669 276 q 671 292 669 286 l 671 332 q 669 336 669 335 l 669 357 q 668 367 668 358 l 619 735 l 619 739 q 618 743 618 742 q 616 752 617 750 q 615 756 615 754 l 615 758 q 614 761 614 760 q 611 774 611 769 l 611 786 q 613 804 611 797 q 617 825 615 818 l 617 831 q 621 842 619 838 q 622 850 622 847 l 622 854 q 624 860 622 858 q 625 864 625 863 q 647 898 633 888 q 681 919 660 908 q 686 922 683 921 q 692 924 689 924 q 699 926 696 924 q 703 929 701 928 q 708 933 706 931 q 714 936 711 935 l 711 944 l 692 942 q 563 885 617 942 q 490 761 510 829 l 482 608 l 536 156 l 536 131 q 535 122 535 126 l 535 114 q 533 107 533 110 q 531 94 531 99 l 526 82 q 522 69 522 69 q 520 65 522 68 q 517 61 518 63 q 513 57 517 60 q 508 53 510 54 q 504 51 507 53 q 500 48 501 49 q 495 46 499 47 q 490 43 492 44 q 481 40 482 40 q 468 38 469 38 l 449 38 q 444 39 447 38 q 439 39 442 39 q 422 43 436 39 q 368 69 394 51 q 322 106 358 76 l 306 122 q 297 131 301 129 l 290 138 l 307 138 q 315 138 313 138 q 321 140 318 139 q 325 140 324 140 q 347 147 332 142 q 368 153 361 151 q 410 169 392 161 q 440 210 432 189 q 457 261 456 235 q 458 268 457 264 l 458 274 q 460 281 458 279 l 460 307 l 453 331 q 429 506 435 447 q 422 606 422 569 l 422 661 q 425 688 422 668 l 425 699 q 426 704 425 703 l 426 710 q 428 718 426 714 l 428 740 q 536 942 442 838 q 519 939 525 939 q 503 936 508 936 l 501 935 l 500 935 q 464 929 476 932 q 428 929 436 926 l 414 926 q 369 928 385 926 q 349 932 363 929 q 326 935 335 935 l 282 939 q 238 944 246 942 l 207 944 m 328 1011 l 489 1157 l 646 1011 l 688 1011 l 561 1264 l 415 1264 l 288 1011 l 328 1011 "},"Ï":{"ha":779,"x_min":17,"x_max":714,"o":"m 207 944 l 207 942 q 113 883 151 932 q 72 778 75 835 q 109 825 89 808 q 161 850 129 842 q 181 847 172 847 q 203 844 194 844 q 226 842 211 844 q 249 838 242 839 q 293 835 279 835 q 332 838 307 835 q 374 849 361 846 q 392 856 386 853 q 404 862 397 858 q 414 867 411 865 q 285 571 285 738 q 167 540 217 571 q 97 444 111 507 q 111 449 103 447 q 124 453 119 451 q 149 460 140 457 q 199 471 182 467 l 210 468 q 325 326 303 468 q 326 313 325 317 l 326 299 q 328 285 326 289 l 328 267 q 326 261 326 264 l 326 242 q 324 226 324 231 l 324 213 q 319 199 321 203 q 309 188 317 196 q 299 178 301 181 q 294 175 297 176 q 290 172 292 174 q 281 168 282 169 q 278 167 279 167 q 275 169 275 167 l 194 167 q 183 165 190 167 q 167 160 176 164 q 156 157 158 157 q 142 151 146 154 q 57 96 97 135 q 17 11 17 57 q 19 -1 17 3 q 22 -10 21 -4 l 22 -11 q 24 -17 22 -14 q 26 -21 25 -19 l 26 -24 q 63 19 38 0 q 138 49 97 49 l 140 49 q 144 47 143 47 l 156 47 q 160 46 158 46 l 164 46 l 167 49 l 367 -14 l 375 -14 q 385 -15 381 -14 l 397 -15 q 403 -17 401 -15 l 418 -17 q 428 -15 419 -15 l 439 -15 q 452 -12 443 -14 q 467 -11 461 -11 l 483 -7 q 499 -4 494 -4 q 624 94 589 18 q 668 246 660 169 q 669 261 668 256 l 669 276 q 671 292 669 286 l 671 332 q 669 336 669 335 l 669 357 q 668 367 668 358 l 619 735 l 619 739 q 618 743 618 742 q 616 752 617 750 q 615 756 615 754 l 615 758 q 614 761 614 760 q 611 774 611 769 l 611 786 q 613 804 611 797 q 617 825 615 818 l 617 831 q 621 842 619 838 q 622 850 622 847 l 622 854 q 624 860 622 858 q 625 864 625 863 q 647 898 633 888 q 681 919 660 908 q 686 922 683 921 q 692 924 689 924 q 699 926 696 924 q 703 929 701 928 q 708 933 706 931 q 714 936 711 935 l 711 944 l 692 942 q 563 885 617 942 q 490 761 510 829 l 482 608 l 536 156 l 536 131 q 535 122 535 126 l 535 114 q 533 107 533 110 q 531 94 531 99 l 526 82 q 522 69 522 69 q 520 65 522 68 q 517 61 518 63 q 513 57 517 60 q 508 53 510 54 q 504 51 507 53 q 500 48 501 49 q 495 46 499 47 q 490 43 492 44 q 481 40 482 40 q 468 38 469 38 l 449 38 q 444 39 447 38 q 439 39 442 39 q 422 43 436 39 q 368 69 394 51 q 322 106 358 76 l 306 122 q 297 131 301 129 l 290 138 l 307 138 q 315 138 313 138 q 321 140 318 139 q 325 140 324 140 q 347 147 332 142 q 368 153 361 151 q 410 169 392 161 q 440 210 432 189 q 457 261 456 235 q 458 268 457 264 l 458 274 q 460 281 458 279 l 460 307 l 453 331 q 429 506 435 447 q 422 606 422 569 l 422 661 q 425 688 422 668 l 425 699 q 426 704 425 703 l 426 710 q 428 718 426 714 l 428 740 q 536 942 442 838 q 519 939 525 939 q 503 936 508 936 l 501 935 l 500 935 q 464 929 476 932 q 428 929 436 926 l 414 926 q 369 928 385 926 q 349 932 363 929 q 326 935 335 935 l 282 939 q 238 944 246 942 l 207 944 m 622 1054 l 697 1128 l 622 1203 l 549 1128 l 622 1054 m 351 1054 l 426 1128 l 351 1203 l 278 1128 l 351 1054 "},"Ð":{"ha":1169,"x_min":19,"x_max":1044,"o":"m 738 313 l 746 310 l 753 310 q 760 308 757 308 l 767 308 q 774 307 771 307 q 828 290 803 306 q 878 261 863 272 l 882 240 q 885 218 882 232 l 885 196 q 886 185 885 189 l 886 140 q 885 133 885 136 l 885 128 q 883 121 883 122 q 817 139 839 133 q 611 178 732 160 l 611 258 q 650 285 635 279 q 717 307 693 303 q 738 313 735 311 m 872 479 l 881 301 q 872 306 878 304 q 864 310 867 308 q 814 328 831 321 q 779 333 790 333 q 746 336 757 336 q 729 336 740 336 q 714 335 718 335 q 681 328 693 332 q 614 304 657 322 l 614 474 q 743 433 681 433 q 775 436 753 433 q 825 450 808 444 q 840 460 831 456 q 857 467 849 465 q 864 472 858 468 q 872 479 869 476 m 611 749 l 635 746 l 643 746 q 651 744 650 744 l 671 744 q 688 742 682 742 l 697 742 q 706 740 703 740 q 722 735 719 738 q 734 731 731 732 q 740 728 738 729 q 817 665 779 708 q 864 574 854 621 q 865 568 864 569 l 865 561 q 867 556 865 557 l 867 539 q 865 536 865 538 l 865 529 q 864 522 864 524 q 861 511 861 514 q 814 481 831 490 q 764 465 797 472 l 761 465 q 757 464 758 464 l 749 464 q 743 463 746 463 l 718 463 q 697 467 717 463 q 642 488 661 475 q 611 533 618 500 l 611 749 m 504 533 q 506 561 506 551 l 506 575 q 510 615 506 586 q 511 629 510 624 l 511 642 q 512 654 511 650 q 514 663 513 658 q 514 668 514 667 q 525 710 522 697 q 529 721 526 714 q 532 731 532 728 q 542 751 539 744 l 579 754 l 579 181 q 567 182 571 181 l 554 182 q 529 185 549 182 l 506 185 q 485 189 490 185 l 453 186 q 508 325 497 260 l 508 336 q 507 346 507 342 q 504 370 506 358 q 501 392 503 382 q 500 433 500 401 l 500 454 q 501 499 500 469 l 561 499 l 561 533 l 504 533 m 393 533 l 393 540 q 394 564 394 565 l 394 572 q 396 581 394 579 q 397 610 396 593 q 399 624 399 622 l 399 638 q 479 746 414 701 q 485 747 482 746 q 489 750 488 749 l 493 750 l 494 751 l 496 751 q 500 754 499 751 l 508 751 q 485 665 496 715 q 475 621 475 621 q 467 533 469 563 l 393 533 m 71 533 l 71 499 l 235 499 q 226 428 228 464 l 189 425 l 181 425 q 69 393 115 425 q 19 293 19 356 l 22 296 q 26 300 25 299 q 54 319 46 313 q 86 339 75 332 l 103 336 q 152 317 131 336 q 186 268 174 297 q 188 265 186 265 q 192 256 189 258 l 192 250 q 194 244 192 247 l 194 239 q 196 226 194 233 q 199 218 197 219 l 199 213 q 168 121 199 167 q 106 44 157 103 q 82 19 90 28 q 60 -3 60 -3 l 78 -3 q 126 26 93 4 l 178 61 q 322 184 258 115 q 396 347 385 253 q 392 428 392 385 q 390 447 390 433 l 390 468 q 390 499 390 482 l 465 499 l 465 461 q 467 449 465 457 q 467 436 467 442 q 471 389 467 435 q 472 366 471 378 q 474 353 474 354 l 474 342 q 438 232 468 279 q 358 149 403 178 l 72 -37 l 72 -39 l 71 -39 q 69 -42 69 -40 q 68 -45 69 -43 q 65 -47 67 -47 q 63 -51 64 -47 q 60 -62 60 -60 l 69 -62 q 71 -61 71 -61 l 79 -61 q 82 -60 81 -60 l 86 -60 q 281 21 179 -6 q 347 35 324 32 q 417 42 393 40 q 428 43 425 42 l 463 43 q 551 38 507 43 q 640 25 582 38 q 699 13 699 13 q 813 -17 794 -11 q 1042 129 932 88 q 1043 163 1042 140 q 1044 197 1044 186 l 1044 290 q 1043 314 1043 297 l 1043 361 q 1039 433 1043 363 q 1033 503 1036 492 q 1025 547 1029 532 q 1021 568 1021 563 q 1015 590 1018 583 q 972 719 999 658 q 890 835 943 788 q 765 896 833 886 q 617 910 668 906 l 149 890 q 54 967 85 903 l 54 960 q 52 956 53 957 q 51 949 51 954 q 50 943 50 944 l 50 940 l 49 939 q 46 924 46 928 l 46 899 q 88 800 51 849 q 181 749 133 749 l 436 746 q 244 533 290 668 l 71 533 "},"Ñ":{"ha":1107,"x_min":-57,"x_max":1039,"o":"m 649 932 l 304 721 l 304 600 q 199 619 240 619 l 189 619 q 167 617 174 617 q 160 617 164 617 q 154 615 156 615 l 138 611 q 121 606 124 608 q 111 595 114 600 q 103 585 108 590 l 115 582 q 226 547 175 582 q 304 457 276 511 l 304 450 q 303 443 303 444 q 299 431 303 435 q 288 433 296 431 q 269 441 269 440 q 257 444 268 442 q 236 450 240 449 q 189 457 201 457 l 179 457 q 136 442 157 456 q 100 404 115 429 q 103 401 100 401 l 104 401 q 106 399 106 400 q 110 397 107 397 l 111 397 q 113 396 113 396 q 129 397 124 396 l 146 401 l 150 401 q 153 403 151 401 l 160 403 q 163 404 161 403 l 164 404 q 182 401 168 404 q 192 399 190 399 q 215 386 204 392 q 220 385 218 386 q 226 381 222 383 q 236 375 229 378 q 240 374 238 375 q 243 372 242 372 q 248 368 244 371 q 253 364 251 365 q 262 358 260 363 q 267 351 264 353 l 272 346 q 280 338 279 339 q 283 335 281 338 q 285 332 285 333 q 288 328 286 331 q 290 324 290 325 q 294 315 290 328 q 300 304 300 308 q 301 299 300 300 l 301 285 l 289 289 q 276 292 285 289 l 261 292 q 256 293 257 292 l 250 293 q 149 253 189 293 l 149 251 l 147 250 q 146 246 146 247 l 143 243 l 143 242 q 142 239 142 240 l 142 238 q 140 235 140 236 l 143 226 q 146 228 144 226 l 147 228 q 150 229 149 228 l 153 229 q 162 231 158 229 q 167 233 165 232 q 172 235 169 235 q 183 236 174 235 q 199 242 193 238 l 204 239 l 215 239 q 304 193 264 232 q 350 106 350 149 l 350 94 q 349 90 349 92 l 349 82 q 347 78 347 79 l 347 72 q 309 34 338 47 q 253 21 281 21 l 232 21 q 211 24 225 21 q 203 24 204 24 q 199 26 201 25 q 193 26 196 26 q 176 29 188 26 q 149 33 157 32 q 126 40 132 36 l 113 38 q 10 2 58 38 q -57 -83 -39 -33 q -53 -81 -54 -81 l -51 -81 l -50 -79 q -8 -62 -32 -71 q 35 -54 8 -54 l 38 -54 q 40 -56 39 -54 l 210 -106 l 242 -106 q 435 -25 351 -106 q 528 161 518 56 l 528 339 q 578 372 551 363 q 633 389 608 389 l 646 389 q 651 390 650 389 l 668 390 q 679 389 672 389 q 786 342 754 374 q 719 161 764 265 q 635 -6 678 64 l 614 -92 l 632 -97 q 707 -18 660 -42 q 810 3 750 3 q 843 0 821 3 l 860 0 q 869 -1 863 0 q 878 -1 875 -1 q 894 -6 883 -3 q 911 -8 906 -8 q 944 -17 928 -15 l 1039 143 l 1010 158 l 985 126 q 946 135 965 133 l 925 139 q 904 142 918 139 l 883 142 q 874 143 875 142 l 851 143 q 839 142 846 142 q 783 135 832 142 q 757 132 761 132 l 838 238 l 942 436 q 950 467 944 447 q 958 496 956 486 q 976 576 967 525 q 979 597 976 583 q 899 796 979 711 q 714 918 839 857 l 649 932 m 496 786 l 496 274 q 494 253 494 267 l 494 233 q 493 213 493 219 l 489 158 q 486 132 486 122 q 482 107 485 122 q 479 101 479 104 l 479 99 q 478 96 478 97 q 432 32 460 60 q 361 3 396 3 l 357 3 q 354 4 354 3 l 346 4 q 344 6 344 4 l 342 6 q 411 71 383 29 q 447 189 447 125 l 447 757 l 496 786 m 821 571 l 821 554 q 822 547 821 549 l 822 525 q 824 518 822 519 l 824 511 q 797 376 824 433 q 783 383 793 379 q 768 388 774 386 q 753 393 758 392 q 740 397 757 393 q 715 402 722 401 q 692 407 708 403 q 649 411 675 411 q 590 404 629 411 q 531 385 550 393 l 531 565 l 551 553 q 571 540 565 543 q 585 534 576 538 q 597 528 593 531 q 610 524 601 526 q 622 518 619 521 q 671 511 643 511 q 771 538 707 511 q 821 571 808 560 m 528 786 l 546 783 q 576 781 554 783 q 610 775 604 778 q 736 712 676 758 q 813 606 796 665 q 761 563 792 579 q 678 536 710 536 l 650 536 q 578 561 610 543 q 528 625 543 585 l 528 786 m 456 1051 q 522 1111 476 1111 q 617 1081 549 1111 q 724 1051 685 1051 q 865 1215 849 1051 l 840 1215 q 771 1154 818 1154 q 663 1188 736 1154 q 607 1210 622 1206 q 564 1217 581 1217 q 464 1160 504 1217 q 428 1051 439 1124 l 456 1051 "},"Ò":{"ha":1050,"x_min":-6,"x_max":956,"o":"m 490 944 l 49 651 l 6 503 l -6 399 l 14 247 q 149 54 47 128 q 371 -17 246 -17 l 408 -17 q 417 -15 415 -15 l 424 -15 q 431 -14 429 -14 l 571 40 l 668 106 l 821 239 q 914 379 876 315 q 956 539 956 450 q 838 796 956 694 q 579 928 724 893 q 535 936 550 935 q 524 939 532 938 q 513 940 517 940 q 490 944 497 940 m 608 401 l 614 399 q 644 396 622 399 q 742 356 703 389 q 778 307 768 340 q 654 154 742 213 q 471 83 563 93 l 471 307 q 524 368 485 340 q 601 397 564 392 q 604 399 603 397 l 606 399 q 608 401 607 397 m 376 794 l 436 794 l 436 97 q 324 131 374 106 q 232 204 274 157 l 342 325 l 343 326 l 343 328 q 346 332 343 329 q 367 376 360 363 q 376 431 376 401 l 376 794 m 250 718 l 250 307 q 239 260 250 283 q 210 218 228 238 q 183 250 192 239 q 165 285 174 267 q 152 311 156 303 q 146 324 149 319 l 142 336 q 128 389 136 353 q 124 439 124 439 q 125 467 124 457 q 164 604 128 519 q 226 708 181 644 q 229 709 228 708 q 233 713 231 710 l 236 713 q 239 714 238 713 l 240 714 l 242 715 q 244 718 243 714 l 250 718 m 778 592 l 778 589 q 781 575 778 583 q 794 532 794 535 q 798 516 797 521 q 801 501 799 511 q 804 486 804 492 q 807 469 807 475 q 810 439 810 447 l 810 431 q 808 421 808 426 l 808 411 q 806 400 807 407 q 804 389 804 393 l 800 376 q 789 353 799 368 q 728 396 760 381 q 694 411 706 406 q 660 420 668 419 q 639 424 653 421 q 629 425 631 424 l 607 425 q 594 424 603 424 q 571 418 574 419 q 521 399 532 406 q 474 371 489 382 l 474 574 q 565 531 517 542 q 588 526 583 526 q 593 526 589 526 q 600 525 597 525 l 611 525 q 646 528 628 525 q 654 529 649 528 q 664 531 660 531 q 731 557 708 547 q 778 592 761 575 m 471 786 l 479 783 l 492 783 q 503 782 496 782 q 528 778 521 779 q 653 720 589 764 q 754 625 718 676 q 640 560 718 574 l 638 560 q 635 558 636 558 l 624 558 q 619 557 621 557 l 614 557 q 593 558 603 557 q 581 559 583 558 q 568 563 579 560 q 471 643 481 585 l 471 786 m 535 1043 l 572 1043 l 511 1296 l 354 1296 l 535 1043 "},"Ó":{"ha":1050,"x_min":-6,"x_max":956,"o":"m 490 944 l 49 651 l 6 503 l -6 399 l 14 247 q 149 54 47 128 q 371 -17 246 -17 l 408 -17 q 417 -15 415 -15 l 424 -15 q 431 -14 429 -14 l 571 40 l 668 106 l 821 239 q 914 379 876 315 q 956 539 956 450 q 838 796 956 694 q 579 928 724 893 q 535 936 550 935 q 524 939 532 938 q 513 940 517 940 q 490 944 497 940 m 608 401 l 614 399 q 644 396 622 399 q 742 356 703 389 q 778 307 768 340 q 654 154 742 213 q 471 83 563 93 l 471 307 q 524 368 485 340 q 601 397 564 392 q 604 399 603 397 l 606 399 q 608 401 607 397 m 376 794 l 436 794 l 436 97 q 324 131 374 106 q 232 204 274 157 l 342 325 l 343 326 l 343 328 q 346 332 343 329 q 367 376 360 363 q 376 431 376 401 l 376 794 m 250 718 l 250 307 q 239 260 250 283 q 210 218 228 238 q 183 250 192 239 q 165 285 174 267 q 152 311 156 303 q 146 324 149 319 l 142 336 q 128 389 136 353 q 124 439 124 439 q 125 467 124 457 q 164 604 128 519 q 226 708 181 644 q 229 709 228 708 q 233 713 231 710 l 236 713 q 239 714 238 713 l 240 714 l 242 715 q 244 718 243 714 l 250 718 m 778 592 l 778 589 q 781 575 778 583 q 794 532 794 535 q 798 516 797 521 q 801 501 799 511 q 804 486 804 492 q 807 469 807 475 q 810 439 810 447 l 810 431 q 808 421 808 426 l 808 411 q 806 400 807 407 q 804 389 804 393 l 800 376 q 789 353 799 368 q 728 396 760 381 q 694 411 706 406 q 660 420 668 419 q 639 424 653 421 q 629 425 631 424 l 607 425 q 594 424 603 424 q 571 418 574 419 q 521 399 532 406 q 474 371 489 382 l 474 574 q 565 531 517 542 q 588 526 583 526 q 593 526 589 526 q 600 525 597 525 l 611 525 q 646 528 628 525 q 654 529 649 528 q 664 531 660 531 q 731 557 708 547 q 778 592 761 575 m 471 786 l 479 783 l 492 783 q 503 782 496 782 q 528 778 521 779 q 653 720 589 764 q 754 625 718 676 q 640 560 718 574 l 638 560 q 635 558 636 558 l 624 558 q 619 557 621 557 l 614 557 q 593 558 603 557 q 581 559 583 558 q 568 563 579 560 q 471 643 481 585 l 471 786 m 490 1043 l 671 1296 l 514 1296 l 453 1043 l 490 1043 "},"Ô":{"ha":1050,"x_min":-6,"x_max":956,"o":"m 490 944 l 49 651 l 6 503 l -6 399 l 14 247 q 149 54 47 128 q 371 -17 246 -17 l 408 -17 q 417 -15 415 -15 l 424 -15 q 431 -14 429 -14 l 571 40 l 668 106 l 821 239 q 914 379 876 315 q 956 539 956 450 q 838 796 956 694 q 579 928 724 893 q 535 936 550 935 q 524 939 532 938 q 513 940 517 940 q 490 944 497 940 m 608 401 l 614 399 q 644 396 622 399 q 742 356 703 389 q 778 307 768 340 q 654 154 742 213 q 471 83 563 93 l 471 307 q 524 368 485 340 q 601 397 564 392 q 604 399 603 397 l 606 399 q 608 401 607 397 m 376 794 l 436 794 l 436 97 q 324 131 374 106 q 232 204 274 157 l 342 325 l 343 326 l 343 328 q 346 332 343 329 q 367 376 360 363 q 376 431 376 401 l 376 794 m 250 718 l 250 307 q 239 260 250 283 q 210 218 228 238 q 183 250 192 239 q 165 285 174 267 q 152 311 156 303 q 146 324 149 319 l 142 336 q 128 389 136 353 q 124 439 124 439 q 125 467 124 457 q 164 604 128 519 q 226 708 181 644 q 229 709 228 708 q 233 713 231 710 l 236 713 q 239 714 238 713 l 240 714 l 242 715 q 244 718 243 714 l 250 718 m 778 592 l 778 589 q 781 575 778 583 q 794 532 794 535 q 798 516 797 521 q 801 501 799 511 q 804 486 804 492 q 807 469 807 475 q 810 439 810 447 l 810 431 q 808 421 808 426 l 808 411 q 806 400 807 407 q 804 389 804 393 l 800 376 q 789 353 799 368 q 728 396 760 381 q 694 411 706 406 q 660 420 668 419 q 639 424 653 421 q 629 425 631 424 l 607 425 q 594 424 603 424 q 571 418 574 419 q 521 399 532 406 q 474 371 489 382 l 474 574 q 565 531 517 542 q 588 526 583 526 q 593 526 589 526 q 600 525 597 525 l 611 525 q 646 528 628 525 q 654 529 649 528 q 664 531 660 531 q 731 557 708 547 q 778 592 761 575 m 471 786 l 479 783 l 492 783 q 503 782 496 782 q 528 778 521 779 q 653 720 589 764 q 754 625 718 676 q 640 560 718 574 l 638 560 q 635 558 636 558 l 624 558 q 619 557 621 557 l 614 557 q 593 558 603 557 q 581 559 583 558 q 568 563 579 560 q 471 643 481 585 l 471 786 m 328 1011 l 489 1157 l 646 1011 l 688 1011 l 561 1264 l 415 1264 l 288 1011 l 328 1011 "}}}
